<svg xmlns="http://www.w3.org/2000/svg" version="1.1" xmlns:xlink="http://www.w3.org/1999/xlink" width="1000" height="1000"><g clip-path="url(#SvgjsClipPath1038)"><rect width="1000" height="1000" fill="#ffffff"></rect><g transform="matrix(0.9259259259259259,0,0,0.9259259259259259,0,0)"><svg xmlns="http://www.w3.org/2000/svg" version="1.1" xmlns:xlink="http://www.w3.org/1999/xlink" width="1080" height="1080"><svg version="1.1" id="Layer_1" xmlns="http://www.w3.org/2000/svg" xmlns:xlink="http://www.w3.org/1999/xlink" x="0px" y="0px" viewBox="0 0 1080 1080" enablebackground="new 0 0 1080 1080" xml:space="preserve">
<g>
	<g>
		<path fill="none" d="M0.1,539.47C0.1,361.26,0.11,183.05,0,4.84C0,0.89,0.89,0,4.84,0c356.77,0.11,713.54,0.11,1070.31,0
			c3.95,0,4.84,0.89,4.84,4.84c-0.11,356.77-0.11,713.54,0,1070.31c0,3.95-0.89,4.84-4.84,4.84c-356.77-0.11-713.54-0.11-1070.31,0
			c-3.95,0-4.85-0.89-4.84-4.84C0.11,896.6,0.1,718.03,0.1,539.47z M676.24,364.76c8.34,4.84,17.12,8.09,25.35,12.57
			c3.13,1.71,6.52,3.01,9.55,5.01c2.83,1.88,2.41,3.56-0.15,5.16c-12.66,7.92-25.33,15.83-38.02,23.69
			c-22.36,13.86-44.79,27.6-67.05,41.62c-2.61,1.65-3.82,1.11-4.98-1.01c-5.88-10.72-11.21-21.72-15.6-33.15
			c-3.01-7.82-5.82-15.72-8.7-23.59c-2.46-6.71-7.35-12.41-6.1-20.61c0.71-4.69,3.43-8.77,3.06-13.72
			c-0.42-5.81-0.81-6.34-5.85-3.33c-10.62,6.35-21.1,12.92-31.68,19.33c-6.99,4.24-14.05,8.35-21.07,12.53
			c-5.86,3.48-11.69,7.01-17.57,10.46c-2.25,1.32-2.76,3.27-0.3,4.12c4.43,1.53,8.43,3.92,12.89,5.41
			c10.11,3.4,17.9,9.85,21.28,20.32c5.83,18.07,10.9,36.4,19.05,53.63c1.2,2.54,0.83,4.22-1.66,5.65c-4.38,2.53-8.81,5.01-12.95,7.9
			c-12.39,8.64-25.61,16.03-38.32,24.15c-8.63,5.52-17.22,11.42-26.33,16.39c-8.42,4.6-16.56,9.93-24.72,15.07
			c-10.7,6.74-21.49,13.43-32.15,20.25c-10.8,6.91-21.68,13.74-32.54,20.53c-12.08,7.56-24.35,14.86-36.18,22.82
			c-2.86,1.92-4.7,2.63-6.01-1.71c-3.5-11.64-7.19-23.22-11.11-34.72c-4.16-12.21-8.76-24.28-13.02-36.45
			c-4.2-12-8.11-24.11-12.36-36.09c-5.26-14.81-9.91-29.82-15.54-44.52c-4.84-12.63-8.31-25.79-13.13-38.43
			c-6.54-17.15-11.69-34.76-17.95-52c-4.88-13.43-9.11-27.08-13.73-40.6c-5.68-16.62-11.53-33.18-17.2-49.81
			c-5.34-15.66-10.51-31.38-15.78-47.07c-2.67-7.95-5.41-15.89-8.05-23.85c-0.42-1.26-1.14-2.83,0.36-3.83
			c1.27-0.85,2.23,0.27,3.25,0.95c3.47,2.33,7.36,4.04,10.84,6.21c11.42,7.11,23.89,11.83,36.25,16.67
			c14.43,5.66,29.56,9.4,44.32,14.11c11.86,3.79,23.74,7.63,35.63,11.34c18.42,5.75,36.57,12.19,54.39,19.56
			c20.52,8.49,40.57,17.9,58.76,30.82c13.77,9.78,26.92,20.25,36.52,34.49c3.08,4.57,5.88,9.45,6.31,14.83
			c0.96,12.03,0.65,24.12-0.65,36.17c2.64,0.73,4.32-1.16,6.13-2.36c5.49-3.66,11.09-7.08,16.81-10.4
			c18.83-10.94,37.41-22.31,56.1-33.49c2.69-1.61,2.6-3.44,0.7-5.56c-3.62-4.03-7.44-7.85-10.9-12.04
			c-8.3-10.04-18.5-18.18-27.89-27.13c-9.95-9.48-20.91-17.49-31.87-25.56c-7.16-5.27-14.88-9.78-22.44-14.48
			c-13.77-8.56-28.36-15.24-42.95-22.05c-8.33-3.89-16.99-6.9-25.66-9.88c-14.17-4.85-28.46-9.34-43.04-12.78
			c-17.57-4.15-35.04-8.65-52.75-12.23c-11.53-2.33-22.7-6.38-34.13-9.24c-11.63-2.91-23.04-6.62-34.02-11.23
			c-13.2-5.54-25.96-12.08-37.78-20.48c-9.85-6.99-18.67-15.05-25.95-24.36c-11.04-14.12-18.69-30-20.65-48.36
			c-1.15-10.83-0.5-21.5,1.96-31.82c2.19-9.18,6.53-17.84,9.88-26.75c1.95-5.19,0.85-10.17-3.39-11.84
			c-4.22-1.67-7.78,0.97-10.3,4.13c-4.26,5.34-7.41,11.39-10.31,17.58c-5.81,12.41-9.18,25.41-10.55,39.06
			c-1.84,18.29,0.8,35.93,7.25,52.95c8.21,21.69,22.25,39.41,39.24,54.91c2.74,2.5,5.52,5.16,6.55,8.73
			c2.31,7.98,5.46,15.68,8.22,23.47c4.67,13.2,8.74,26.59,13.54,39.75c5.67,15.56,10.59,31.39,15.95,47.06
			c4.17,12.17,8.61,24.24,12.76,36.41c4.36,12.79,8.39,25.69,12.78,38.47c6,17.51,12.27,34.92,18.29,52.42
			c5.31,15.43,10.37,30.95,15.65,46.39c4.24,12.4,8.92,24.66,12.91,37.14c4.87,15.24,10.54,30.19,15.81,45.28
			c3.55,10.18,7.55,20.18,10.83,30.47c2.44,7.63,3.71,15.89,8.5,22.72c0.41,0.59,0.45,1.79,0.14,2.47c-0.65,1.41-1.99,1.05-3.2,0.74
			c-6.28-1.57-12.49-3.57-18.86-4.56c-5.77-0.89-11.17-5.06-17.17-2.92c-4.85,1.73-8.74,5.56-13.71,7.37
			c-0.93,0.34-3.04,3.24-0.87,3.37c3.62,0.21,5.88,2.75,9.16,3.42c7.65,1.57,15.15,3.89,22.7,5.95c1.26,0.34,3.13,0.25,3.04,2.2
			c-0.09,1.87-1.69,2.57-3.3,2.82c-1.19,0.18-2.5,0.24-3.66-0.06c-9.59-2.43-19.41-4.37-28.77-7.18
			c-7.97-2.39-13.91-1.92-19.77,2.99c-3.62,3.04-9.13,3.45-11.63,8.08c11.63,2.94,22.96,5.75,34.26,8.7
			c1.89,0.49,4.82,0.87,4.32,3.56c-0.45,2.41-3.12,1.28-4.94,1.52c-4.72,0.62-8.8-1.98-13.17-2.85c-5.38-1.07-11.01-1.6-16.27-3.63
			c-8.2-3.16-16.32-4.61-23.36,2.94c-1.47,1.57-3.7,3.02-5.75,3.3c-2.67,0.37-3.17,2.15-4.11,3.5c12.52,3.6,24.97,7.17,37.42,10.75
			c3.04,0.88,2.25,2.66,1.47,4.91c-1.99,5.75,1.22,10.94,6.93,11.28c3.22,0.19,3.45,2.12,2.8,4.31c-3,10.09-3.29,20.66-5.58,30.87
			c-0.22,0.99-0.77,2.07,0.48,2.8c1.2,0.69,1.82-0.35,2.73-0.82c5.39-2.77,9.74-7.24,15.55-9.37c1.34-0.49,3.28-1.68,2.89-3.4
			c-1.32-5.84,2.41-10.76,2.56-16.44c0.14-5.27,2.31-10.47,2.48-15.97c0.07-2.2,1.93-4.43,3.26-6.46c0.6-0.92,1.66-1.96,3.08-1.6
			c1.68,0.43,1.18,1.84,1.25,3.02c0.19,3.01-0.31,5.88-0.98,8.83c-1.58,6.96-2.75,14.01-4.03,21.04c-0.29,1.62-0.03,4.07,2.09,2.89
			c6.22-3.46,12.1-7.53,18.09-11.4c0.39-0.25,0.73-0.87,0.76-1.33c0.55-8.91,4.19-17.24,4.9-26.14c0.3-3.8,2.22-7.31,2.71-11.18
			c0.25-2,2.39-3.13,4.53-2.45c2.23,0.72,1.09,2.46,0.82,3.97c-1.65,9.27-3.24,18.56-4.8,27.84c-0.18,1.1-1.11,2.57,0.61,3.17
			c1.19,0.42,2.53-0.08,3.35-1.03c1.76-2.03,3.92-3.28,6.43-4.15c8.03-2.79,10.05-8.95,10.23-16.85c0.12-5.51,1.53-11.07,2.98-16.44
			c1.28-4.78,2.72-4.98,6.33-1.53c14.71,14.06,29.47,28.07,44.03,42.28c38.18,37.27,76.22,74.67,114.39,111.95
			c30.21,29.51,60.6,58.83,90.77,88.37c21.68,21.22,43.16,42.66,64.71,64.02c1.98,1.96,3.61,3.99,4.55,6.87
			c4.08,12.58,8.92,24.74,15.95,36.17c11.1,18.07,25.58,32.22,44.16,42.15c20.86,11.16,43.25,15.38,66.79,13.55
			c5.26-0.41,10.32-1.91,15.1-4.08c5.28-2.4,5.9-6.29,2.35-10.77c-3.06-3.86-7.1-3.86-11.4-3.73c-11.74,0.37-23.57,0.47-34.89-2.96
			c-19.16-5.8-34.29-17.96-46.23-33.47c-12.67-16.47-19.62-36.04-21.87-56.46c-2.13-19.29-1.93-38.87,1.77-58.21
			c0.94-4.93,1.92-9.93,2.53-14.86c1.18-9.55,3.83-18.73,5.68-28.1c2.48-12.6,6.33-24.94,8.63-37.57
			c3.27-17.97,7.53-35.73,10.08-53.87c2.41-17.21,4.83-34.35,4.77-51.74c-0.05-14.04-0.33-27.99-2.23-42.02
			c-1.74-12.83-4.38-25.38-7.14-37.97c-1.94-8.86-5.18-17.36-7.37-26.12c-3.63-14.48-10.23-27.73-15.62-41.48
			c-1.25-3.19-2.87-2.72-5.11-0.86c-11.46,9.52-24.27,17.11-36.61,25.35c-12.38,8.27-24.87,16.39-37.27,24.62
			c-0.98,0.65-2.37,1.31-2.29,2.69c0.11,1.78,1.92,1.97,3.16,2.31c3.16,0.88,6.31,1.64,9.42,2.84c10.49,4.03,20.51,8.66,27.64,17.81
			c12.37,15.86,16.3,34.83,18.89,53.99c1.94,14.38,2.93,28.91,2.43,43.55c-0.74,21.73-3.38,43.24-5.93,64.79
			c-1.09,9.19-2.48,18.37-3.79,27.51c-1.01,7.04-1.8,14.19-3.23,21.21c-1.54,7.52-2.99,15.11-3.66,22.74
			c-0.99,11.3-2.46,22.54-2.82,33.94c-0.41,13.03,0.56,25.91,1.31,38.84c0.11,1.83,1.48,3.99-0.7,5.26
			c-2.3,1.34-3.49-0.97-4.76-2.21c-32.21-31.51-64.22-63.23-96.63-94.53c-18.43-17.8-36.37-36.08-54.91-53.78
			c-28.55-27.25-56.44-55.2-84.47-82.98c-21.42-21.23-43.79-41.47-64.79-63.14c-2.76-2.85-2.05-4.63,0.5-6.18
			c6.5-3.95,12.89-8.16,19.48-11.86c12.43-6.98,24.4-14.67,36.4-22.28c10.87-6.89,21.77-13.77,32.66-20.59
			c10.47-6.55,20.95-13.15,31.47-19.64c17.51-10.81,35.02-21.61,52.14-33.06c9.73-6.51,20.27-11.8,29.83-18.71
			c1.49-1.08,4.24-5.39,7.22-1.25c11.77,16.31,26.78,29.67,40.36,44.33c2.84,3.07,4.64,6.33,5.82,10.27
			c2.81,9.39-0.08,18.42-1.23,27.58c-0.13,1.05-1.41,2.31,0.13,3.23c1.19,0.71,2.22,0.17,3.35-0.57
			c6.27-4.07,12.75-7.84,18.92-12.05c9.56-6.52,19.35-12.71,28.9-19.24c8.6-5.88,17.03-12.07,25.77-17.79
			c0.63-0.41,1.18-1.4,1.23-2.15c0.07-1.14-1.08-0.99-1.9-1.23c-4.17-1.2-8.32-2.13-12.68-2.77c-6.51-0.95-11.74-4.64-16.43-10.11
			c-13.32-15.54-27.46-30.36-39.4-47.07c-2.56-3.59-3.23-5.64,1.26-8.64c20.34-13.6,41.64-25.63,62.21-38.84
			c13.05-8.38,26.34-16.39,39.42-24.72c1.59-1.01,2.74-3.16,4.87-2.15c2.23,1.06,1.99,3.53,1.98,5.59
			c-0.06,11.06-0.23,22.13-0.3,33.19c-0.01,1.29-0.64,2.78,0.74,3.85c13.91-13.76,86.46-107.93,86.43-112.35
			C767.93,344.33,722.28,355.11,676.24,364.76z M881.13,585.42c0,0.01,0,0.01,0,0.02c-19.15,0-38.31,0.04-57.46-0.03
			c-3.95-0.02-5.91,1.21-6.61,5.54c-2.41,15.06-5.66,30-10.39,44.5c-13.26,40.64-34.26,76.75-64.23,107.46
			c-1.97,2.02-3.81,4.1-4.1,7.15c-1.4,14.69-5.18,28.96-7.93,43.41c-6.08,32-14.8,63.47-19.51,95.76
			c-1.75,12.02-2.67,24.08-2.08,36.2c0.33,6.68,2.58,8.33,7.64,5.55c21.37-11.77,42.54-23.87,63.08-37.05
			c2.87-1.84,2.99-3.56,1.96-6.51c-6.33-18.22-12.36-36.53-18.73-54.73c-1.51-4.31-1.29-7.21,2.49-10.46
			c14.89-12.84,29.21-26.36,42.17-41.15c4.12-4.71,7.64-5.46,13.12-3.36c17.53,6.71,35.21,13.04,52.79,19.65
			c3.15,1.18,5.49,1.56,7.62-1.82c12.82-20.34,24.65-41.27,36.76-62.03c1.66-2.85,1.68-4.9-0.91-7.3
			c-14.18-13.11-28.13-26.47-42.37-39.52c-5.97-5.47-6.42-6.01-3.47-13.4c0.39-0.98,0.82-1.94,1.18-2.93
			c5.56-15.53,10.02-31.38,13.98-47.38c0.89-3.59,2.63-5.45,6.58-6.32c19.34-4.24,38.83-7.82,57.95-13.04
			c2.94-0.8,5.36-1.65,5.67-5.14c0.32-3.56-0.3-6.62-3.83-8.48c-5.03-2.65-10.23-4.59-16-4.59
			C918.03,585.42,899.58,585.42,881.13,585.42z M254.32,698.76c-0.08-2.35,0.41-3.96-0.76-4.99c-4.27-3.75-5.89-9.06-8.39-13.85
			c-1.17-2.25-2.99-3.34-5.34-3.83c-8.94-1.84-17.77-4.08-26.47-6.84c-1.57-0.5-3.52-2.01-4.88-0.6c-1.55,1.61-0.23,3.92,0.67,5.38
			c2.8,4.54,1.32,7.59-2.28,10.88c-14.38,13.14-28.56,26.5-42.82,39.77c-2.68,2.49-5.56,4.45-2.86,9.12
			c12.14,20.96,24.94,41.48,38.73,61.39c1.72,2.48,3.52,3.17,6.66,1.95c15.19-5.91,30.54-11.42,45.77-17.25
			c13.85-5.3,13.77-5.37,23.91,5.13c12.56,13.02,25.05,26.1,38.89,37.8c2.37,2.01,4.21,4.16,3,7.7c-2.83,8.29-5.46,16.65-8.25,24.95
			c-3.62,10.79-7.29,21.57-11.02,32.32c-0.78,2.26-0.9,4.45,1.38,5.5c4.05,1.88,6.93,6.31,11.91,5.88c1.11-0.1,2.22-2.1,3.02-3.42
			c1.91-3.15,3.67-6.39,5.44-9.62c18.1-33.11,38.16-65.07,57.08-97.7c3.98-6.87,4.07-7.33-2.41-12.33
			c-15.19-11.72-28.95-24.95-41.91-39.09c-7.13-7.79-13.08-16.49-19.93-24.47c-2.43-2.84-4.57-3.52-8.05-1.25
			c-15.72,10.23-31.62,20.21-47.48,30.23c-2.9,1.83-6.44,5.98-8.97,4.04c-2.75-2.11-0.84-7.11-0.39-10.9
			C250.06,722.3,251.75,709.99,254.32,698.76z M563.79,280.64c0,0.08,0,0.17,0,0.25c11.07,0,22.14-0.12,33.21,0.07
			c3.84,0.07,6.5-0.89,8.84-4.22c11.49-16.36,23.26-32.52,34.87-48.79c2.85-3.99,2.27-5.79-2.41-7.21
			c-12.25-3.72-24.55-7.26-37.13-9.65c-3.61-0.69-5.49-2.1-6.23-5.85c-3.8-19.25-7.84-38.46-11.74-57.69
			c-0.68-3.34-2.09-5.23-5.93-5.22c-24.95,0.08-49.91,0.06-74.86-0.08c-3.25-0.02-4.59,1.05-5.22,4.29
			c-3.9,19.96-8.1,39.86-11.93,59.83c-0.59,3.09-1.75,4.77-4.67,5.4c-2.06,0.45-4.12,0.85-6.16,1.38
			c-12.05,3.1-24.1,6.21-36.13,9.39c-1.28,0.34-3.09,0.49-3.35,2.09c-0.28,1.73,1.56,2.18,2.72,2.78c4.81,2.52,9.66,4.97,14.55,7.34
			c24.07,11.67,47.3,24.68,67.83,42.06c2.67,2.26,5.58,3.99,9.48,3.91C540.94,280.51,552.36,280.64,563.79,280.64z M845.7,459.18
			c8.6,0,17.21,0.07,25.81-0.03c5.17-0.06,6.12-1.51,4.47-6.53c-1.21-3.65-2.11-7.52-3.97-10.83c-3.49-6.18-0.22-9.5,4.11-13.24
			c13.8-11.91,27.33-24.12,41.06-36.11c2.7-2.36,3.26-4.62,1.48-7.78c-11.96-21.24-24.28-42.26-37.11-62.99
			c-1.98-3.2-4.05-3.53-7.43-2.21c-12.57,4.88-24.99,10.21-38.26,13.04c-3.07,0.66-5.27,2.49-7.15,4.99
			c-10.52,14.01-20.48,28.52-31.9,41.75c-7.86,9.11-9.61,16.7-3.78,27.84c7.93,15.18,13.77,31.46,20.35,47.32
			c1.49,3.59,3.66,4.98,7.58,4.85C829.19,459.01,837.45,459.19,845.7,459.18z M290.82,432.4c3.03-2.19,4.41-4.89,5.9-7.38
			c15.96-26.66,35.02-50.74,58.12-71.65c17.92-16.22,37.28-30.27,58.78-41.35c2.5-1.29,6.82-1.56,6.72-4.83
			c-0.09-2.96-4.07-3.95-6.68-5.27c-20.53-10.4-41.72-19.2-63.56-26.46c-11.81-3.93-23.64-7.83-35.43-11.81
			c-4.74-1.6-5.29,0.39-3.89,4.27c1.43,3.96,2.6,8.04,4.38,11.83c2.1,4.5,1.97,7.74-2.21,11.35c-15.57,13.43-30.17,27.85-43.2,43.81
			c-1.63,2-3.84,3.74-6.3,3.2c-6.59-1.44-4.56,2.24-3.49,5.4c4.43,13.11,8.71,26.28,13.4,39.29
			C279.24,399.11,283.8,415.87,290.82,432.4z M231.55,496.99c0-0.02,0-0.05,0-0.07c10.01,0,20.04-0.4,30.02,0.13
			c8.01,0.43,10.17-2.98,10.73-11.94c0.13-2.02-0.61-4.17-1.28-6.14c-7.5-22.05-15.11-44.06-22.58-66.12
			c-8.43-24.89-17.01-49.74-24.96-74.79c-2.92-9.18-5.79-17.39-17.27-17.78c-0.16-0.01-0.34-0.1-0.49-0.2
			c-3.09-1.95-4.95-0.82-6.81,2.09c-12.98,20.22-24.94,41.04-37.1,61.76c-2,3.41-1.85,5.91,1.23,8.71
			c14.51,13.23,28.83,26.69,44.07,39.09c3.33,2.71,4.22,5.27,2.66,9.51c-5.99,16.29-10.31,33.07-14.19,49.98
			c-1.09,4.76,0.51,5.9,4.89,5.83C210.83,496.88,221.19,496.99,231.55,496.99z M539.93,969.18c11.91,0.57,25.04-0.57,38.19-0.92
			c2.64-0.07,4.6-0.44,5.17-3.81c2.77-16.4,5.5-32.82,9.31-49.02c1.79-7.63,0.85-13.86-5.87-19.58
			c-10.67-9.08-20.34-19.34-30.45-29.08c-7.83-7.55-15.33-15.43-23.58-22.56c-2.98-2.58-4.03-2.46-6.03,1
			c-12.11,20.92-24.43,41.73-36.87,62.46c-1.84,3.07-2.68,5.86-1.98,9.39c3.12,15.62,6.14,31.27,9.06,46.93
			c0.67,3.62,2.91,4.24,6.03,4.39C514.82,968.97,526.73,969.4,539.93,969.18z M1026.07,643.51c6.36,0.07,11.25-1.12,15.63-3.8
			c13.62-8.33,17.54-25.84,8.99-40.12c-7.61-12.7-27.4-17.71-39.94-9.59c-4.04,2.62-6.57,2.42-10.06-0.56
			c-14.01-11.96-29.09-22.56-43.73-33.72c-3.65-2.78-7.35-4.56-12.07-4.06c-9.62,1.02-19.25,0.35-28.9,0.18
			c-17.9-0.32-35.82,0.29-53.72,0.4c-38.11,0.25-76.22-0.43-114.33-0.35c-5.96,0.01-9.58-1.79-12.92-6.64
			c-5.94-8.59-14.73-12.12-25.1-11.62c-1.77,0.08-4.91,0.04-3.66,2.81c2.72,6,3.48,13.32,11.37,16.09c7.87,2.77,9.54,8.4,5.41,15.88
			c-1,1.81-1.63,3.43-0.82,5.43c1.49,3.7,2.23,9.14,5.89,9.95c4.31,0.95,7.17-3.74,9.14-7.47c2.02-3.82,4.9-4.84,8.98-4.86
			c22.83-0.08,45.65-0.12,68.48-0.48c37.76-0.59,75.55,0.07,113.32-0.34c10.33-0.11,19.23,1.19,27.62,8.19
			c12.23,10.21,25.49,19.17,38.3,28.67c2.73,2.03,3.69,4.64,3.76,8.14C998.04,631.59,1010.17,643.35,1026.07,643.51z
			 M1060.08,440.92c-0.25-8.31-5.49-17.45-16.36-22.95c-9.96-5.05-20.14-4.96-29.61,0.97c-8.95,5.61-15.27,14.69-12.62,24.7
			c2.94,11.14-0.38,17.93-8.19,24.33c-0.27,0.22-0.49,0.51-0.67,0.81c-2.68,4.56-6.59,5.96-11.89,5.92
			c-34.78-0.22-69.55-0.13-104.33-0.17c-21.43-0.03-42.86-0.15-64.28-0.16c-3.78,0-6.96-0.71-8.53-4.68
			c-1.73-4.4-3.54-8.78-5.36-13.14c-6.15-14.72-12.32-29.42-19.22-43.82c-1.92-4-3.78-4.73-6.61-0.71c-1.5,2.13-3.39,4.08-5.42,5.73
			c-3.46,2.82-3.53,5.82-1.8,9.7c8.38,18.72,17.08,37.32,24.61,56.39c3.03,7.69,7.59,9.72,14.92,9.71
			c62.35-0.1,124.7-0.07,187.06-0.06c2.37,0,4.63-0.25,6.23-2.17c5.04-6.07,11.11-11.25,15.58-17.8c2.46-3.61,5.05-4.21,9.36-2.72
			C1041.34,477.17,1059.97,463.89,1060.08,440.92z M363.27,678.96c-0.27,2.57,0.88,4.82,1.74,7.03
			c10.2,26.13,20.25,52.32,30.92,78.26c3.61,8.78,5.14,16.57-1.78,24.26c-1.37,1.52-2.07,3.63-3.14,5.44
			c-17.24,29.35-34.37,58.76-51.79,88.01c-6.85,11.5-11.45,24.44-21.41,33.99c-0.5,0.48-0.36,1.06-0.39,1.74
			c-0.25,5.94-4.46,10.09-10.28,10.3c-16.2,0.59-25.37,11.92-28.47,24.55c-2.98,12.15,4.13,25.3,15.68,31.14
			c11.36,5.74,25.63,3.24,34.42-6.03c7.92-8.36,9.82-24.34,3.22-34.31c-3-4.54-2.36-7.93,0.05-11.97
			c7.9-13.25,15.58-26.64,23.59-39.83c21.39-35.23,40.69-71.69,62.8-106.49c2.35-3.7,2.78-7.2,1.06-11.41
			c-6.82-16.72-13.61-33.46-19.92-50.37c-4.12-11.03-9.19-21.14-18.62-28.73c-4.63-3.73-8.6-8.28-12.88-12.45
			C366.73,680.77,365.55,679.16,363.27,678.96z M78.44,643.89c-0.07-9.61-0.07-9.6,4.47-12.68c11.02-7.48,22.09-14.9,33.03-22.5
			c3.33-2.32,6.75-3.24,10.8-3.22c47.95,0.13,95.9,0.13,143.86,0.17c4.23,0,8.56,0.25,11.96-2.87c6.4-5.87,13.15-5.6,20.27-1.53
			c1.05,0.6,2.23,1.04,3.41,1.37c1.43,0.4,2.38-0.23,2.65-1.73c0.84-4.73-7.15-14.5-11.96-14.51c-59.72-0.1-119.44-0.18-179.16-0.27
			c-1.94,0-3.84-0.06-5.47,1.34c-12.54,10.77-27.49,18.18-40.12,28.81c-3.3,2.78-6.25,2.98-10.06,1.13
			c-7.24-3.51-14.77-3.93-22.46-1.19c-13.31,4.74-21.37,19.36-18.31,33.46c3.19,14.71,16.85,24.04,32.41,22.16
			C68.2,670.07,78.55,658.36,78.44,643.89z M209.92,530.8c0-0.06,0-0.11,0-0.17c23.9,0,47.79,0.04,71.69-0.02
			c6.59-0.02,6.85-0.49,4.84-6.56c-0.77-2.33-1.91-4.6-2.24-6.99c-0.68-4.85-3.62-5.59-7.84-5.56c-19.85,0.16-39.71-0.02-59.57,0.14
			c-22.3,0.18-44.61-0.48-66.91,0.58c-4.41,0.21-9.11,1.3-13.21-1.91c-13.81-10.81-27.69-21.52-41.56-32.26
			c-3.38-2.62-5.41-5.74-5.07-10.32c1.46-19.93-19.49-32.84-38.63-26.87c-11.71,3.65-18.6,12.62-19.3,25.05
			c-0.59,10.48,2.72,19.86,12.07,25.89c10.08,6.5,20.74,7.84,31.16,1.1c4.06-2.62,6.88-2.13,10.26,0.55
			c13.35,10.53,26.82,20.92,40.13,31.5c4.95,3.93,10,6.18,16.7,6.04C164.93,530.53,187.43,530.8,209.92,530.8z M634.19,280.95
			c3.75-0.8,8.62,1.89,12.22-3.49c9.27-13.84,19.25-27.2,28.62-40.97c23.66-34.81,49.06-68.4,72.83-103.12
			c3.38-4.94,7.02-5.98,12.35-5.24c11.12,1.56,20.06-2.76,26.53-11.56c6.28-8.55,7.08-18.38,3.13-28.02
			c-6.69-16.36-24.97-22.64-40.81-14.58c-11.13,5.67-18.53,21.73-13.85,32.68c2.95,6.9,1.98,11.85-2.86,16.88
			c-1.56,1.62-2.68,3.67-4,5.53c-23.43,32.85-46.87,65.69-70.28,98.55c-10.17,14.28-20.65,28.35-30.34,42.96
			C621.15,280.47,621.66,280.81,634.19,280.95z M877.58,144.67c0.3-15.27-8.93-25.12-20.49-28.52
			c-12.71-3.74-24.06,0.39-31.42,10.22c-6.89,9.19-7.34,23.24-0.77,33.71c1.67,2.67,1.49,4.54-0.13,7.12
			c-15.99,25.37-31.77,50.86-47.75,76.23c-15.69,24.93-31.53,49.76-47.3,74.64c-1.21,1.91-2.52,3.68-1.77,6.3
			c3.3,11.45,7.82,14.04,19.27,11.57c4.72-1.02,5.96-3.15,4.03-7.34c-2.13-4.64-1.17-8.73,1.56-12.86
			c5.7-8.62,11.19-17.37,16.73-26.1c23.41-36.86,46.84-73.71,70.16-110.63c2.46-3.9,5.26-5.88,10.15-5.96
			C865.75,172.79,877.49,160.52,877.58,144.67z M381.46,1000.54c0.07,18.49,7.24,28.27,20.31,32.87c10.5,3.7,23.57-0.66,31.48-10.49
			c6.49-8.07,7.62-22.81,1.24-31.69c-3.3-4.59-2.4-7.59-0.06-11.73c10.19-18.01,20.13-36.17,30.22-54.25
			c12.13-21.74,24.38-43.42,36.45-65.19c2.27-4.1,7.52-8.26,6.2-12.16c-1.23-3.65-7.15-5.63-10.83-8.56
			c-2.81-2.24-4.5-1.83-6.09,1.38c-2.69,5.45-5.54,10.83-8.51,16.14c-12.35,22.03-24.84,43.99-37.16,66.04
			c-9.07,16.23-17.96,32.56-26.91,48.86c-1.7,3.1-3.68,5.18-7.77,4.88c-5.54-0.42-10.78,1.92-15.34,4.46
			C385.3,986.31,381.54,995.21,381.46,1000.54z M871.05,531.84c0,0.01,0,0.02,0,0.02c20.2,0,40.4,0.01,60.6,0
			c12.12,0,24.24-0.06,36.36-0.03c2.46,0.01,4.73-0.22,5.18-3.18c0.7-4.57,0.59-9.48-1.35-13.39c-1.73-3.5-6.41-1.23-9.76-1.68
			c-1.38-0.18-2.81-0.03-4.21-0.03c-28.98,0.03-57.97-0.47-86.94,0.24c-27.57,0.67-55.13,0.14-82.69,0.39
			c-4.47,0.04-7.24-2.21-9.15-6.48c-8.32-18.57-16.87-37.03-25.53-55.45c-5.29-11.24-5.28-11.03-13.5-1.71
			c-2.93,3.32-4.66,5.97-2.51,10.56c10.11,21.59,20.02,43.29,29.83,65.02c1.92,4.26,4.62,5.85,9.35,5.82
			C808.17,531.75,839.61,531.84,871.05,531.84z M553.62,631.49c-1.84,0.13-4.28-0.02-6.69,0.77c-10.58,3.48-18.22,10.12-20.65,21.15
			c-2.87,13.01,1.01,23.99,12.34,31.61c3.58,2.41,5.98,4.61,5.5,9.57c-1.38,14.3-2.32,28.65-3.18,42.99
			c-0.29,4.84-2.34,6.96-7.1,8.1c-12.44,2.98-24.73,6.57-37.07,9.94c-3.28,0.89-4.08,2.48-1.37,5.07c3.54,3.39,6.63,7.24,10.79,10
			c1.75,1.16,3.46,1.65,5.45,1.13c13.88-3.66,27.7-7.51,41.65-10.88c4.17-1,5.51-3.37,5.56-6.97c0.25-19.13,1.85-38.18,3.12-57.25
			c0.31-4.7,1.47-7.53,5.93-9.73c11.38-5.6,17.69-19.22,14.96-30.84C579.29,641.01,568.31,631.56,553.62,631.49z M600.61,297.2
			c0-0.01,0-0.02,0-0.04c-5.09,0-10.18-0.01-15.28,0c-11.76,0.04-23.53,0.07-35.29,0.17c-1.14,0.01-2.71-0.48-3.27,0.96
			c-0.56,1.43,0.94,2.11,1.73,2.94c3.52,3.68,7.22,7.19,10.62,10.97c2.93,3.25,6.32,4.47,10.71,4.4c25.97-0.4,51.96-1.16,77.91-0.57
			c11.2,0.25,18.23-2.35,24.61-12.5c17.25-27.43,36.76-53.4,54.34-80.65c6.07-9.41,5.94-9.27-3.97-15.21
			c-3.6-2.16-5.63-1.98-8.18,1.56c-19.57,27.18-38.02,55.12-56.51,83.02c-2.32,3.5-4.81,5.05-8.96,5.01
			C632.92,297.11,616.76,297.2,600.61,297.2z M656.99,811.7c0.2-4.82-0.15-5.14-4.55-4.06c-1.52,0.37-3.01,0.92-4.49,1.44
			c-7.43,2.64-14.73,5.72-22.3,7.87c-17.02,4.84-34.14,9.33-51.98,10.15c-1.98,0.09-5.24-0.38-6,2.15
			c-0.74,2.45,2.06,3.86,3.62,5.37c17.32,16.68,34.73,33.26,52.08,49.91c8.08,7.76,10.85,8.22,20.82,3.38
			c2.46-1.19,3.59-2.77,3.8-5.64c0.66-8.9,1.47-17.81,2.65-26.66C652.59,840.87,654.88,826.16,656.99,811.7z M605.89,693.76
			c-7.61,0.29-16.44,4.13-21.66,13.98c-5.79,10.92-6.12,21.9,1.25,32.26c2.56,3.6,2.88,6.66,1.19,10.63
			c-3.16,7.41-5.95,14.99-8.8,22.53c-1.27,3.35-3.31,5.36-7.01,6.25c-11.07,2.67-22.06,5.67-33.06,8.64
			c-3.33,0.9-8.77,0.58-9.23,3.67c-0.48,3.2,4,6.03,6.77,8.6c3.88,3.6,7.79,6.85,13.93,5.06c11.78-3.42,23.7-6.4,35.56-9.56
			c2.27-0.6,4.51-1.38,5.27-3.87c3.21-10.6,8.77-20.28,12.22-30.75c2.01-6.1,4.82-9.88,11.82-10.24
			c14.8-0.76,24.88-17.39,23.79-30.5C636.67,705.57,623.77,693.7,605.89,693.76z M451.86,767.83c-3.87,0.54-7.36,1.72-9.22,5.8
			c-1.53,3.35-3.26,6.62-5.04,9.84c-20.71,37.46-43.05,73.95-65.38,110.45c-5.58,9.12-11.15,18.26-16.76,27.37
			c-2.22,3.6-2.91,6.79,1.68,9.16c1.55,0.8,2.97,1.86,4.41,2.87c1.77,1.24,3.34,0.94,4.62-0.67c12.47-15.62,25.79-30.55,37.27-46.95
			c0.91-1.3,1.82-2.69,1.73-4.33c-0.18-3.42,1.66-5.97,3.3-8.69c2.89-4.81,5.67-9.68,8.42-14.57c12.64-22.47,25.26-44.96,37.9-67.43
			c1.26-2.23,3.15-3.53,5.69-4.3c10.44-3.15,10.44-3.25,2.77-11.36C460.1,771.7,456.99,768.25,451.86,767.83z M453.2,456.86
			c19.54-0.03,33.05-16.37,28.64-35.16c-2.17-9.26-7.23-16.75-16.61-20.31c-4.54-1.73-6.82-4.64-6.37-9.59
			c0.11-1.21-0.04-2.48-0.3-3.67c-2.26-10.34-1.1-19.13,7.33-27.21c8.82-8.44,7.86-12.06-0.76-21.07c-2.34-2.44-3.96-2.53-5.9-0.03
			c-5.85,7.54-13.15,13.61-20.15,20c-1.68,1.53-2.15,3.12-1.88,5.56c1.12,10.1,1.75,20.26,2.71,30.38c0.35,3.73-1.01,6.09-4.08,8.3
			c-10.83,7.79-14.43,20.45-9.99,33.72C429.77,449.49,440.36,456.88,453.2,456.86z M208.3,549.11c0,0.05,0,0.09,0,0.14
			c-5.44,0-10.89,0-16.33,0c-21.77,0-43.55-0.03-65.32,0.02c-2.17,0.01-5.33-0.81-6,1.93c-1.17,4.74-1.65,9.92,0.34,14.44
			c1.54,3.48,5.66,2.08,8.64,2.07c53.37-0.23,106.74,0.96,160.11-0.67c10.38-0.32,10.39-0.19,7.95-10.04
			c-1.91-7.71-2.14-7.89-9.84-7.89C261.34,549.11,234.82,549.11,208.3,549.11z M696.44,346.19c2.94-0.44,5.36-0.82,7.79-1.15
			c8.45-1.14,9.13-2.36,5.46-9.93c-0.23-0.47-0.5-0.93-0.8-1.36c-3.73-5.23-3.25-10.14,0.22-15.51
			c16.47-25.47,32.68-51.11,49.08-76.63c5.48-8.53,5.56-8.7-3.38-13.98c-0.75-0.45-1.56-0.81-2.32-1.25
			c-2.84-1.66-4.98-0.86-6.69,1.78c-2.19,3.38-4.44,6.73-6.67,10.08c-18.37,27.58-36.77,55.14-54.38,83.21
			c-1.65,2.63-1.8,4.95,0.01,7.26c3.49,4.46,5.97,9.46,8.27,14.58C693.8,345.02,694.81,346.37,696.44,346.19z M335.61,511.52
			c-1.93,0-3.86-0.05-5.79,0.01c-13.48,0.43-11.98,0.31-7.54,12.2c1.92,5.14,5.29,7.31,10.88,6.94c5.94-0.39,11.93-0.23,17.89-0.03
			c3.43,0.12,5.98-1.08,8.44-3.39c9.21-8.63,18.67-17,27.83-25.67c4.3-4.07,8.82-6.62,15.01-5.73c5.7,0.82,11.48,1.02,17.19,1.76
			c4.39,0.57,7.14-0.09,6.89-5.5c-0.16-3.47,0.31-7.04,1.02-10.45c0.98-4.68-1.1-6.01-5.29-6.01c-10,0-20.01-0.06-30.01-0.25
			c-2.74-0.05-4.6,1.16-6.47,2.88c-7.74,7.12-15.48,14.23-23.34,21.21C354.7,506.27,348.03,515.32,335.61,511.52z M483.16,800.31
			c-5.13,1.77-12.11,1.16-16,8.35c-11.78,21.73-23.99,43.22-36,64.82c-3.61,6.51-3.53,6.51,2.94,9.72c1.56,0.77,3.13,1.64,4.47,2.75
			c3.23,2.67,5.13,1.49,6.97-1.76c9.43-16.6,19.38-32.93,28.35-49.78c4.99-9.37,10.34-17.01,22.15-17.16
			c2.23-0.03,4.09-1.44,3.67-4.15C499.05,808.88,488.49,800.27,483.16,800.31z M625.45,335.51c0,0.01,0,0.02,0,0.03
			c-13.33,0-26.65-0.07-39.98,0.04c-4.84,0.04-5.35,1.15-2.61,5.18c1.71,2.53,3.22,5.25,3.26,8.2c0.07,4.5,2.18,5.54,6.24,5.52
			c20.34-0.08,40.68,0.03,61.02,0.09c6.74,0.02,13.08-2.2,19.61-3.37c1.77-0.31,3.56-1.03,3.61-3.19
			c0.13-5.1-7.42-12.47-12.76-12.49C651.05,335.48,638.25,335.51,625.45,335.51z M250.3,620.24c-17.79,0-34.8,0.07-51.81-0.06
			c-3.63-0.03-4.91,1.39-4.05,4.71c2.02,7.79,4.21,15.54,6.26,23.32c1.03,3.9,3.18,4.03,6.2,2.15c11.44-7.12,23.03-14,34.27-21.42
			C244.33,626.87,248.35,625.25,250.3,620.24z M735.86,177.96c-3.69,1.46-5.02,5.1-7.29,7.85c-2.35,2.84-1.33,4.44,1.35,6.24
			c11.33,7.59,22.55,15.35,33.84,23c10.34,7,10.18,6.86,16.69-3.68c2.58-4.18,2.48-6.74-1.99-9.26
			c-13.25-7.47-26.37-15.16-39.56-22.75C738.01,178.86,737.03,178.5,735.86,177.96z M365.91,178.23c-0.29,0.08-0.85,0.11-1.29,0.36
			c-8.69,4.93-17.37,9.88-26.03,14.87c-0.86,0.5-2.07,1.04-1.92,2.27c0.2,1.61,1.78,1.44,2.89,1.74
			c17.61,4.69,35.22,9.35,52.83,14.02c0.99,0.26,2.19,0.83,2.79-0.39c0.65-1.32-0.41-2.29-1.22-3.21
			c-7.84-8.98-15.65-17.98-23.53-26.92C369.29,179.69,368.17,178.18,365.91,178.23z M772.39,330.79c1.87,0.06,23.86-4.59,25.71-5.36
			c2.52-1.04,2.62-2.54,0.96-4.44c-5.19-5.97-10.89-11.44-16.68-16.83c-1.5-1.4-2.7-1.36-3.99,0.14c-4.33,5.05-9.09,9.8-12.35,15.66
			C763.77,324.07,767.77,330.65,772.39,330.79z M338.78,549.61c-5.51-0.05-6.32,1.18-4.46,6.31c0.42,1.15,0.68,2.35,1.08,3.5
			c3.89,11.06,7.8,22.12,11.72,33.17c0.7,1.96,1.94,3.74,4.21,2.93c2.1-0.75,4.14-2.12,3.62-5.03c-0.28-1.55-0.33-3.18-0.86-4.64
			c-3.77-10.37-6.57-21.03-9.52-31.65C343.75,551.24,342.08,549.13,338.78,549.61z"></path>
		<path fill="#102141" d="M676.24,364.76c46.04-9.65,91.69-20.43,137.6-30.23c0.03,4.41-72.53,98.59-86.43,112.35
			c-1.38-1.06-0.75-2.55-0.74-3.85c0.08-11.06,0.24-22.13,0.3-33.19c0.01-2.06,0.25-4.53-1.98-5.59c-2.12-1.01-3.28,1.14-4.87,2.15
			c-13.08,8.33-26.37,16.34-39.42,24.72c-20.57,13.21-41.87,25.24-62.21,38.84c-4.49,3-3.82,5.06-1.26,8.64
			c11.94,16.71,26.08,31.53,39.4,47.07c4.69,5.47,9.92,9.17,16.43,10.11c4.36,0.63,8.51,1.56,12.68,2.77
			c0.82,0.24,1.98,0.08,1.9,1.23c-0.05,0.75-0.6,1.74-1.23,2.15c-8.74,5.71-17.17,11.9-25.77,17.79
			c-9.55,6.53-19.34,12.71-28.9,19.24c-6.17,4.21-12.64,7.98-18.92,12.05c-1.14,0.74-2.16,1.28-3.35,0.57
			c-1.54-0.92-0.27-2.18-0.13-3.23c1.15-9.16,4.03-18.19,1.23-27.58c-1.18-3.94-2.98-7.21-5.82-10.27
			c-13.58-14.66-28.59-28.02-40.36-44.33c-2.99-4.14-5.74,0.17-7.22,1.25c-9.55,6.91-20.1,12.2-29.83,18.71
			c-17.12,11.45-34.64,22.25-52.14,33.06c-10.52,6.5-21,13.09-31.47,19.64c-10.9,6.82-21.8,13.7-32.66,20.59
			c-12.01,7.61-23.98,15.3-36.4,22.28c-6.59,3.7-12.98,7.91-19.48,11.86c-2.55,1.55-3.26,3.33-0.5,6.18
			c21,21.67,43.37,41.91,64.79,63.14c28.03,27.79,55.92,55.74,84.47,82.98c18.54,17.69,36.48,35.98,54.91,53.78
			c32.41,31.3,64.42,63.02,96.63,94.53c1.27,1.24,2.46,3.55,4.76,2.21c2.18-1.27,0.81-3.44,0.7-5.26
			c-0.76-12.93-1.73-25.81-1.31-38.84c0.36-11.4,1.83-22.64,2.82-33.94c0.67-7.63,2.12-15.22,3.66-22.74
			c1.44-7.02,2.22-14.17,3.23-21.21c1.32-9.13,2.71-18.31,3.79-27.51c2.55-21.55,5.19-43.06,5.93-64.79
			c0.5-14.64-0.49-29.17-2.43-43.55c-2.58-19.16-6.52-38.13-18.89-53.99c-7.14-9.15-17.16-13.77-27.64-17.81
			c-3.11-1.2-6.26-1.96-9.42-2.84c-1.24-0.34-3.05-0.53-3.16-2.31c-0.08-1.38,1.3-2.04,2.29-2.69
			c12.41-8.23,24.89-16.35,37.27-24.62c12.35-8.24,25.16-15.83,36.61-25.35c2.24-1.86,3.86-2.33,5.11,0.86
			c5.39,13.75,11.99,27,15.62,41.48c2.19,8.75,5.43,17.25,7.37,26.12c2.76,12.59,5.4,25.14,7.14,37.97
			c1.9,14.03,2.18,27.99,2.23,42.02c0.06,17.4-2.35,34.53-4.77,51.74c-2.54,18.14-6.81,35.9-10.08,53.87
			c-2.3,12.63-6.14,24.97-8.63,37.57c-1.85,9.37-4.5,18.55-5.68,28.1c-0.61,4.93-1.58,9.93-2.53,14.86
			c-3.7,19.34-3.9,38.93-1.77,58.21c2.25,20.42,9.2,39.98,21.87,56.46c11.93,15.51,27.07,27.67,46.23,33.47
			c11.32,3.43,23.15,3.33,34.89,2.96c4.3-0.13,8.34-0.14,11.4,3.73c3.55,4.48,2.92,8.38-2.35,10.77c-4.78,2.17-9.83,3.67-15.1,4.08
			c-23.54,1.84-45.92-2.38-66.79-13.55c-18.58-9.94-33.05-24.09-44.16-42.15c-7.03-11.44-11.87-23.6-15.95-36.17
			c-0.94-2.88-2.57-4.91-4.55-6.87c-21.55-21.36-43.03-42.8-64.71-64.02c-30.18-29.54-60.56-58.87-90.77-88.37
			c-38.17-37.28-76.21-74.68-114.39-111.95c-14.56-14.21-29.33-28.22-44.03-42.28c-3.61-3.45-5.05-3.25-6.33,1.53
			c-1.44,5.37-2.85,10.93-2.98,16.44c-0.18,7.9-2.2,14.06-10.23,16.85c-2.51,0.87-4.67,2.12-6.43,4.15
			c-0.82,0.95-2.16,1.45-3.35,1.03c-1.71-0.6-0.79-2.07-0.61-3.17c1.57-9.29,3.15-18.57,4.8-27.84c0.27-1.51,1.41-3.25-0.82-3.97
			c-2.14-0.69-4.27,0.45-4.53,2.45c-0.49,3.87-2.41,7.38-2.71,11.18c-0.71,8.9-4.35,17.23-4.9,26.14c-0.03,0.47-0.37,1.08-0.76,1.33
			c-5.99,3.87-11.87,7.94-18.09,11.4c-2.12,1.18-2.39-1.27-2.09-2.89c1.27-7.03,2.45-14.08,4.03-21.04
			c0.67-2.95,1.17-5.82,0.98-8.83c-0.07-1.18,0.43-2.59-1.25-3.02c-1.43-0.37-2.48,0.67-3.08,1.6c-1.33,2.03-3.19,4.27-3.26,6.46
			c-0.17,5.5-2.33,10.69-2.48,15.97c-0.16,5.68-3.89,10.61-2.56,16.44c0.39,1.72-1.55,2.91-2.89,3.4c-5.8,2.13-10.16,6.6-15.55,9.37
			c-0.91,0.47-1.53,1.51-2.73,0.82c-1.25-0.72-0.71-1.8-0.48-2.8c2.29-10.21,2.58-20.78,5.58-30.87c0.65-2.19,0.43-4.12-2.8-4.31
			c-5.71-0.34-8.91-5.53-6.93-11.28c0.78-2.25,1.57-4.03-1.47-4.91c-12.45-3.58-24.9-7.16-37.42-10.75c0.93-1.35,1.44-3.13,4.11-3.5
			c2.05-0.29,4.28-1.73,5.75-3.3c7.05-7.54,15.16-6.1,23.36-2.94c5.27,2.03,10.9,2.56,16.27,3.63c4.37,0.87,8.44,3.47,13.17,2.85
			c1.82-0.24,4.49,0.89,4.94-1.52c0.5-2.69-2.43-3.06-4.32-3.56c-11.3-2.95-22.64-5.77-34.26-8.7c2.5-4.63,8.01-5.04,11.63-8.08
			c5.86-4.92,11.8-5.39,19.77-2.99c9.36,2.81,19.17,4.74,28.77,7.18c1.16,0.29,2.46,0.24,3.66,0.06c1.61-0.24,3.21-0.94,3.3-2.82
			c0.09-1.95-1.77-1.85-3.04-2.2c-7.55-2.06-15.05-4.38-22.7-5.95c-3.27-0.67-5.54-3.21-9.16-3.42c-2.18-0.13-0.06-3.03,0.87-3.37
			c4.96-1.81,8.85-5.64,13.71-7.37c6-2.14,11.41,2.03,17.17,2.92c6.37,0.99,12.58,2.99,18.86,4.56c1.22,0.3,2.56,0.67,3.2-0.74
			c0.31-0.68,0.28-1.88-0.14-2.47c-4.79-6.84-6.07-15.09-8.5-22.72c-3.29-10.3-7.28-20.3-10.83-30.47
			c-5.27-15.09-10.93-30.04-15.81-45.28c-3.99-12.48-8.67-24.74-12.91-37.14c-5.28-15.44-10.34-30.96-15.65-46.39
			c-6.02-17.5-12.29-34.92-18.29-52.42c-4.38-12.78-8.42-25.68-12.78-38.47c-4.15-12.17-8.59-24.25-12.76-36.41
			c-5.36-15.67-10.28-31.5-15.95-47.06c-4.8-13.15-8.87-26.55-13.54-39.75c-2.76-7.79-5.91-15.49-8.22-23.47
			c-1.03-3.56-3.81-6.23-6.55-8.73c-17-15.51-31.03-33.22-39.24-54.91c-6.44-17.02-9.09-34.67-7.25-52.95
			c1.38-13.65,4.74-26.65,10.55-39.06c2.9-6.19,6.05-12.24,10.31-17.58c2.52-3.16,6.08-5.8,10.3-4.13
			c4.24,1.67,5.34,6.65,3.39,11.84c-3.35,8.91-7.69,17.57-9.88,26.75c-2.47,10.32-3.12,20.98-1.96,31.82
			c1.96,18.36,9.6,34.24,20.65,48.36c7.28,9.31,16.1,17.37,25.95,24.36c11.83,8.4,24.59,14.93,37.78,20.48
			c10.97,4.61,22.39,8.32,34.02,11.23c11.43,2.86,22.6,6.91,34.13,9.24c17.71,3.58,35.19,8.09,52.75,12.23
			c14.58,3.44,28.87,7.93,43.04,12.78c8.68,2.97,17.33,5.99,25.66,9.88c14.59,6.81,29.18,13.49,42.95,22.05
			c7.56,4.7,15.28,9.22,22.44,14.48c10.96,8.07,21.92,16.08,31.87,25.56c9.39,8.95,19.59,17.08,27.89,27.13
			c3.46,4.19,7.29,8.01,10.9,12.04c1.9,2.11,1.99,3.95-0.7,5.56c-18.69,11.18-37.27,22.55-56.1,33.49
			c-5.71,3.32-11.32,6.74-16.81,10.4c-1.81,1.21-3.49,3.09-6.13,2.36c1.3-12.05,1.62-24.14,0.65-36.17
			c-0.43-5.38-3.23-10.26-6.31-14.83c-9.6-14.24-22.75-24.7-36.52-34.49c-18.19-12.92-38.24-22.33-58.76-30.82
			c-17.82-7.37-35.97-13.81-54.39-19.56c-11.89-3.71-23.78-7.55-35.63-11.34c-14.76-4.72-29.89-8.46-44.32-14.11
			c-12.36-4.84-24.84-9.56-36.25-16.67c-3.48-2.17-7.37-3.88-10.84-6.21c-1.02-0.68-1.98-1.8-3.25-0.95
			c-1.5,1.01-0.78,2.58-0.36,3.83c2.64,7.97,5.38,15.9,8.05,23.85c5.27,15.69,10.44,31.41,15.78,47.07
			c5.66,16.63,11.52,33.19,17.2,49.81c4.62,13.52,8.86,27.18,13.73,40.6c6.26,17.24,11.41,34.85,17.95,52
			c4.82,12.64,8.3,25.8,13.13,38.43c5.63,14.7,10.28,29.71,15.54,44.52c4.25,11.98,8.16,24.09,12.36,36.09
			c4.26,12.18,8.86,24.24,13.02,36.45c3.92,11.5,7.62,23.09,11.11,34.72c1.3,4.34,3.15,3.63,6.01,1.71
			c11.84-7.97,24.1-15.26,36.18-22.82c10.86-6.8,21.74-13.62,32.54-20.53c10.66-6.83,21.45-13.51,32.15-20.25
			c8.16-5.14,16.3-10.48,24.72-15.07c9.11-4.98,17.7-10.88,26.33-16.39c12.71-8.12,25.93-15.51,38.32-24.15
			c4.14-2.89,8.57-5.37,12.95-7.9c2.48-1.43,2.86-3.11,1.66-5.65c-8.16-17.23-13.22-35.56-19.05-53.63
			c-3.38-10.47-11.16-16.92-21.28-20.32c-4.46-1.5-8.46-3.89-12.89-5.41c-2.46-0.85-1.96-2.8,0.3-4.12
			c5.88-3.45,11.71-6.97,17.57-10.46c7.02-4.18,14.08-8.29,21.07-12.53c10.58-6.41,21.06-12.98,31.68-19.33
			c5.04-3.02,5.43-2.48,5.85,3.33c0.36,4.95-2.35,9.03-3.06,13.72c-1.25,8.2,3.65,13.9,6.1,20.61c2.88,7.87,5.69,15.77,8.7,23.59
			c4.4,11.42,9.72,22.42,15.6,33.15c1.16,2.11,2.37,2.65,4.98,1.01c22.26-14.02,44.69-27.76,67.05-41.62
			c12.69-7.87,25.36-15.78,38.02-23.69c2.56-1.6,2.98-3.28,0.15-5.16c-3.03-2.01-6.42-3.31-9.55-5.01
			C693.36,372.85,684.57,369.6,676.24,364.76z"></path>
		<path fill="#EAA719" d="M881.13,585.42c18.45,0,36.9,0,55.35,0c5.77,0,10.98,1.94,16,4.59c3.53,1.86,4.15,4.92,3.83,8.48
			c-0.31,3.49-2.73,4.34-5.67,5.14c-19.12,5.22-38.61,8.8-57.95,13.04c-3.95,0.87-5.69,2.73-6.58,6.32
			c-3.97,16-8.42,31.85-13.98,47.38c-0.36,0.99-0.79,1.95-1.18,2.93c-2.94,7.38-2.49,7.93,3.47,13.4
			c14.24,13.04,28.19,26.4,42.37,39.52c2.59,2.39,2.57,4.45,0.91,7.3c-12.11,20.76-23.94,41.69-36.76,62.03
			c-2.13,3.37-4.46,3-7.62,1.82c-17.57-6.61-35.25-12.93-52.79-19.65c-5.49-2.1-9-1.35-13.12,3.36
			c-12.96,14.79-27.28,28.31-42.17,41.15c-3.77,3.25-4,6.16-2.49,10.46c6.37,18.2,12.4,36.52,18.73,54.73
			c1.02,2.95,0.91,4.67-1.96,6.51c-20.55,13.18-41.72,25.29-63.08,37.05c-5.06,2.78-7.31,1.13-7.64-5.55
			c-0.6-12.13,0.33-24.18,2.08-36.2c4.71-32.29,13.43-63.76,19.51-95.76c2.74-14.45,6.53-28.72,7.93-43.41
			c0.29-3.05,2.13-5.13,4.1-7.15c29.97-30.71,50.97-66.82,64.23-107.46c4.73-14.49,7.97-29.44,10.39-44.5
			c0.69-4.33,2.66-5.56,6.61-5.54c19.15,0.08,38.31,0.03,57.46,0.03C881.13,585.43,881.13,585.43,881.13,585.42z"></path>
		<path fill="#EAA719" d="M254.32,698.76c-2.57,11.23-4.27,23.54-5.74,35.9c-0.45,3.8-2.36,8.79,0.39,10.9
			c2.53,1.94,6.07-2.21,8.97-4.04c15.87-10.02,31.76-19.99,47.48-30.23c3.48-2.27,5.62-1.59,8.05,1.25
			c6.85,7.99,12.79,16.69,19.93,24.47c12.96,14.14,26.72,27.37,41.91,39.09c6.47,5,6.39,5.46,2.41,12.33
			c-18.92,32.63-38.98,64.59-57.08,97.7c-1.77,3.23-3.53,6.48-5.44,9.62c-0.8,1.32-1.91,3.32-3.02,3.42
			c-4.98,0.43-7.86-4-11.91-5.88c-2.27-1.05-2.16-3.24-1.38-5.5c3.73-10.75,7.4-21.53,11.02-32.32c2.79-8.3,5.42-16.66,8.25-24.95
			c1.21-3.54-0.63-5.69-3-7.7c-13.84-11.7-26.34-24.79-38.89-37.8c-10.13-10.5-10.06-10.44-23.91-5.13
			c-15.23,5.83-30.58,11.34-45.77,17.25c-3.14,1.22-4.94,0.54-6.66-1.95c-13.79-19.91-26.6-40.43-38.73-61.39
			c-2.7-4.67,0.19-6.63,2.86-9.12c14.26-13.28,28.44-26.63,42.82-39.77c3.6-3.29,5.09-6.34,2.28-10.88
			c-0.9-1.46-2.22-3.77-0.67-5.38c1.35-1.4,3.31,0.11,4.88,0.6c8.71,2.75,17.54,5,26.47,6.84c2.35,0.48,4.16,1.58,5.34,3.83
			c2.5,4.79,4.12,10.1,8.39,13.85C254.73,694.8,254.25,696.41,254.32,698.76z"></path>
		<path fill="#EAA719" d="M563.79,280.64c-11.42,0-22.84-0.13-34.26,0.07c-3.9,0.07-6.8-1.65-9.48-3.91
			c-20.54-17.38-43.76-30.39-67.83-42.06c-4.89-2.37-9.74-4.82-14.55-7.34c-1.16-0.61-2.99-1.06-2.72-2.78
			c0.26-1.6,2.06-1.75,3.35-2.09c12.03-3.17,24.08-6.28,36.13-9.39c2.04-0.52,4.1-0.93,6.16-1.38c2.92-0.64,4.08-2.31,4.67-5.4
			c3.83-19.97,8.03-39.87,11.93-59.83c0.63-3.24,1.96-4.31,5.22-4.29c24.95,0.13,49.91,0.16,74.86,0.08
			c3.84-0.01,5.25,1.88,5.93,5.22c3.9,19.23,7.94,38.44,11.74,57.69c0.74,3.75,2.62,5.16,6.23,5.85c12.58,2.4,24.89,5.93,37.13,9.65
			c4.68,1.42,5.26,3.22,2.41,7.21c-11.62,16.27-23.38,32.43-34.87,48.79c-2.34,3.33-5,4.29-8.84,4.22
			c-11.07-0.19-22.14-0.07-33.21-0.07C563.79,280.81,563.79,280.73,563.79,280.64z"></path>
		<path fill="#EAA719" d="M845.7,459.19c-8.25,0.01-16.51-0.18-24.75,0.09c-3.92,0.13-6.09-1.26-7.58-4.85
			c-6.58-15.87-12.41-32.15-20.35-47.32c-5.83-11.15-4.08-18.73,3.78-27.84c11.43-13.24,21.39-27.74,31.9-41.75
			c1.87-2.5,4.07-4.33,7.15-4.99c13.27-2.83,25.7-8.16,38.26-13.04c3.39-1.31,5.46-0.99,7.43,2.21
			c12.82,20.73,25.15,41.75,37.11,62.99c1.78,3.16,1.21,5.43-1.48,7.78c-13.72,11.99-27.26,24.2-41.06,36.11
			c-4.33,3.74-7.6,7.06-4.11,13.24c1.86,3.3,2.76,7.17,3.97,10.83c1.66,5.01,0.7,6.47-4.47,6.53
			C862.91,459.25,854.3,459.18,845.7,459.19z"></path>
		<path fill="#EAA719" d="M290.82,432.4c-7.02-16.52-11.59-33.29-17.47-49.59c-4.69-13.02-8.97-26.18-13.4-39.29
			c-1.07-3.16-3.1-6.84,3.49-5.4c2.46,0.54,4.67-1.2,6.3-3.2c13.03-15.96,27.64-30.38,43.2-43.81c4.18-3.61,4.31-6.85,2.21-11.35
			c-1.77-3.8-2.95-7.88-4.38-11.83c-1.4-3.88-0.85-5.87,3.89-4.27c11.8,3.98,23.62,7.88,35.43,11.81
			c21.84,7.26,43.03,16.06,63.56,26.46c2.61,1.32,6.59,2.3,6.68,5.27c0.1,3.27-4.22,3.55-6.72,4.83
			c-21.5,11.08-40.86,25.13-58.78,41.35c-23.1,20.91-42.16,44.98-58.12,71.65C295.23,427.5,293.85,430.2,290.82,432.4z"></path>
		<path fill="#EAA719" d="M231.55,496.99c-10.36,0-20.72-0.11-31.08,0.05c-4.38,0.07-5.98-1.07-4.89-5.83
			c3.88-16.91,8.2-33.69,14.19-49.98c1.56-4.24,0.67-6.81-2.66-9.51c-15.25-12.4-29.56-25.85-44.07-39.09
			c-3.07-2.8-3.22-5.3-1.23-8.71c12.16-20.71,24.12-41.54,37.1-61.76c1.87-2.91,3.72-4.04,6.81-2.09c0.15,0.09,0.32,0.19,0.49,0.2
			c11.49,0.39,14.36,8.6,17.27,17.78c7.96,25.04,16.53,49.89,24.96,74.79c7.47,22.06,15.09,44.07,22.58,66.12
			c0.67,1.98,1.4,4.12,1.28,6.14c-0.56,8.96-2.72,12.37-10.73,11.94c-9.98-0.53-20.01-0.13-30.02-0.13
			C231.55,496.94,231.55,496.97,231.55,496.99z"></path>
		<path fill="#EAA719" d="M539.93,969.18c-13.19,0.22-25.11-0.2-37.03-0.79c-3.12-0.15-5.35-0.77-6.03-4.39
			c-2.92-15.66-5.94-31.31-9.06-46.93c-0.7-3.53,0.13-6.32,1.98-9.39c12.44-20.73,24.75-41.54,36.87-62.46
			c2.01-3.47,3.06-3.58,6.03-1c8.25,7.13,15.75,15.02,23.58,22.56c10.11,9.74,19.77,20,30.45,29.08c6.72,5.71,7.67,11.94,5.87,19.58
			c-3.81,16.21-6.54,32.62-9.31,49.02c-0.57,3.37-2.53,3.74-5.17,3.81C564.97,968.61,551.84,969.74,539.93,969.18z"></path>
		<path fill="#EAA719" d="M1026.07,643.51c-15.9-0.17-28.03-11.93-28.34-27.85c-0.07-3.51-1.03-6.12-3.76-8.14
			c-12.82-9.5-26.08-18.47-38.3-28.67c-8.39-7.01-17.29-8.3-27.62-8.19c-37.77,0.41-75.55-0.25-113.32,0.34
			c-22.83,0.36-45.65,0.4-68.48,0.48c-4.08,0.01-6.97,1.04-8.98,4.86c-1.97,3.73-4.83,8.42-9.14,7.47
			c-3.66-0.81-4.39-6.25-5.89-9.95c-0.81-2-0.18-3.62,0.82-5.43c4.12-7.47,2.46-13.11-5.41-15.88c-7.89-2.77-8.65-10.09-11.37-16.09
			c-1.26-2.77,1.88-2.73,3.66-2.81c10.37-0.5,19.16,3.03,25.1,11.62c3.35,4.84,6.97,6.65,12.92,6.64
			c38.11-0.08,76.22,0.6,114.33,0.35c17.9-0.12,35.82-0.72,53.72-0.4c9.64,0.17,19.28,0.85,28.9-0.18c4.72-0.5,8.42,1.27,12.07,4.06
			c14.63,11.17,29.71,21.76,43.73,33.72c3.49,2.98,6.02,3.18,10.06,0.56c12.53-8.12,32.33-3.11,39.94,9.59
			c8.55,14.28,4.63,31.79-8.99,40.12C1037.32,642.39,1032.43,643.58,1026.07,643.51z M1015.43,614.1
			c-0.03,7.02,4.46,12.05,10.86,12.17c6.35,0.11,11.38-4.76,11.44-11.11c0.07-6.55-5.4-11.92-12.07-11.86
			C1019.62,603.36,1015.46,607.75,1015.43,614.1z"></path>
		<path fill="#EAA719" d="M1060.08,440.92c-0.11,22.97-18.75,36.25-37.13,29.88c-4.31-1.49-6.9-0.89-9.36,2.72
			c-4.47,6.55-10.54,11.73-15.58,17.8c-1.6,1.92-3.86,2.17-6.23,2.17c-62.35-0.02-124.7-0.05-187.06,0.06
			c-7.33,0.01-11.89-2.02-14.92-9.71c-7.52-19.06-16.22-37.67-24.61-56.39c-1.73-3.87-1.66-6.87,1.8-9.7
			c2.02-1.65,3.92-3.6,5.42-5.73c2.83-4.03,4.69-3.29,6.61,0.71c6.9,14.39,13.06,29.1,19.22,43.82c1.83,4.37,3.63,8.74,5.36,13.14
			c1.56,3.97,4.75,4.68,8.53,4.68c21.43,0.01,42.86,0.14,64.28,0.16c34.78,0.05,69.55-0.05,104.33,0.17
			c5.3,0.03,9.21-1.36,11.89-5.92c0.18-0.3,0.4-0.59,0.67-0.81c7.81-6.4,11.13-13.19,8.19-24.33c-2.64-10.01,3.68-19.1,12.62-24.7
			c9.47-5.93,19.65-6.01,29.61-0.97C1054.59,423.48,1059.83,432.62,1060.08,440.92z M1030.65,430.89
			c-7.16-0.03-12.39,5.09-12.32,12.06c0.06,6.58,5.77,12.05,12.58,12.08c6.64,0.02,12.45-5.36,12.43-11.52
			C1043.31,436.54,1037.65,430.92,1030.65,430.89z"></path>
		<path fill="#EAA719" d="M363.27,678.96c2.28,0.2,3.46,1.8,4.83,3.14c4.27,4.18,8.24,8.73,12.88,12.45
			c9.43,7.59,14.5,17.69,18.62,28.73c6.32,16.91,13.1,33.65,19.92,50.37c1.72,4.21,1.29,7.71-1.06,11.41
			c-22.12,34.8-41.42,71.26-62.8,106.49c-8.01,13.19-15.69,26.57-23.59,39.83c-2.41,4.05-3.05,7.44-0.05,11.97
			c6.6,9.97,4.7,25.94-3.22,34.31c-8.79,9.28-23.06,11.78-34.42,6.03c-11.55-5.84-18.66-18.99-15.68-31.14
			c3.1-12.63,12.27-23.96,28.47-24.55c5.82-0.21,10.03-4.36,10.28-10.3c0.03-0.68-0.12-1.26,0.39-1.74
			c9.96-9.55,14.56-22.49,21.41-33.99c17.41-29.25,34.55-58.66,51.79-88.01c1.06-1.81,1.77-3.91,3.14-5.44
			c6.92-7.7,5.39-15.49,1.78-24.26c-10.67-25.94-20.72-52.13-30.92-78.26C364.15,683.79,363,681.54,363.27,678.96z M307.11,945.91
			c-7.01-0.01-11.52,4.17-11.53,10.7c-0.02,6.98,5.31,13,11.66,13.17c6.01,0.16,12.13-6.38,11.98-12.81
			C319.08,950.65,313.91,945.92,307.11,945.91z"></path>
		<path fill="#EAA719" d="M78.44,643.89c0.11,14.47-10.24,26.18-24.69,27.93c-15.56,1.89-29.22-7.45-32.41-22.16
			c-3.06-14.1,5-28.72,18.31-33.46c7.69-2.74,15.22-2.32,22.46,1.19c3.81,1.84,6.76,1.65,10.06-1.13
			c12.63-10.63,27.58-18.04,40.12-28.81c1.63-1.4,3.53-1.35,5.47-1.34c59.72,0.09,119.44,0.17,179.16,0.27
			c4.8,0.01,12.8,9.77,11.96,14.51c-0.27,1.5-1.21,2.13-2.65,1.73c-1.17-0.33-2.35-0.76-3.41-1.37c-7.12-4.07-13.87-4.34-20.27,1.53
			c-3.4,3.12-7.72,2.87-11.96,2.87c-47.95-0.05-95.9-0.04-143.86-0.17c-4.06-0.01-7.47,0.91-10.8,3.22
			c-10.94,7.6-22.01,15.02-33.03,22.5C78.36,634.29,78.36,634.28,78.44,643.89z M49.67,655.45c6.25,0.08,11.99-5.39,12.08-11.5
			c0.09-6.23-5.7-12.41-11.82-12.63c-6.31-0.23-12.3,5.55-12.35,11.91C37.52,649.58,43.26,655.38,49.67,655.45z"></path>
		<path fill="#EAA719" d="M209.92,530.8c-22.49,0-44.99-0.27-67.47,0.17c-6.71,0.13-11.75-2.12-16.7-6.04
			c-13.32-10.57-26.78-20.96-40.13-31.5c-3.39-2.67-6.21-3.17-10.26-0.55c-10.43,6.74-21.09,5.4-31.16-1.1
			c-9.34-6.02-12.65-15.4-12.07-25.89c0.7-12.43,7.59-21.4,19.3-25.05c19.14-5.96,40.09,6.95,38.63,26.87
			c-0.34,4.58,1.69,7.7,5.07,10.32c13.86,10.74,27.75,21.45,41.56,32.26c4.1,3.21,8.8,2.12,13.21,1.91
			c22.3-1.05,44.61-0.4,66.91-0.58c19.85-0.16,39.71,0.02,59.57-0.14c4.22-0.03,7.16,0.71,7.84,5.56c0.33,2.39,1.47,4.66,2.24,6.99
			c2,6.08,1.75,6.55-4.84,6.56c-23.9,0.06-47.79,0.02-71.69,0.02C209.92,530.69,209.92,530.74,209.92,530.8z M61.13,480.46
			c6.88,0.07,12.01-4.63,12.11-11.07c0.11-6.94-5.54-13.04-12.26-13.24c-6.12-0.18-11.83,5.62-11.96,12.13
			C48.89,475.37,53.89,480.4,61.13,480.46z"></path>
		<path fill="#EAA719" d="M634.19,280.95c-12.53-0.14-13.04-0.48-6.47-10.38c9.69-14.6,20.16-28.68,30.34-42.96
			c23.42-32.86,46.85-65.7,70.28-98.55c1.32-1.85,2.44-3.9,4-5.53c4.84-5.04,5.81-9.99,2.86-16.88
			c-4.68-10.95,2.72-27.01,13.85-32.68c15.84-8.07,34.12-1.78,40.81,14.58c3.95,9.64,3.15,19.47-3.13,28.02
			c-6.47,8.8-15.41,13.12-26.53,11.56c-5.33-0.75-8.97,0.3-12.35,5.24c-23.77,34.73-49.17,68.31-72.83,103.12
			c-9.36,13.78-19.35,27.13-28.62,40.97C642.81,282.84,637.94,280.15,634.19,280.95z M763.39,111.01
			c6.29,1.13,11.62-6.1,11.52-11.04c-0.15-7.29-4.75-12.29-11.44-12.33c-6.96-0.04-11.78,4.95-11.66,12.06
			C751.93,106.8,756.28,111.05,763.39,111.01z"></path>
		<path fill="#EAA719" d="M877.58,144.67c-0.08,15.85-11.83,28.12-27.73,28.37c-4.89,0.08-7.69,2.06-10.15,5.96
			c-23.32,36.92-46.75,73.77-70.16,110.63c-5.54,8.72-11.03,17.48-16.73,26.1c-2.73,4.13-3.69,8.22-1.56,12.86
			c1.92,4.2,0.69,6.32-4.03,7.34c-11.45,2.47-15.97-0.12-19.27-11.57c-0.75-2.62,0.56-4.39,1.77-6.3
			c15.77-24.88,31.61-49.71,47.3-74.64c15.97-25.38,31.76-50.87,47.75-76.23c1.62-2.58,1.81-4.45,0.13-7.12
			c-6.56-10.47-6.11-24.51,0.77-33.71c7.36-9.83,18.71-13.96,31.42-10.22C868.64,119.55,877.88,129.4,877.58,144.67z M836.14,143.88
			c-0.03,6.04,6.42,12.31,12.78,12.41c6.43,0.1,11.94-5.49,12-12.17c0.06-6.86-5.78-13.33-12.18-13.51
			C842.73,130.46,836.18,137.35,836.14,143.88z"></path>
		<path fill="#EAA719" d="M381.46,1000.54c0.08-5.33,3.84-14.23,13.22-19.45c4.56-2.54,9.8-4.87,15.34-4.46
			c4.09,0.31,6.06-1.77,7.77-4.88c8.94-16.3,17.84-32.63,26.91-48.86c12.32-22.05,24.81-44.01,37.16-66.04
			c2.97-5.3,5.82-10.69,8.51-16.14c1.58-3.21,3.27-3.62,6.09-1.38c3.68,2.94,9.6,4.92,10.83,8.56c1.32,3.91-3.93,8.06-6.2,12.16
			c-12.07,21.78-24.31,43.45-36.45,65.19c-10.09,18.07-20.03,36.23-30.22,54.25c-2.34,4.13-3.24,7.14,0.06,11.73
			c6.38,8.88,5.25,23.62-1.24,31.69c-7.91,9.83-20.98,14.19-31.48,10.49C388.7,1028.81,381.52,1019.03,381.46,1000.54z
			 M421.01,1005.68c0.03-6.52-4.63-11.31-11.05-11.36c-6.06-0.05-11.44,5.36-11.31,11.36c0.13,5.53,5.65,10.85,11.41,10.98
			C415.74,1016.79,420.99,1011.53,421.01,1005.68z"></path>
		<path fill="#EAA719" d="M871.05,531.84c-31.44,0-62.88-0.09-94.32,0.09c-4.72,0.03-7.42-1.56-9.35-5.82
			c-9.82-21.73-19.72-43.42-29.83-65.02c-2.15-4.59-0.42-7.24,2.51-10.56c8.22-9.32,8.22-9.53,13.5,1.71
			c8.66,18.41,17.2,36.88,25.53,55.45c1.91,4.27,4.68,6.52,9.15,6.48c27.56-0.25,55.12,0.28,82.69-0.39
			c28.96-0.7,57.96-0.21,86.94-0.24c1.41,0,2.83-0.15,4.21,0.03c3.35,0.44,8.03-1.82,9.76,1.68c1.94,3.91,2.04,8.82,1.35,13.39
			c-0.45,2.96-2.72,3.18-5.18,3.18c-12.12-0.03-24.24,0.02-36.36,0.03c-20.2,0.01-40.4,0-60.6,0
			C871.05,531.85,871.05,531.84,871.05,531.84z"></path>
		<path fill="#EAA719" d="M553.62,631.49c14.69,0.06,25.67,9.51,29.24,24.66c2.73,11.61-3.59,25.24-14.96,30.84
			c-4.46,2.2-5.62,5.03-5.93,9.73c-1.27,19.07-2.87,38.12-3.12,57.25c-0.05,3.6-1.39,5.97-5.56,6.97
			c-13.95,3.36-27.77,7.22-41.65,10.88c-1.99,0.52-3.7,0.04-5.45-1.13c-4.16-2.76-7.25-6.61-10.79-10
			c-2.71-2.59-1.91-4.18,1.37-5.07c12.34-3.37,24.63-6.96,37.07-9.94c4.76-1.14,6.81-3.26,7.1-8.1c0.86-14.34,1.8-28.69,3.18-42.99
			c0.48-4.96-1.92-7.16-5.5-9.57c-11.34-7.62-15.22-18.6-12.34-31.61c2.43-11.03,10.07-17.67,20.65-21.15
			C549.34,631.47,551.77,631.63,553.62,631.49z M565.41,661.67c-0.01-7.41-5.01-12.92-11.72-12.89
			c-5.71,0.03-11.43,6.24-11.43,12.42c0,5.88,6.07,11.69,12.12,11.59C560.45,672.71,565.42,667.69,565.41,661.67z"></path>
		<path fill="#EAA719" d="M600.61,297.2c16.15,0,32.31-0.09,48.46,0.06c4.15,0.04,6.64-1.51,8.96-5.01
			c18.5-27.9,36.95-55.84,56.51-83.02c2.55-3.55,4.58-3.72,8.18-1.56c9.92,5.94,10.04,5.8,3.97,15.21
			c-17.57,27.26-37.09,53.22-54.34,80.65c-6.38,10.15-13.41,12.75-24.61,12.5c-25.95-0.59-51.94,0.17-77.91,0.57
			c-4.39,0.07-7.78-1.15-10.71-4.4c-3.41-3.78-7.11-7.29-10.62-10.97c-0.79-0.83-2.29-1.51-1.73-2.94c0.57-1.44,2.14-0.95,3.27-0.96
			c11.76-0.1,23.53-0.13,35.29-0.17c5.09-0.02,10.18,0,15.28,0C600.61,297.17,600.61,297.19,600.61,297.2z"></path>
		<path fill="#EAA719" d="M656.99,811.7c-2.11,14.45-4.39,29.17-6.35,43.93c-1.17,8.85-1.99,17.76-2.65,26.66
			c-0.21,2.88-1.34,4.45-3.8,5.64c-9.97,4.83-12.74,4.37-20.82-3.38c-17.35-16.65-34.76-33.23-52.08-49.91
			c-1.56-1.51-4.36-2.92-3.62-5.37c0.76-2.53,4.02-2.06,6-2.15c17.84-0.82,34.96-5.3,51.98-10.15c7.57-2.15,14.87-5.23,22.3-7.87
			c1.48-0.53,2.97-1.07,4.49-1.44C656.83,806.56,657.19,806.89,656.99,811.7z"></path>
		<path fill="#EAA719" d="M605.89,693.76c17.88-0.06,30.79,11.81,32.02,26.71c1.09,13.11-8.99,29.74-23.79,30.5
			c-7,0.36-9.81,4.14-11.82,10.24c-3.45,10.47-9.01,20.14-12.22,30.75c-0.75,2.49-3,3.26-5.27,3.87
			c-11.86,3.16-23.77,6.14-35.56,9.56c-6.15,1.79-10.05-1.47-13.93-5.06c-2.77-2.56-7.24-5.39-6.77-8.6
			c0.46-3.09,5.9-2.77,9.23-3.67c11-2.97,21.99-5.97,33.06-8.64c3.7-0.89,5.74-2.9,7.01-6.25c2.86-7.54,5.64-15.12,8.8-22.53
			c1.69-3.97,1.37-7.03-1.19-10.63c-7.36-10.35-7.03-21.34-1.25-32.26C589.45,697.89,598.28,694.05,605.89,693.76z M621.11,722.51
			c0.01-6.68-5.25-11.72-12.13-11.62c-6.24,0.09-11.58,5.43-11.73,11.75c-0.14,6.02,6.07,12.34,12.01,12.23
			C615.43,734.75,621.1,728.84,621.11,722.51z"></path>
		<path fill="#EAA719" d="M451.86,767.83c5.14,0.41,8.24,3.87,11.37,7.18c7.67,8.11,7.67,8.21-2.77,11.36
			c-2.54,0.77-4.43,2.07-5.69,4.3c-12.64,22.47-25.25,44.96-37.9,67.43c-2.75,4.89-5.53,9.77-8.42,14.57
			c-1.64,2.72-3.48,5.27-3.3,8.69c0.09,1.64-0.82,3.03-1.73,4.33c-11.48,16.4-24.8,31.34-37.27,46.95c-1.28,1.61-2.84,1.9-4.62,0.67
			c-1.44-1-2.86-2.07-4.41-2.87c-4.59-2.37-3.89-5.56-1.68-9.16c5.61-9.11,11.18-18.24,16.76-27.37
			c22.33-36.5,44.67-73,65.38-110.45c1.78-3.22,3.51-6.49,5.04-9.84C444.49,769.55,447.98,768.37,451.86,767.83z"></path>
		<path fill="#EAA719" d="M453.2,456.86c-12.84,0.02-23.43-7.37-27.35-19.09c-4.44-13.27-0.84-25.92,9.99-33.72
			c3.07-2.21,4.43-4.57,4.08-8.3c-0.96-10.12-1.59-20.27-2.71-30.38c-0.27-2.44,0.2-4.02,1.88-5.56c6.99-6.38,14.29-12.46,20.15-20
			c1.94-2.5,3.56-2.41,5.9,0.03c8.62,9.01,9.58,12.63,0.76,21.07c-8.43,8.07-9.59,16.87-7.33,27.21c0.26,1.19,0.41,2.46,0.3,3.67
			c-0.45,4.95,1.83,7.86,6.37,9.59c9.37,3.56,14.44,11.05,16.61,20.31C486.24,440.49,472.74,456.83,453.2,456.86z M453.26,416.44
			c-6.74-0.02-11.32,4.33-11.47,10.9c-0.15,6.4,5.01,12.17,11.06,12.35c6.74,0.21,12.16-5.3,12.15-12.34
			C464.98,421.45,459.61,416.46,453.26,416.44z"></path>
		<path fill="#EAA719" d="M208.3,549.11c26.52,0,53.03,0,79.55,0c7.69,0,7.93,0.18,9.84,7.89c2.44,9.84,2.43,9.72-7.95,10.04
			c-53.36,1.63-106.74,0.44-160.11,0.67c-2.99,0.01-7.11,1.42-8.64-2.07c-2-4.52-1.51-9.7-0.34-14.44c0.68-2.74,3.83-1.93,6-1.93
			c21.77-0.05,43.55-0.03,65.32-0.02c5.44,0,10.89,0,16.33,0C208.3,549.2,208.3,549.15,208.3,549.11z"></path>
		<path fill="#EAA719" d="M696.44,346.19c-1.63,0.17-2.64-1.17-3.41-2.88c-2.3-5.12-4.77-10.12-8.27-14.58
			c-1.81-2.31-1.66-4.63-0.01-7.26c17.61-28.08,36.02-55.63,54.38-83.21c2.23-3.35,4.48-6.7,6.67-10.08
			c1.71-2.65,3.85-3.45,6.69-1.78c0.76,0.44,1.56,0.8,2.32,1.25c8.93,5.28,8.86,5.45,3.38,13.98
			c-16.4,25.52-32.61,51.16-49.08,76.63c-3.47,5.37-3.96,10.28-0.22,15.51c0.3,0.43,0.57,0.89,0.8,1.36c3.68,7.57,3,8.79-5.46,9.93
			C701.8,345.37,699.38,345.76,696.44,346.19z"></path>
		<path fill="#EAA719" d="M335.61,511.52c12.42,3.8,19.09-5.25,26.72-12.03c7.86-6.98,15.6-14.09,23.34-21.21
			c1.87-1.72,3.73-2.94,6.47-2.88c10,0.2,20,0.25,30.01,0.25c4.19,0,6.27,1.33,5.29,6.01c-0.72,3.41-1.18,6.98-1.02,10.45
			c0.25,5.41-2.5,6.07-6.89,5.5c-5.71-0.74-11.5-0.94-17.19-1.76c-6.19-0.89-10.7,1.66-15.01,5.73
			c-9.17,8.67-18.62,17.04-27.83,25.67c-2.47,2.31-5.01,3.51-8.44,3.39c-5.96-0.2-11.95-0.36-17.89,0.03
			c-5.59,0.37-8.96-1.8-10.88-6.94c-4.44-11.9-5.94-11.77,7.54-12.2C331.75,511.47,333.68,511.52,335.61,511.52z"></path>
		<path fill="#EAA719" d="M483.16,800.31c5.32-0.04,15.88,8.58,16.55,12.8c0.43,2.71-1.44,4.12-3.67,4.15
			c-11.81,0.14-17.16,7.79-22.15,17.16c-8.97,16.85-18.91,33.18-28.35,49.78c-1.84,3.24-3.74,4.43-6.97,1.76
			c-1.34-1.11-2.91-1.97-4.47-2.75c-6.48-3.21-6.56-3.21-2.94-9.72c12-21.61,24.22-43.1,36-64.82
			C471.06,801.47,478.04,802.07,483.16,800.31z"></path>
		<path fill="#EAA719" d="M625.45,335.51c12.8,0,25.6-0.02,38.4,0.01c5.34,0.02,12.89,7.39,12.76,12.49
			c-0.05,2.16-1.85,2.88-3.61,3.19c-6.53,1.16-12.87,3.39-19.61,3.37c-20.34-0.06-40.68-0.17-61.02-0.09
			c-4.06,0.02-6.17-1.03-6.24-5.52c-0.05-2.95-1.55-5.67-3.26-8.2c-2.74-4.03-2.23-5.13,2.61-5.18c13.33-0.11,26.65-0.04,39.98-0.04
			C625.45,335.53,625.45,335.52,625.45,335.51z"></path>
		<path fill="#EAA719" d="M250.3,620.24c-1.95,5-5.97,6.62-9.13,8.71c-11.24,7.42-22.83,14.3-34.27,21.42
			c-3.02,1.88-5.17,1.75-6.2-2.15c-2.05-7.78-4.24-15.53-6.26-23.32c-0.86-3.32,0.41-4.74,4.05-4.71
			C215.5,620.32,232.51,620.24,250.3,620.24z"></path>
		<path fill="#EAA719" d="M735.86,177.96c1.17,0.54,2.15,0.89,3.04,1.41c13.18,7.59,26.31,15.28,39.56,22.75
			c4.46,2.52,4.57,5.08,1.99,9.26c-6.51,10.54-6.35,10.68-16.69,3.68c-11.29-7.65-22.51-15.41-33.84-23c-2.69-1.8-3.7-3.4-1.35-6.24
			C730.84,183.06,732.17,179.43,735.86,177.96z"></path>
		<path fill="#EAA719" d="M365.91,178.23c2.26-0.05,3.38,1.46,4.51,2.74c7.88,8.94,15.7,17.94,23.53,26.92
			c0.81,0.93,1.87,1.89,1.22,3.21c-0.6,1.22-1.8,0.65-2.79,0.39c-17.61-4.67-35.23-9.33-52.83-14.02c-1.11-0.3-2.69-0.12-2.89-1.74
			c-0.15-1.23,1.06-1.77,1.92-2.27c8.66-4.99,17.34-9.94,26.03-14.87C365.06,178.34,365.62,178.31,365.91,178.23z"></path>
		<path fill="#EAA719" d="M772.39,330.79c-4.62-0.14-8.63-6.72-6.34-10.83c3.26-5.86,8.02-10.61,12.35-15.66
			c1.28-1.5,2.49-1.53,3.99-0.14c5.79,5.39,11.48,10.86,16.68,16.83c1.66,1.91,1.56,3.4-0.96,4.44
			C796.25,326.2,774.26,330.85,772.39,330.79z"></path>
		<path fill="#EAA719" d="M338.78,549.61c3.3-0.48,4.98,1.63,5.8,4.59c2.95,10.62,5.74,21.28,9.52,31.65
			c0.53,1.46,0.58,3.09,0.86,4.64c0.52,2.91-1.52,4.28-3.62,5.03c-2.27,0.81-3.52-0.97-4.21-2.93
			c-3.92-11.05-7.82-22.11-11.72-33.17c-0.41-1.15-0.67-2.36-1.08-3.5C332.45,550.79,333.26,549.56,338.78,549.61z"></path>
		<path fill="#FDFDFD" d="M1015.43,614.1c0.03-6.35,4.19-10.74,10.24-10.8c6.67-0.06,12.13,5.3,12.07,11.86
			c-0.06,6.34-5.09,11.22-11.44,11.11C1019.89,626.15,1015.4,621.12,1015.43,614.1z"></path>
		<path fill="#FDFDFD" d="M1030.65,430.89c7.01,0.03,12.67,5.66,12.69,12.62c0.02,6.16-5.79,11.54-12.43,11.52
			c-6.81-0.02-12.52-5.5-12.58-12.08C1018.26,435.97,1023.49,430.86,1030.65,430.89z"></path>
		<path fill="#FDFDFD" d="M307.11,945.91c6.8,0.01,11.97,4.73,12.11,11.06c0.14,6.43-5.98,12.97-11.98,12.81
			c-6.35-0.17-11.68-6.19-11.66-13.17C295.59,950.09,300.1,945.9,307.11,945.91z"></path>
		<path fill="#FDFDFD" d="M49.67,655.45c-6.41-0.08-12.14-5.87-12.1-12.22c0.05-6.36,6.04-12.14,12.35-11.91
			c6.12,0.22,11.91,6.4,11.82,12.63C61.66,650.07,55.92,655.53,49.67,655.45z"></path>
		<path fill="#FDFDFD" d="M61.13,480.46c-7.24-0.07-12.24-5.1-12.1-12.18c0.13-6.51,5.84-12.31,11.96-12.13
			c6.72,0.2,12.37,6.3,12.26,13.24C73.14,475.83,68,480.53,61.13,480.46z"></path>
		<path fill="#FDFDFD" d="M763.39,111.01c-7.11,0.04-11.46-4.21-11.58-11.31c-0.12-7.11,4.7-12.1,11.66-12.06
			c6.69,0.04,11.29,5.04,11.44,12.33C775.01,104.91,769.68,112.14,763.39,111.01z"></path>
		<path fill="#FDFDFD" d="M836.14,143.88c0.04-6.53,6.59-13.43,12.6-13.26c6.4,0.18,12.23,6.65,12.18,13.51
			c-0.06,6.68-5.57,12.27-12,12.17C842.57,156.2,836.11,149.92,836.14,143.88z"></path>
		<path fill="#FDFDFD" d="M421.01,1005.68c-0.02,5.85-5.27,11.11-10.95,10.98c-5.76-0.13-11.28-5.45-11.41-10.98
			c-0.14-6,5.24-11.41,11.31-11.36C416.38,994.37,421.04,999.15,421.01,1005.68z"></path>
		<path fill="#FDFDFD" d="M565.41,661.67c0,6.02-4.96,11.04-11.03,11.13c-6.05,0.09-12.12-5.72-12.12-11.59
			c0-6.18,5.72-12.4,11.43-12.42C560.4,648.76,565.41,654.26,565.41,661.67z"></path>
		<path fill="#FDFDFD" d="M621.11,722.51c-0.01,6.32-5.68,12.24-11.84,12.36c-5.95,0.11-12.15-6.2-12.01-12.23
			c0.15-6.31,5.48-11.66,11.73-11.75C615.86,710.79,621.12,715.84,621.11,722.51z"></path>
		<path fill="#FDFDFD" d="M453.26,416.44c6.36,0.02,11.72,5.01,11.73,10.91c0.01,7.05-5.41,12.56-12.15,12.34
			c-6.05-0.19-11.21-5.95-11.06-12.35C441.94,420.77,446.52,416.42,453.26,416.44z"></path>
	</g>
</g>
</svg></svg></g></g><defs><clipPath id="SvgjsClipPath1038"><rect width="1000" height="1000" x="0" y="0" rx="350" ry="350"></rect></clipPath></defs></svg>