<?xml version="1.0" encoding="utf-8"?>
<!-- Generator: Adobe Illustrator 26.1.0, SVG Export Plug-In . SVG Version: 6.00 Build 0)  -->
<svg version="1.1" id="Layer_1" xmlns="http://www.w3.org/2000/svg" xmlns:xlink="http://www.w3.org/1999/xlink" x="0px" y="0px"
	 viewBox="0 0 1080 1080" style="enable-background:new 0 0 1080 1080;" xml:space="preserve">
<style type="text/css">
	.st0{display:none;fill:#FEFEFE;}
	.st1{fill:#003262;}
	.st2{fill:#FFBF00;}
	.st3{fill:#FEFEFE;}
	.st4{fill:#FAC325;}
</style>
<g>
	<g>
		<path class="st0" d="M0.1,0.1c359.2,0,718.3,0,1077.5-0.1c2,0,2.4,0.4,2.4,2.4c-0.1,358.4-0.1,716.8,0,1075.2c0,2-0.4,2.4-2.4,2.4
			c-358.4-0.1-716.8-0.1-1075.2,0c-2,0-2.4-0.4-2.4-2.4C0.1,718.4,0.1,359.2,0.1,0.1z M410.6,870.3c-2-1.3-4-2.8-6.2-4
			c-1.3-0.7-2.5-3.3-4-1.2c-1.2,1.7,1.3,2.5,2.5,3.3c4.1,2.8,9,4.7,12.4,8.2c3.4,3.5,5.6,8.2,8.7,12.2c0.5,0.7,1,1.5,1.6,2.1
			c1.2,1.1,1.2,2.1,0.4,3.5c-1,1.7-1.7,3.5-2.5,5.2c-0.6,1.3-0.1,2.4,1,2.9c1.4,0.6,1.2-1,1.5-1.6c0.9-1.7,1.4-3.7,2.8-5.3
			c1.7,2.1,3.2,4,4.7,6c2.8,3.6,5.8,7,8.9,10.4c0.6,0.6,1.1,1.6,2.1,0.8c1.2-0.9,0.2-1.7-0.3-2.4c-0.4-0.6-0.9-1.1-1.4-1.6
			c-17.6-20.6-32.8-42.7-44.6-67.1c-0.2-0.5-0.4-1-0.7-1.4c-0.4-0.6-1.1-0.6-1.6-0.2c-0.5,0.3-0.7,0.8-0.5,1.3
			c0.2,0.7,0.5,1.3,0.9,1.9c4.5,9.2,9.2,18.3,14.9,26.9C411,870,410.8,870.1,410.6,870.3z M607.7,924.2c0.8-0.2,1.7-0.3,2.5-0.5
			c35.2-9.9,70.3-19.8,105.5-29.6c33-9.2,65.9-18.4,98.9-27.7c21.7-6.1,43.4-12.2,65.2-18.2c2.4-0.7,3.5-1.8,3.9-4.1
			c0.8-4.2,1.9-8.4,2.8-12.6c10-46.7,20.1-93.4,30.5-140c2.8-12.5,2.6-24.8-2.9-36.6c-3.2-6.8-6.6-13.5-12-19.3
			c5.3-1.3,10.3-2.6,15.4-3.8c19.9-4.9,39.7-9.8,59.6-14.7c2.1-0.5,3-1.3,3-3.7c-0.1-8.1,0-16.2,0.1-24.2c0-2.3-0.6-3.8-2.8-5
			c-23.2-12.8-46.4-25.7-69.6-38.5c-35.3-19.5-70.7-39-106.1-58.5c-23.4-12.9-46.8-25.6-70.3-38.4c-1.7-0.9-2-1.6-1-3.4
			c3.8-6.7,6.4-14.1,9-21.3c8-21.6,8.7-43.4,0.2-65.1c-0.6-1.6-0.8-3.2-0.7-4.9c0.4-6.6-0.6-13-3.6-18.9
			c-6.7-13.5-18.3-19.6-32.8-21c-2-0.2-3.4-0.8-4.7-2.3c-5.7-6.9-13.2-10.1-22-10.8c-9.5-0.8-18.5,1.7-27.5,4c-2.5,0.7-5,0.7-7.5,0
			c-3.8-1.1-7.6-2.3-11.4-3.1c-10.6-2.1-20.5-0.4-29,6.7c-4.8,4-7.8,9.2-9.2,15.3c-0.2,0.6,0.2,1.9-1.2,1.3c-4.3-1.6-8,0.1-11.4,2.5
			c-13.1,9.1-18.3,21.9-16.2,37.5c1.7,12.6,8.7,22,19.6,28.5c1,0.6,1.9,1,1.9,2.5c0.3,9.8,1.4,19.6,2.6,29.4c0.2,1.3,0,1.8-1.5,2.1
			c-7.7,1.3-15.3,2.8-22.9,4.5c-1,0.2-2.7,1-2.7-1.7c0-1.4-0.2-3-0.4-4.5c-2.8-18.3-5-36.7-7.7-55c-4.3-28.9-7.6-57.8-11.8-86.7
			c-2.9-20.4-5.6-40.9-8.5-61.3c-0.5-3.6-1.8-6.9-5.1-8.8c-1.6-0.9-3.4-1.5-5.1-2.2c-5.6-2.6-11-3.2-17.2-1.5
			c-30.4,8.2-60.9,16.1-91.4,24.1c-41.8,10.9-83.6,21.8-125.4,32.7c-31.5,8.2-63,16.6-94.5,24.8c-9.9,2.6-14.8,9.6-13.5,19.7
			c4.1,31,8.1,62,12.1,93c4.3,32.6,8.6,65.3,12.9,98c0.5,3.9,0.5,3.9-3.2,4.7c-1.7,0.4-3.4,0.7-5.1,1.1
			c-27.9,5.8-55.7,11.6-83.5,17.5c-0.8,0.2-2.2,0-1.9,1.5c0.3,1.8,1.6,1,2.5,0.8c3-0.5,6-1.1,9.1-1.8c26.9-5.7,53.8-11.4,80.7-17.1
			c1.9-0.4,2.7-0.2,2.9,2c1.1,10.3,2.4,20.6,3.7,30.9c0.5,4.1,2.3,7.6,6,9.3c6.6,3.1,13.4,5.4,21.1,3.2
			c22.1-6.1,44.2-11.9,66.4-17.8c3-0.8,3-0.8,2.5,2.1c-0.9,5.1,1.8,12.5,5.5,14.8c12.1,7.5,24.3,14.8,36.4,22.3
			c3.4,2.1,6.9,2.4,10.6,1.4c15.9-4.5,31.8-9,47.6-13.4c11.9-3.4,23.8-6.8,35.7-10.1c4.5-1.3,6-3.3,5.9-8c0-3.3-2.3-4.5-4.7-5.7
			c-11.8-5.5-23.8-10.8-35.4-16.8c-1.6-0.8-3.4-1.6-4.6-3c-2.5-2.6-0.9-5.5-0.7-8.3c0.1-1.7,1-2.4,2.5-2.8c9.5-2.4,19-4.9,28.6-7.3
			c0.8-0.2,1.5-0.2,2.3,0.1c4,1.9,8.4,3.1,12.5,4.5c8.7,3,15.2,8.5,18.9,17.1c0.8,1.9,1.8,3.8,2.6,5.7c3.7,8,10.2,12.2,18.6,13.9
			c4.7,0.9,9.5,0.7,14.2,0.7c1.8,0,3.7,0,5.4,0.8c0.4,0.2,0.6,0.5,1,0.8c-0.3,0.3-0.6,0.7-1,0.8c-3.1,0.9-6.2,1.8-9.3,2.6
			c-6.8,1.9-13.6,3.6-20.4,5.6c-12.9,3.7-25.7,7.7-38.6,11.4c-31.4,9.1-62.8,18.1-94.2,27.1c-8.1,2.3-16.1,4.8-24.2,7.1
			c-8.2,2.3-16.4,4.6-24.6,6.8c-2.8,0.8-4.2,2.4-4.3,5.2c-0.1,2.1,0,4.2-0.2,6.3c-0.1,1.6,0.5,2.6,1.9,3.4
			c19.5,12,38.7,24.2,57.9,36.7c3.1,2,6.1,3.9,10.4,2.5c8.6-2.7,17.4-5,26.1-7.4c6.4-1.8,12.9-3.5,19.2-5.5c1.8-0.6,2.4,0.5,3.2,1.5
			c0.9,1,0.4,1.8-0.4,2.6c-1.3,1.3-1.8,2.9-2.1,4.7c-0.8,4.3-1.3,8.6-1.6,13c-1.1,14.2,0,28.3,2,42.3c0.2,1.7,0,2.3-1.8,2.6
			c-2.8,0.5-5.6,1.4-8.4,2.1c-40.3,10-80.6,20-120.9,30.1c-28.1,7-56.2,14-84.3,21c-0.9,0.2-1.7,0.4-2.5,0.8c-0.6,0.2-1,0.8-0.7,1.5
			c0.2,0.5,0.7,0.8,1.3,0.6c0.5-0.1,1-0.2,1.5-0.3c41.1-10.2,82.1-20.4,123.2-30.6c30.3-7.5,60.6-15.1,90.9-22.7
			c1.7-0.4,2.1,0,2.2,1.6c0.4,6.7,1.8,13.2,3,19.8c0.1,0.8,0.3,1.1-0.8,1.4c-11.9,2.8-23.7,5.7-35.5,8.7
			c-43.5,11-86.9,22.2-130.4,33.2c-17.3,4.4-34.6,8.7-51.8,13.1c-0.9,0.2-2.1,0.3-1.7,1.8c0.4,1.5,1.4,0.9,2.3,0.7
			c2.7-0.7,5.4-1.4,8.2-2.1c57.9-14.7,115.9-29.4,173.8-44.1c12.2-3.1,24.3-6.1,36.6-9.2c1.1,8,3.3,15.6,5.6,23
			c-0.7,0.5-1.2,0.2-1.7,0.1c-21.7-4.2-41.5,4.4-53.2,23.1c-5.2,8.4-8.1,17.7-10.1,27.3c-1.2,6.1-1.8,12.3-2.4,18.5
			c-0.1,0.8-0.1,1.7,1,1.8c1,0.1,1.3-0.6,1.4-1.5c0-0.5,0-1,0.1-1.6c1-11.6,3.1-23,7.5-33.8c9.7-24.1,32.3-36.5,56.4-31.3
			c1.9,0.4,2.7,1.3,3.3,3.1c2.6,8.5,6.2,16.6,11.4,23.9c9.2,12.7,21,20.8,37.2,21c9.2,0.1,17.7-2.4,25.8-6.4c0.8-0.4,1.5-1,2.6-0.2
			c6.3,4.3,13.1,7.8,19.8,11.5c1.7,0.9,1.9,1.9,1.4,3.5c-2.6,7.9-5.1,15.8-7.8,23.7c-1,2.9-2.1,5.6-2.6,8.7
			c-1.8,10.8,1.3,20.5,6.9,29.6c6.2,9.8,14.5,17.7,23.4,25c10.8,8.9,22.6,16.1,35.4,21.7c1,0.4,2.1,1.3,2.9-0.2
			c2.7,0.2,5.1-0.8,7.7-1.6C591.6,928.8,599.6,926.5,607.7,924.2z M216.3,603.4c-9,0.3-18.3,0.9-27,5.1c-7.4,3.5-9.3,7-8.2,15
			c2.4,17.7,4.9,35.5,7.5,53.2c0.9,6.5,4.2,10.1,9.8,12.4c1.5,0.6,3.1,1.2,4.7,1.6c11.4,2.8,22.6,2.9,33.5-2c4.5-2,7.3-5.2,7.8-10.3
			c0.2-2.3,0.8-4.7,1.1-7c0.2-1.5,0.7-2,2.3-1.8c4.1,0.5,8-0.4,11.7-2.3c9-4.7,14.2-16.9,11.6-27.6c-1.9-7.9-7.4-12.3-15.4-12.5
			c-4.2-0.1-4.2-0.1-3.6-4.4c0-0.1,0-0.2,0.1-0.3c1-6-0.4-9.2-5.6-12.4c-1.7-1.1-3.5-2-5.4-2.7C233.4,604.1,225.1,603.7,216.3,603.4
			z M290.5,671.4c0.4-0.1,1.1,0,1.4-0.2c2.9-2.9,6.6-5.2,8.1-9.2c0.6-1.7,0.8-3.3,2.6-4.2c0.8-0.4,1.1-1.4,0.5-2.3
			c-0.5-0.8-1.4-1-2.1-0.5c-3.5,2.5-8,2.9-11.4,5.8c-2.2,1.9-4.3,3.8-6.6,5.6c-11.1,8.4-22.1,16.7-33.2,25.1c-1,0.8-2,1.7-2.8,2.8
			c-1.4,1.9-0.9,4.2,0.9,5.9c1.9,1.7,3.6,1.8,5.6,0.2c5.2-4.1,10.4-8,15.6-12.2c6.8-5.4,14.2-10.1,20-16.7
			C289.5,671,289.9,671,290.5,671.4z"/>
		<path class="st1" d="M575.9,932.7c-0.8,1.5-1.9,0.7-2.9,0.2c-12.8-5.6-24.6-12.8-35.4-21.7c-8.9-7.3-17.3-15.1-23.4-25
			c-5.7-9-8.8-18.7-6.9-29.6c0.5-3,1.7-5.8,2.6-8.7c2.6-7.9,5.2-15.8,7.8-23.7c0.5-1.6,0.3-2.5-1.4-3.5c-6.7-3.7-13.5-7.2-19.8-11.5
			c-1.1-0.8-1.8-0.2-2.6,0.2c-8.1,4-16.7,6.5-25.8,6.4c-16.3-0.1-28.1-8.2-37.2-21c-5.2-7.3-8.8-15.3-11.4-23.9
			c-0.5-1.8-1.4-2.7-3.3-3.1c-24-5.2-46.6,7.2-56.4,31.3c-4.4,10.8-6.5,22.2-7.5,33.8c0,0.5,0,1-0.1,1.6c0,0.9-0.3,1.6-1.4,1.5
			c-1.1-0.1-1-1-1-1.8c0.5-6.2,1.1-12.4,2.4-18.5c2-9.6,4.8-18.9,10.1-27.3c11.7-18.8,31.5-27.3,53.2-23.1c0.5,0.1,1,0.4,1.7-0.1
			c-2.3-7.4-4.5-15-5.6-23c-12.3,3.1-24.5,6.1-36.6,9.2c-57.9,14.7-115.9,29.4-173.8,44.1c-2.7,0.7-5.4,1.4-8.2,2.1
			c-0.9,0.2-2,0.8-2.3-0.7c-0.3-1.5,0.8-1.5,1.7-1.8c17.3-4.4,34.6-8.7,51.8-13.1c43.5-11.1,86.9-22.2,130.4-33.2
			c11.8-3,23.7-5.9,35.5-8.7c1.1-0.3,0.9-0.6,0.8-1.4c-1.2-6.6-2.5-13.1-3-19.8c-0.1-1.6-0.5-2-2.2-1.6
			c-30.3,7.6-60.6,15.2-90.9,22.7c-41.1,10.2-82.1,20.4-123.2,30.6c-0.5,0.1-1,0.2-1.5,0.3c-0.6,0.1-1.1-0.1-1.3-0.6
			c-0.3-0.7,0.1-1.2,0.7-1.5c0.8-0.3,1.7-0.5,2.5-0.8c28.1-7,56.2-14,84.3-21c40.3-10,80.6-20,120.9-30.1c2.8-0.7,5.5-1.6,8.4-2.1
			c1.8-0.3,2-0.9,1.8-2.6c-2-14-3.1-28.1-2-42.3c0.4-4.4,0.8-8.7,1.6-13c0.3-1.7,0.8-3.4,2.1-4.7c0.9-0.8,1.3-1.6,0.4-2.6
			c-0.8-0.9-1.4-2-3.2-1.5c-6.4,2-12.8,3.7-19.2,5.5c-8.7,2.5-17.5,4.7-26.1,7.4c-4.2,1.3-7.2-0.5-10.4-2.5
			c-19.2-12.4-38.4-24.7-57.9-36.7c-1.4-0.8-2-1.8-1.9-3.4c0.2-2.1,0.1-4.2,0.2-6.3c0.1-2.8,1.5-4.5,4.3-5.2
			c8.2-2.2,16.4-4.5,24.6-6.8c8.1-2.3,16.1-4.7,24.2-7.1c31.4-9,62.8-18,94.2-27.1c12.9-3.7,25.7-7.7,38.6-11.4
			c6.8-2,13.6-3.7,20.4-5.6c3.1-0.8,6.2-1.7,9.3-2.6c0.4-0.1,0.6-0.5,1-0.8c-0.3-0.3-0.6-0.7-1-0.8c-1.7-0.8-3.6-0.8-5.4-0.8
			c-4.7,0-9.5,0.2-14.2-0.7c-8.5-1.7-14.9-5.9-18.6-13.9c-0.9-1.9-1.8-3.8-2.6-5.7c-3.7-8.6-10.2-14.1-18.9-17.1
			c-4.2-1.5-8.5-2.7-12.5-4.5c-0.8-0.4-1.5-0.3-2.3-0.1c-9.5,2.5-19,4.9-28.6,7.3c-1.5,0.4-2.4,1-2.5,2.8c-0.2,2.8-1.7,5.8,0.7,8.3
			c1.3,1.3,3,2.1,4.6,3c11.6,6,23.6,11.3,35.4,16.8c2.4,1.1,4.7,2.4,4.7,5.7c0.1,4.7-1.4,6.7-5.9,8c-11.9,3.4-23.8,6.8-35.7,10.1
			c-15.9,4.5-31.8,9-47.6,13.4c-3.8,1.1-7.3,0.7-10.6-1.4c-12.1-7.4-24.3-14.8-36.4-22.3c-3.8-2.3-6.4-9.7-5.5-14.8
			c0.5-2.9,0.5-2.9-2.5-2.1c-22.1,5.9-44.3,11.7-66.4,17.8c-7.7,2.1-14.4-0.1-21.1-3.2c-3.8-1.8-5.5-5.3-6-9.3
			c-1.3-10.3-2.6-20.6-3.7-30.9c-0.2-2.2-0.9-2.5-2.9-2c-26.9,5.7-53.8,11.4-80.7,17.1c-3,0.6-6,1.2-9.1,1.8
			c-0.9,0.2-2.2,0.9-2.5-0.8c-0.3-1.6,1.1-1.4,1.9-1.5c27.8-5.8,55.7-11.7,83.5-17.5c1.7-0.4,3.4-0.7,5.1-1.1
			c3.8-0.8,3.7-0.8,3.2-4.7c-4.3-32.6-8.6-65.3-12.9-98c-4.1-31-8.1-62-12.1-93c-1.3-10.1,3.5-17.1,13.5-19.7
			c31.5-8.2,63-16.6,94.5-24.8c41.8-10.9,83.6-21.8,125.4-32.7c30.5-8,61-15.8,91.4-24.1c6.2-1.7,11.7-1.1,17.2,1.5
			c1.7,0.8,3.5,1.3,5.1,2.2c3.3,1.9,4.6,5.2,5.1,8.8c3,20.4,5.6,40.9,8.5,61.3c4.1,28.9,7.5,57.8,11.8,86.7
			c2.7,18.3,4.9,36.7,7.7,55c0.2,1.5,0.4,3.1,0.4,4.5c0,2.7,1.6,1.9,2.7,1.7c7.6-1.8,15.2-3.2,22.9-4.5c1.4-0.2,1.6-0.8,1.5-2.1
			c-1.2-9.8-2.3-19.5-2.6-29.4c0-1.5-1-1.9-1.9-2.5c-10.8-6.5-17.9-15.9-19.6-28.5c-2.1-15.6,3.1-28.4,16.2-37.5
			c3.3-2.3,7-4.1,11.4-2.5c1.4,0.5,1.1-0.7,1.2-1.3c1.5-6.1,4.5-11.2,9.2-15.3c8.5-7.1,18.3-8.8,29-6.7c3.9,0.8,7.6,2,11.4,3.1
			c2.5,0.7,5,0.7,7.5,0c9-2.4,18-4.8,27.5-4c8.8,0.7,16.3,4,22,10.8c1.3,1.5,2.7,2.1,4.7,2.3c14.5,1.5,26,7.5,32.8,21
			c3,6,4,12.3,3.6,18.9c-0.1,1.7,0,3.3,0.7,4.9c8.5,21.7,7.8,43.5-0.2,65.1c-2.7,7.2-5.2,14.5-9,21.3c-1,1.8-0.6,2.5,1,3.4
			c23.4,12.8,46.9,25.5,70.3,38.4c35.4,19.5,70.7,39,106.1,58.5c23.2,12.8,46.3,25.7,69.6,38.5c2.2,1.2,2.9,2.6,2.8,5
			c-0.2,8.1-0.3,16.2-0.1,24.2c0,2.4-0.9,3.2-3,3.7c-19.9,4.9-39.7,9.8-59.6,14.7c-5,1.2-10,2.5-15.4,3.8c5.4,5.8,8.8,12.5,12,19.3
			c5.5,11.8,5.7,24.2,2.9,36.6c-10.4,46.6-20.5,93.3-30.5,140c-0.9,4.2-2,8.4-2.8,12.6c-0.4,2.4-1.5,3.5-3.9,4.1
			c-21.8,6-43.5,12.1-65.2,18.2c-33,9.2-65.9,18.4-98.9,27.7c-35.2,9.9-70.3,19.7-105.5,29.6c-0.8,0.2-1.7,0.4-2.5,0.5
			c4.4-20.4,9.7-40.6,14.7-60.9c9.2-37.3,18.1-74.7,27.9-111.9c8.9-33.8,30.2-56.5,64.2-66.2c24-6.9,48.1-13.3,72.1-20
			c28.2-7.8,56.5-15.8,84.8-23.5c10.8-3,21.7-3.4,31.9,2.5c0.9,0.5,1.9,1.1,2.8,1.6c-2.8-5.1-6.4-9.4-10.6-13.2
			c-6.1-5.6-12.9-10-21-12c-12.6-3.2-24.9-0.2-37.2,2.2c-0.5,0.1-1.1,0.4-1,1c0.1,1.6-1.2,1.7-2.2,2c-14.2,3.9-28.5,7.6-42.7,11.6
			c-29.4,8.2-58.8,16.5-88.2,24.7c-9.4,2.6-18.9,4.9-27.7,9.1c-23.6,11.3-38.8,30.1-46.9,54.6c-6.4,19.3-10.5,39.3-15.5,59.1
			c-10.2,40.2-20.2,80.5-30.3,120.8C580.3,914.7,578.1,923.7,575.9,932.7z M529.5,787.3c-0.8-0.2-1.1,0.5-1.5,0.8
			c-5.3,3.8-10.5,7.9-16.1,11.4c-4.5,2.8-9.1,5.4-13.8,8.1c6.9,4,13.6,7.8,20.2,11.8c1.6,0.9,1.4-0.5,1.6-1.1c2-6.1,4.1-12.1,6-18.2
			C527.1,795.9,529,791.8,529.5,787.3c0.1,0,0.2-0.1,0.3-0.1c-0.1-0.1-0.1-0.2-0.2-0.2C529.5,787.1,529.5,787.2,529.5,787.3z
			 M515.9,562.3c0.2,0,0.4,0,0.5-0.1c9.6-6.9,19.9-4.3,30.2-2c0.8,0.2,1.6,0.4,1.4,1.5c-0.2,1-1,1.1-1.8,1c-1.2-0.2-2.4-0.4-3.6-0.7
			c-9.2-2.3-18.1-2.5-26.3,3c-0.3,0.2-0.7,0.2-1,0.4c-4,2.1-7.9,4.3-10.5,8.1c-1.4,2-0.9,2.8,1.5,2.9c4,0.1,7.6-1.3,11.2-2.8
			c4.4-1.8,8.7-4.5,13.8-1.9c5.2,2.7,10.6,4.8,15,8.6c1.4,1.2,2.5,2.7,1.4,4.8c-1.1,2-2.9,2.4-5,2.1c-3.3-0.4-6.3-1.9-9.3-3.1
			c-3-1.2-6-2.9-9.5-1.8c-1.7,0.5-3.3,1-3.7,2.7c-0.4,1.8,1.2,2.6,2.5,3.5c4.4,3.1,9.5,5,13.8,8.2c3.6,2.7,4.4,2.2,7.2-1.6
			c6.3-8.5,13.7-16,21.8-22.8c6.1-5.1,12.8-9.5,20.2-13.2c-3.5-2.4-7.1-4-10.7-5.6c-8.9-3.9-18-6.5-27.8-5.5
			c-1.6,0.2-3.4,0.2-4.8,1.5c0.7,0.9,1.4,0.6,2.1,0.8c3.7,0.6,7.4,1.2,11.2,1.9c1,0.2,2.1,0.4,1.8,1.7c-0.3,1.3-1.4,1.1-2.4,0.9
			c-0.3,0-0.5-0.1-0.8-0.2c-5.9-1.2-11.9-2.1-18-2.5c-9-0.6-15.3,3.8-20.9,10c0,0.2,0,0.4-0.1,0.6
			C515.5,562.5,515.7,562.4,515.9,562.3z M463.7,653.8c-1-0.4-1.9-0.9-2.9-1.1c-7.1-1.5-14.3-2-21.5-0.9
			c-12.3,1.9-22.8,7.2-31.4,16.2c-0.7,0.7-1.8,1.7-0.8,2.7c1.1,1.1,1.8-0.5,2.4-1.1c3.1-3.5,6.7-6.4,10.8-8.8
			c12.6-7.3,26-9.2,40.1-5.8c1.5,0.4,2.8,0.6,3.3-1.3c0.6,1.7,2.1,2.7,3,4.1c4.3,6.3,8.1,12.9,12,19.5c1.8,3,1.8,3.1,4,0.3
			c10.6-13.2,21.6-26.2,31.2-40.2c5.6-8.1,11.1-16.3,16.8-24.9c-0.9,0.2-1.3,0.2-1.7,0.3c-16.5,4.8-33,9.6-49.5,14.4
			c-8.4,2.4-16.8,4.8-25.2,7.2c-1,0.3-2.9,0.1-2.6,1.5c0.3,1.8,0.2,4.3,2.7,5c1.7,0.5,2.7,1.6,3.6,3
			C460,647.2,461.9,650.5,463.7,653.8z M625.7,541.7c3.4-3.6,6.9-7,11.9-8.3c1.2-0.3,1.4-0.8,1.3-2c-0.9-8.4-2-16.7-3.2-25.1
			c-0.3-2.4-1.3-2.8-3.5-2.9c-12-0.4-22.2-4.2-28.4-15.4c-1.8-3.1-3.5-6.3-4.9-9.6c-6.1-14.6-9.5-29.9-11.5-45.5
			c-0.3-2.4-1-3-3.4-2.5c-7.3,1.5-14.7,3-22.1,4.3c-1.7,0.3-1.5,1.1-1.4,2.4c0.8,5.6,1.6,11.1,2.4,16.7c1.1,7.8-3,13.9-10.5,16
			c-32.4,8.8-64.7,17.5-97.1,26.2c-5.8,1.6-11.6,3.1-18.1,4.8c0.8,0.4,1,0.6,1.2,0.6c0.8,0.2,1.5,0.5,2.3,0.7
			c14.1,3.1,24.5,10.6,29.3,24.8c0.3,1,0.9,1.9,1.4,2.8c3.5,6.4,9,9.9,16,11.3c4.1,0.8,8.2,0.8,12.3,0.6c2.6-0.1,5.4-0.5,7.5,1
			c3.8,2.7,7.5,2,11.4,0.5c1.8-0.7,3.8-0.9,5.5-1.7c4-1.7,7.7-1.4,11.2,1c4.2,2.9,8.5,4.5,13.7,2.8c0.6-0.2,1.2-0.1,1.8,0
			c11.3,0.3,21.9,3.5,31.5,9.3c4.2,2.6,7.2,2.5,11.4,0.1c9.7-5.4,20.4-8.5,30.8-12.2c0.2,1.3,1.3,1.5,2.3,1.8c7.9,2.6,15.9,4.9,24,7
			c16.1,4.1,32.2,5.2,48.5,1.9c18-3.7,33.5-11.8,45.7-25.8c0.5-0.6,1-1.2,1.5-1.8c0.5-0.7,0.4-1.4-0.1-1.9c-0.8-0.7-1.2,0.2-1.6,0.7
			c-1.6,1.8-3.1,3.8-4.8,5.5c-14.6,14.3-32.4,21.2-52.5,22.9C665.9,554.5,645.8,548,625.7,541.7z M975.8,586.2c-1-0.7-1.4-1-1.8-1.2
			c-38.4-21.2-76.8-42.5-115.2-63.7c-30.4-16.7-60.8-33.3-91.2-50c-12.4-6.8-24.8-13.5-37.2-20.4c-2-1.1-2.9-0.7-3.8,1.4
			c-1.6,3.5-3.5,6.9-5.2,10.3c-1.4,2.8-3.1,5.5-4.3,8.5c-1.5,3.5-2.2,7.5-5.9,9.7c-0.9,0.6-0.4,1.4-0.3,2.1c1.4,8,3.8,15.6,7.2,22.9
			c2.1,4.5,4.6,8.9,7.9,12.7c0.6,0.7,1.1,1.6,2.4,1c3.8-1.6,7.6-0.9,11.3,0.2c3.4,1,6.7,2.5,10.4,2.7c5.4,0.2,10.7,1,16,1.8
			c28.4,4.1,48,19,58.4,46c5.9,15.4,9.2,31.3,11.2,47.5c0.3,2.8,1.5,2.7,3.4,2.2c4.3-1.2,8.5-2.4,12.8-3.5
			c34.6-8.5,69.2-16.9,103.8-25.3C962.1,589.5,968.7,588,975.8,586.2z M560.6,454.9c-0.6-3.9-1.2-8.9-2-13.8
			c-0.7-4.4-0.7-4.4-5.1-3.2c-24.9,6.8-49.8,13.6-74.7,20.2c-53,14.2-106,28.2-159,42.4c-32.4,8.7-64.8,17.5-97.1,26.2
			c-1.5,0.4-3.1,0.4-2.7,2.9c0.8,5,1.3,10.1,2,15.1c1,7.2,5,9.9,12,8c27.6-7.4,55.3-14.8,82.9-22.2c30.5-8.2,61.1-16.6,91.6-24.8
			c17.2-4.6,34.5-9,51.6-13.6c18.3-4.9,36.6-9.9,55-14.9c12.4-3.4,24.8-6.6,37.1-10C557.7,465.7,560.7,461.4,560.6,454.9z
			 M634.1,452.6c-1.5,1.6-2.2,3.6-3.8,4.9c-2.5,2-5.5,2.4-7.8,0.8c-0.8-0.6-1.7-1.3-1.1-2.4c0.7-1.1,1.7-0.6,2.5,0.1
			c1.6,1.5,3,0.9,4.4-0.3c1.5-1.3,2.5-3,3.2-4.7c3.8-8.5,5.2-17.3,3.7-26.5c-0.8-4.9-2.4-9.5-6-13.2c-3.4-3.5-7.6-3.3-10.8,0.4
			c-1.9,2.2-3,4.9-3.6,7.8c-0.9,4.5-0.9,9.1-0.8,13.6c0.1,3.3-1.7,4.8-5,4.4c-2.8-0.3-4.6-1.8-5.2-4.8c-1-4.7-1.9-9.5-2.7-14.2
			c-1.5-8.7-3.6-17.1-12.8-21.2c-0.7-0.3-1.4-1.2-2.1-0.7c-0.7,0.5-0.2,1.4,0.1,2.1c0.3,0.7,0.2,1.5,0.3,2.3
			c1.2,16.9,3.1,33.8,6.7,50.4c2.7,12.5,6.6,24.6,13.1,35.7c6,10.2,15.5,13.6,26.8,13.7c1.3,0,1.8-0.4,1.4-1.7
			c-0.4-1.4-0.6-2.9-0.8-4.4c-0.1-0.8,0.3-1.4,1.1-1.5c0.7-0.1,1.1,0.5,1.3,1.1c0.1,0.5,0.2,1,0.3,1.5c2,11.6,3.9,23.2,4.9,34.9
			c0.1,1.8,0.6,2.6,2.6,2.7c3,0.2,6.1,0.9,9.1,1.4c13.7,2.4,27.5,3.7,41.4,1.3c11.5-2,22.1-6.3,30.9-14.3c-2.6-2.9-4.8-6-6.7-9.2
			c-5.3-9-8.4-18.9-10.4-29.1c-0.3-1.7-0.7-2.2-2.5-1.7c-2.6,0.8-5.3,1.4-7.9,2c-8.7,1.9-17.3,4.4-26.3,5.3
			c-8.2,0.8-15-1.7-20.4-8.1c-2.5-3-4.9-6.2-7-9.5C640.2,465.7,637.3,459.2,634.1,452.6z M221.8,551.5c-1.5-2.4-2.1-4.8-2.4-7.2
			c-2.3-18.5-4.6-37-6.9-55.4c-3.2-25.3-6.6-50.5-9.9-75.8c-2.6-19.9-5.2-39.9-7.7-59.8c-1.8-13.9-3.5-27.7-5.1-41.6
			c-0.8-7,3.2-13,9.9-14.8c37.2-9.8,74.3-19.7,111.5-29.4c31.9-8.4,63.8-16.6,95.8-25c33-8.6,66-17.3,99.1-26
			c3.6-0.9,7.3-1.6,10.9-3.2c-3.6-1.8-5.9-2.1-9.7-1.1c-6.8,1.8-13.6,3.6-20.4,5.4c-30.2,7.9-60.5,15.7-90.8,23.6
			c-50.6,13.2-101.2,26.5-151.8,39.8c-17.6,4.6-35.3,9.2-52.9,14c-6.5,1.8-10.1,6.8-9.9,13.5c0.2,4.3,0.7,8.6,1.3,12.8
			c3.8,28.6,7.6,57.1,11.3,85.7c3.1,23.8,6.1,47.6,9.2,71.3c2.7,21,5.6,42,8.3,63C212.3,547.2,215.3,550.4,221.8,551.5z
			 M360.2,608.7c5.6-3.1,11.4-2.2,17.1-0.6c1.9,0.5,3.8,1.4,5.7,2.1c0.8,0.3,1.4,0.9,1,1.8c-0.4,1-1.2,0.9-2,0.7
			c-1.3-0.5-2.6-1-3.9-1.5c-9.5-4.1-17.6-1.9-24.8,5.1c-0.9,0.8-1.1,1.7-0.8,2.5c0.4,0.9,1.4,1.1,2.5,0.8c2.5-0.8,5-1.5,7.6-2.3
			c2-0.6,4-0.8,6,0c6.2,2.3,10.7,6.9,14.9,11.8c6.2,7.4,13.4,13.5,22.9,16.2c1.8,0.5,3.8,1,4.5,2.6c1.3,2.7,2.4,1.6,3.8,0.4
			c2.9-2.4,6.2-3.9,9.7-5.2c7.4-2.8,15.2-3.6,23.1-3.3c2.9,0.1,2.9,0,2.1-3c-1.3-5.6-3.3-11.1-5.6-16.4
			c-4.3-10.2-11.2-18.5-19.9-25.3c-1-0.8-2.1-1.6-3.6-1.3c0.2,1.3,1.3,1.9,2,2.7c3.9,4.1,7.8,8.1,11.7,12.1c0.7,0.7,1.5,1.6,0.6,2.5
			c-1,1.1-1.7-0.2-2.3-0.8c-4.4-4.3-8.7-8.7-13-13.1c-4.5-4.7-10-7.6-16.3-9.1c-3.9-0.9-7.7-0.6-11.4,1.4c0.6,0.9,1.4,0.7,2,0.9
			c3.5,0.7,6.7,2,10,3.2c0.8,0.3,1.5,0.6,1.2,1.7s-1.1,1.2-2.1,0.8c-0.6-0.3-1.3-0.5-2-0.8c-5.5-1.9-11-3.6-16.7-4.5
			c-4.4-0.8-7.5,1.3-10.4,4.9c6.3,0,11.7,2.2,17.1,4.1c1,0.3,2.2,0.8,1.7,2.1c-0.5,1.5-1.8,0.7-2.7,0.4c-4-1.5-7.9-3-12-3.8
			c-6.1-1.1-14.3,2.8-17.3,8.2C360.4,607,359.9,607.6,360.2,608.7z M315.7,548.2c0,0.2,0,0.5,0,0.7c10.1,6.3,20.3,12.5,30.4,18.9
			c4.2,2.7,8.4,3.2,13.1,1.8c6-1.7,12-3.3,18-5c21.2-6.1,42.5-11.5,63.6-17.9c1.1-0.3,2.7-0.3,2.8-2c0-1.4-1.5-1.6-2.5-2
			c-12.5-5.6-24.8-11.5-37-17.7c-0.9-0.5-1.6-0.4-2.5-0.1c-23.6,6.4-47.2,12.8-70.9,19.2C325.7,545.6,320.7,546.9,315.7,548.2z
			 M200.4,309.2c0.8,5.7,1.5,10.8,2.1,15.8c2.6,19.9,5.1,39.7,7.7,59.6c3.1,23.6,6.2,47.2,9.3,70.8c2.5,19.2,5,38.3,7.5,57.5
			c0.2,2,0.9,2.4,2.9,1.9c24.1-6.6,48.1-13.1,72.2-19.6c31-8.3,62.1-16.6,93.1-24.9c50.5-13.5,100.9-27.1,151.4-40.5
			c2-0.5,2.6-1.4,2.3-3.4c-1.3-9.6-2.5-19.3-3.8-29c-3.5-26.7-7-53.5-10.5-80.2c-4-30.1-7.9-60.3-11.8-90.4c-0.3-2.4-1-2.8-3.3-2.2
			c-26.2,6.9-52.5,13.6-78.8,20.5c-42.9,11.2-85.8,22.5-128.7,33.8c-22.5,5.9-45,11.8-67.5,17.7c-13.9,3.7-27.9,7.3-41.8,11
			C201.6,307.9,200.2,308.1,200.4,309.2z M863.7,616.3c0.5,0.2,0.7,0.3,0.8,0.3c13.7,0.4,24.8,6.3,34.3,15.7c0.9,0.9,1.6,1,2.8,0.7
			c24.6-6.1,49.3-12.1,73.9-18.1c1.5-0.4,1.9-1,1.9-2.5c0-7.2,0-14.4,0.3-21.6c0.1-2.2-0.5-2.4-2.5-1.9c-20.5,5.1-40.9,10-61.4,15.1
			C897.3,608,880.7,612.1,863.7,616.3z M312.6,542.2c0,3.5,0.8,4.4,3.3,3.7c19.6-5.4,39.3-10.8,58.9-16.1c7.9-2.1,15.8-4.2,23.6-6.3
			c0.7-0.2,2,0.1,1.7-1.4c-0.5-2.8-2.7-4.2-5.4-3.5c-14.6,4-29.3,8-44,11.9c-12,3.2-23.9,6.4-35.9,9.6
			C313.8,540.4,312.3,540.5,312.6,542.2z M606.8,704.5c0.1-0.7-0.1-1.1-0.5-1.3c-1.2-0.3-1.5,0.7-2,1.3c-9.3,13-19.6,25.2-30.3,37.1
			c-13.3,14.9-27.5,28.8-42.9,41.5c-0.3,0.2-0.6,0.4-0.8,0.7c-0.5,0.6-1.3,1.1-0.5,2c0.7,0.7,1.3,0.3,1.8-0.2
			c0.5-0.4,1.1-0.9,1.6-1.3c5.3-4.8,10.8-9.6,16-14.5c20.6-19.4,39.2-40.5,56-63.2C605.8,706,606.3,705.2,606.8,704.5z M355.4,656
			c-0.4-0.8-1.1-1.3-1.8-1.8c-18.5-14-37.3-27.5-56.3-40.8c-0.4-0.3-0.9-0.5-1.4-0.8c-0.5-0.3-1-0.3-1.4,0.2c-0.5,0.5-0.1,1,0.3,1.4
			c0.9,0.7,1.8,1.4,2.7,2.1c17.6,12.3,35.2,24.7,52.3,37.7c1.3,1,2.5,2,3.8,2.8C354.5,657.3,355.2,657.3,355.4,656z M445.8,732.5
			c-0.2,0.9-0.1,1.6,1,1.8c1.2,0.2,1.2-0.7,1.4-1.5c1-4.8,2.5-9.3,4.5-13.7c4.6-10,11.3-18.6,18.5-26.8c2.7-3,5.5-5.9,8.3-8.8
			c0.4-0.5,1.3-0.8,0.5-1.7c-0.7-0.8-1.2-0.4-1.8,0.1c-0.3,0.2-0.5,0.4-0.8,0.7c-9.5,9.7-18.2,20-24.8,32
			C449.5,720.2,447.3,726.2,445.8,732.5z M447.5,620.1c0.5-0.1,1-0.3,1.5-0.4c11.8-3.5,23.5-7,35.3-10.5c4.3-1.3,8.6-2.5,12.8-3.8
			c0.6-0.2,1.5-0.3,1.2-1.3c-0.3-0.9-1-0.8-1.7-0.5c-0.4,0.2-0.8,0.3-1.2,0.4c-15,4.5-30,9-45,13.5c-1.1,0.3-2.2,0.7-3.3,1
			c-0.6,0.2-1,0.4-0.8,1.1C446.4,620.3,447,620.1,447.5,620.1z M361.6,620.2c-3.6,0.7-7,1.9-10.6,2.8c-5.6,1.3-11.1,3.4-16.6,5.1
			c-0.7,0.2-1.8,0.2-1.5,1.4c0.3,1,1.2,0.8,2,0.6c2.5-0.8,5-1.7,7.5-2.4c6.3-1.9,12.6-3.7,18.9-5.6c0.6-0.2,1.6-0.1,1.5-1.1
			C363,620.1,362.3,620,361.6,620.2z M344.4,638.1c0.2,0,0.4,0,0.5-0.1c7.9-2.4,15.7-4.8,23.6-7.2c0.5-0.2,1.1-0.3,1-1
			c-0.1-0.8-0.9-0.7-1.5-0.6c-0.5,0-1,0.2-1.5,0.3c-7.5,2.2-14.9,4.4-22.4,6.6c-0.7,0.2-1.4,0.4-1.2,1.3
			C343.1,638.2,343.8,638.1,344.4,638.1z M324.5,621.5c2.2-0.7,4.8-1.5,7.4-2.3c3.2-1,6.4-1.9,9.6-2.8c0.7-0.2,1.5-0.5,1.3-1.4
			c-0.2-0.8-1-0.6-1.5-0.5c-5.9,1.7-11.8,3.4-17.7,5.1c-0.6,0.2-1,0.4-0.8,1.1C322.9,621.5,323.4,621.7,324.5,621.5z M484.6,587
			c2.2-0.6,4.9-1.3,7.6-2c0.7-0.2,1.8-0.1,1.5-1.2c-0.3-1.1-1-1.4-2.2-1c-2.6,0.8-5.2,1.3-7.8,2.1c-0.5,0.2-1.7-0.3-1.5,0.9
			C482.4,586.5,483,587.2,484.6,587z M496.5,591.8c0.5,1.9,1.6,2.3,3.2,1.8c2.2-0.7,4.5-1.3,6.8-1.9c0.8-0.2,2.1,0,1.7-1.3
			c-0.3-1.1-1.3-1.1-2.4-0.8C502.7,590.5,499.7,591.5,496.5,591.8z M449.4,595c1,0.9,1.4,2.3,3,1.7c2.5-0.8,5-1.4,7.5-2.2
			c0.6-0.2,2,0.4,1.6-1.2c-0.4-1.3-1.6-1.2-2.4-0.9C456,593.6,452.8,594.3,449.4,595z M465.9,590.1c0.6,1.6,1.4,2.1,3,1.6
			c2.5-0.8,5-1.3,7.5-2.1c0.6-0.2,1.7,0.2,1.5-0.9c-0.2-0.9-0.9-1.5-2-1.2C472.7,588.4,469.3,589.2,465.9,590.1z M356.4,600.5
			c-2.7,0.8-5.3,1.5-8,2.3c-0.7,0.2-2.1-0.1-1.7,1.3c0.3,1,1.4,0.8,2.3,0.6c2.6-0.7,5.2-1.3,7.8-2c0.7-0.2,1.5-0.1,1.5-1.1
			C358.2,600.5,357.3,600.7,356.4,600.5z M447.8,606.4c0.8,1.4,1.6,2.2,3.4,1.6c2.3-0.8,4.7-1.3,7-2c0.7-0.2,2.1,0,1.8-1.4
			c-0.3-1.4-1.5-0.8-2.4-0.6C454.3,604.8,451.2,605.9,447.8,606.4z M448.5,576.3c2.8-0.8,5.4-1.5,8-2.3c0.7-0.2,1.7-0.2,1.3-1.4
			c-0.4-1-1.1-0.9-1.9-0.7c-2.5,0.7-5,1.4-7.5,2.2c-0.6,0.2-1.3,0.2-1.1,1.1C447.4,575.9,447.9,576.3,448.5,576.3z M367.1,642.4
			c-0.2-1.4-1.3-1.2-2.2-1c-2.9,0.8-5.9,1.7-8.8,2.7c-0.7,0.2-2,0.2-1.5,1.6c0.5,1.1,1.4,0.5,2,0.2c3.1-1,6.1-2.2,9.3-2.7
			C366.5,643.2,367,643.1,367.1,642.4z M463.9,601.4c0.7,1,1,2.3,2.5,1.9c3.1-0.7,6.1-1.5,9.2-2.3c0.4-0.1,0.8-0.3,0.7-0.9
			c-0.1-0.4-0.3-0.8-0.8-1c-0.8-0.2-1.5,0-2.3,0.2C470.2,600.2,467.2,601.1,463.9,601.4z M514.7,598.4c-3.1,0.9-6.2,1.8-9.3,2.7
			c-0.5,0.2-1.7-0.1-1.4,1c0.2,0.9,0.9,1.2,1.9,0.9c3.1-0.9,6.2-1.8,9.3-2.7c0.6-0.2,1.3-0.4,1-1.2
			C515.9,598.4,515.4,598.1,514.7,598.4z M484.8,573.3c0.7,1.6,1.6,2.1,3.4,1.4c1.9-0.8,4-1.2,5.9-1.8c0.7-0.2,2,0,1.7-1.3
			c-0.3-1.5-1.5-0.9-2.4-0.7C490.6,571.6,487.8,572.4,484.8,573.3z M416,585.3c3.7-1,6.9-1.9,10.1-2.8c0.6-0.2,0.7-0.7,0.5-1.3
			c-0.3-1-1-0.8-1.7-0.6c-2.9,0.8-5.9,1.7-8.8,2.6c-0.5,0.2-1.1,0.3-0.9,1C415.4,584.8,415.7,585.3,416,585.3z M480.2,576.7
			c-0.3-1.5-1.2-1.4-2.4-1.1c-2.5,0.8-5,1.5-7.5,2.3c-0.6,0.2-1.6-0.2-1.3,1.1c0.2,1,0.8,1.3,1.8,1c2.8-1.1,5.7-1.8,8.6-2.4
			C479.9,577.4,480.2,577.2,480.2,576.7z M438.3,588.8c2.7-0.7,5.4-1.5,8.1-2.2c0.7-0.2,1.5-0.3,1.2-1.3c-0.3-1-1-1-1.9-0.7
			c-2.6,0.8-5.2,1.5-7.8,2.2c-0.6,0.2-1.4,0.1-1.1,1.1C437,588.6,437.4,589.1,438.3,588.8z M509,580c-0.7-1.2-1.3-0.9-1.9-1
			c-2.9-0.4-5.5,1-8.3,1c-0.7,0-1.6-0.1-1.5,0.9c0.1,1,0.8,1.9,1.7,1.7C502.3,581.9,505.6,580.9,509,580z M445,598.1
			c-0.3-1.1-1.1-1.4-2.2-1.1c-2.5,0.6-4.9,1.2-7.4,1.8c-0.6,0.2-1.5,0.2-1.3,1.3c0.2,0.9,0.8,1.3,1.8,1c2.6-1,5.4-1.6,8.1-2
			C444.6,598.9,445.1,598.9,445,598.1z M464,571.7c3-0.8,5.6-1.4,8.2-2.2c0.6-0.2,1.9,0,1.6-1.2c-0.2-1.3-1.3-1.2-2.3-0.9
			c-2.5,0.7-5,1.4-7.5,2.1c-0.6,0.2-1.3,0.3-1.2,1.1C463,571.4,463.6,571.7,464,571.7z M383.4,636.2c-3.4,0.9-6.2,1.6-9.1,2.4
			c-0.6,0.2-1.5,0.1-1.3,1.2c0.2,1.1,1,1,1.8,0.8c2.8-0.8,5.5-1.5,8.3-2.3c0.6-0.2,1.3-0.2,1.1-1.1
			C384.2,636.4,383.6,636.2,383.4,636.2z M492.1,595.1c-0.4-0.9-1.2-0.8-2.1-0.6c-2.5,0.7-5,1.3-7.6,2c-0.7,0.2-1.8,0.2-1.3,1.4
			c0.3,0.9,1,1.1,1.9,0.8c2.6-0.9,5.3-1.6,8-2.5C491.5,596.1,492,596,492.1,595.1z M462.3,580.1c-2.8,0.7-5.5,1.5-8.3,2.2
			c-0.6,0.2-1.6,0.2-1.3,1.2c0.2,1,1.1,0.9,1.9,0.7c2.7-0.7,5.4-1.3,8.1-2c0.6-0.1,1.3-0.2,1.1-1.1
			C463.7,580.3,463.1,580,462.3,580.1z M503.2,558.6c-2.2,0.6-4.8,1.3-7.4,2c-0.7,0.2-1.8,0.1-1.4,1.3c0.3,0.9,1.1,1,2,0.7
			c2.5-0.7,5.1-1.4,7.6-2c0.6-0.2,1.3-0.3,1.1-1.1C505,558.7,504.4,558.5,503.2,558.6z M441.2,576c-3,0.9-5.6,1.7-8.1,2.4
			c-0.6,0.2-1.6,0.2-1.1,1.2c0.3,0.8,0.9,0.9,1.7,0.7c2.5-0.7,5-1.4,7.5-2.1c0.7-0.2,1.4-0.5,1.1-1.4
			C442,576.2,441.5,575.9,441.2,576z M480.2,567.1c2.8-0.7,5.6-1.4,8.4-2.1c0.8-0.2,0.9-0.8,0.6-1.4c-0.3-0.9-1-0.8-1.7-0.6
			c-2.6,0.8-5.2,1.5-7.8,2.3c-0.4,0.1-1.2,0-1,0.8C478.9,566.8,479.3,567.3,480.2,567.1z M323.1,609.9c-2.4,0.7-5.5,1.6-8.5,2.6
			c-0.5,0.2-1,0.5-0.8,1.1c0.3,0.9,1.1,0.8,1.8,0.6c2.9-0.8,5.7-1.6,8.6-2.5c0.6-0.2,1.3-0.5,1.1-1.2
			C325.1,609.9,324.3,609.8,323.1,609.9z M332.2,609.2c3.1-0.8,5.9-1.6,8.8-2.4c0.5-0.2,1-0.5,0.8-1.2c-0.2-0.8-0.8-0.9-1.4-0.7
			c-2.8,0.8-5.5,1.6-8.3,2.5c-0.5,0.2-1,0.4-0.8,1.1C331.4,609,331.8,609.2,332.2,609.2z M519.3,554.8c-0.5-0.8-1.4-0.6-2.1-0.5
			c-2,0.5-4.1,1.1-6.1,1.6c-0.6,0.2-1.6,0.1-1.3,1.2c0.2,1,1,1.3,2.1,1c2.1-0.8,4.2-1.5,6.4-2.2
			C518.7,555.6,519.2,555.5,519.3,554.8z M422.2,591.3c0.9,1.2,1.7,1.5,2.8,1.2c1.9-0.4,3.7-0.8,5.6-1.3c0.6-0.2,1.6,0,1.2-1.2
			c-0.3-0.8-0.9-1.2-1.8-1C427.4,589.9,424.8,590.5,422.2,591.3z M522.9,598.1c2-0.5,4-1.1,6-1.6c0.6-0.2,1.6-0.1,1.3-1.1
			c-0.2-0.7-1-0.9-1.7-0.7c-2,0.5-4,1.1-6,1.6c-0.5,0.1-1.1,0.3-1,1C521.7,598,522.2,598.1,522.9,598.1z M508.1,566.6
			c-2.1,0.5-4.2,1-6.2,1.5c-0.5,0.2-1.7-0.2-1.5,1.1c0.2,1.1,1,1.7,2.1,1.3C504.6,569.7,506.7,568.7,508.1,566.6z M356.5,610.8
			c-2.4-0.5-4.2,0.8-6.1,1.3c-0.6,0.2-0.7,0.7-0.6,1.3c0.2,0.7,0.8,1.2,1.3,0.9C352.9,613.2,355.3,613.1,356.5,610.8z M515.6,586.9
			c-0.9,0.1-2,0-2.8,0.8c-0.1,0.1,0.3,0.7,0.5,1.1c0.8,1.3,1.8,0.5,2.8,0.4c0.4-0.1,0.9-0.2,1.3-0.2c0.5-0.1,1.2-0.2,1.1-0.8
			c0-0.4-0.6-1-1-1.1C517,586.8,516.4,586.9,515.6,586.9z M377,628.2c0.4-0.1,1.7,0.1,1.5-0.9c-0.2-1.8-1.9-1.3-3.1-1.5
			c-1.1-0.2-1.5,0.1-1.3,0.5C374.8,627.3,375.3,628.4,377,628.2z M367.3,597.4c-2,0.1-3.6,0.4-4.8,1.6c-0.2,0.2,0.3,0.8,0.7,0.9
			C365,600.2,366.1,599.2,367.3,597.4z M406.4,586.2c0.7,1.1,1.9,1.1,3,1.1c0.6,0,1.2-0.2,1.2-1c-0.1-0.7-0.5-1.1-1.2-1
			C408.3,585.5,407.3,585.5,406.4,586.2z M444,609.3c-0.2-0.6-0.5-1.3-1.4-1.3c-0.8,0-1.7,0.1-1.7,1.2c0,0.7,0.6,1.3,1.4,1.2
			C443,610.4,443.9,610.4,444,609.3z"/>
		<path class="st2" d="M575.9,932.7c2.2-9,4.5-18,6.7-27c10.1-40.3,20-80.6,30.3-120.8c5-19.7,9.2-39.7,15.5-59.1
			c8.1-24.5,23.3-43.3,46.9-54.6c8.8-4.2,18.4-6.5,27.7-9.1c29.4-8.2,58.8-16.5,88.2-24.7c14.2-4,28.5-7.7,42.7-11.6
			c1.1-0.3,2.3-0.4,2.2-2c0-0.6,0.5-0.9,1-1c12.3-2.4,24.5-5.5,37.2-2.2c8.1,2.1,15,6.4,21,12c4.1,3.8,7.7,8.1,10.6,13.2
			c-0.9-0.5-1.9-1-2.8-1.6c-10.2-6-21.1-5.5-31.9-2.5c-28.3,7.7-56.5,15.7-84.8,23.5c-24,6.7-48.1,13.1-72.1,20
			c-34,9.8-55.3,32.4-64.2,66.2c-9.8,37.2-18.7,74.6-27.9,111.9c-5,20.3-10.2,40.5-14.7,60.9c-8,2.3-16.1,4.7-24.1,7
			C581,931.8,578.6,932.9,575.9,932.7z"/>
		<path class="st1" d="M216.3,603.4c8.8,0.3,17.1,0.7,25,4c1.9,0.8,3.7,1.7,5.4,2.7c5.2,3.2,6.6,6.4,5.6,12.4c0,0.1,0,0.2-0.1,0.3
			c-0.7,4.4-0.7,4.4,3.6,4.4c8.1,0.1,13.5,4.6,15.4,12.5c2.5,10.7-2.6,23-11.6,27.6c-3.7,1.9-7.6,2.8-11.7,2.3
			c-1.7-0.2-2.1,0.3-2.3,1.8c-0.3,2.3-0.9,4.7-1.1,7c-0.5,5.1-3.3,8.3-7.8,10.3c-10.9,4.9-22.1,4.8-33.5,2c-1.6-0.4-3.2-1-4.7-1.6
			c-5.6-2.3-8.9-5.8-9.8-12.4c-2.6-17.7-5.1-35.4-7.5-53.2c-1.1-8.1,0.8-11.5,8.2-15C197.9,604.3,207.3,603.7,216.3,603.4z
			 M249.3,625.2c-22,10.4-43.8,10.5-65.6-0.1c0-0.2-0.1,0,0,0.1c2.7,17.3,4.7,34.6,7.4,51.9c0.7,4.4,2.8,7.4,6.7,9
			c12.3,5.1,24.7,5.4,37.2,0.6c4.4-1.7,6.5-4.9,7.1-9.6c1-8.3,2.3-16.5,3.4-24.8C246.8,643.2,248.1,634.1,249.3,625.2z M216.7,605.8
			c-3.8,0-7.6,0.1-11.3,0.7c-6.1,1-12.1,2.3-17.5,5.4c-2,1.2-3.7,2.7-4.6,4.9c-1,2.5,0.6,3.9,2.1,5.5c1.6,1.6,2.6,0.3,3.8-0.5
			c1.9-1.2,4.1-2.1,6.2-2.8c9.5-3.4,19.3-3.8,29.1-3c6.9,0.5,13.8,1.8,19.7,5.9c2.6,1.7,3.8,1.4,5.2-1.4c1.1-2,0.3-3.8-0.9-5.4
			c-1.9-2.5-4.6-4-7.5-5.2C233.3,606.8,225.1,605.8,216.7,605.8z M250.8,635.4c1.6-0.4,3.2-0.7,4.9-0.6c4.5,0.2,7.5,2.4,8.6,6.7
			c2.2,8.1-2.9,21.6-15.9,20.3c-1.3-0.1-1.6,0.2-1.8,1.4c-0.6,3.9-0.7,4,3.3,3.9c1.2,0,2.5-0.1,3.6-0.4
			c11.3-2.5,18.4-15.7,14.9-27.6c-1.7-5.9-6.6-9.7-12.7-9.4C250.5,630,250.9,629.9,250.8,635.4z M248.7,648.5
			c-0.4,2.6-0.7,5.2-1.1,7.8c-0.4,3.2-0.2,3.5,3.1,3.2c7.4-0.7,12.8-7.9,11.7-15.7c-0.9-6.1-5.8-7.3-11.5-5.7
			c-0.5,0.1-0.8,0.5-0.8,0.9C249.5,642.1,249.3,645.3,248.7,648.5z"/>
		<path class="st1" d="M290.5,671.4c-0.6-0.4-1-0.4-1.5,0.1c-5.8,6.6-13.2,11.3-20,16.7c-5.1,4.1-10.4,8.1-15.6,12.2
			c-2,1.6-3.8,1.5-5.6-0.2c-1.8-1.7-2.3-4.1-0.9-5.9c0.8-1,1.8-2,2.8-2.8c11-8.4,22.1-16.8,33.2-25.1c2.3-1.8,4.5-3.7,6.6-5.6
			c3.4-2.9,7.9-3.3,11.4-5.8c0.7-0.5,1.6-0.3,2.1,0.5c0.6,0.9,0.3,1.9-0.5,2.3c-1.8,0.9-2,2.5-2.6,4.2c-1.5,4-5.2,6.3-8.1,9.2
			C291.6,671.4,290.9,671.3,290.5,671.4z"/>
		<path class="st1" d="M411.1,869.8c-5.7-8.6-10.3-17.7-14.9-26.9c-0.3-0.6-0.6-1.3-0.9-1.9c-0.2-0.6,0-1.1,0.5-1.3
			c0.6-0.3,1.2-0.3,1.6,0.2c0.3,0.4,0.5,0.9,0.7,1.4c11.8,24.4,27,46.6,44.6,67.1c0.5,0.5,1,1,1.4,1.6c0.5,0.7,1.5,1.5,0.3,2.4
			c-1,0.8-1.6-0.2-2.1-0.8c-3.1-3.3-6.1-6.8-8.9-10.4c-1.5-1.9-3-3.8-4.7-6c-1.4,1.7-1.9,3.6-2.8,5.3c-0.3,0.6-0.1,2.2-1.5,1.6
			c-1.1-0.5-1.6-1.6-1-2.9c0.8-1.8,1.6-3.5,2.5-5.2c0.8-1.3,0.8-2.4-0.4-3.5c-0.6-0.6-1.1-1.4-1.6-2.1c-3.1-4-5.2-8.7-8.7-12.2
			c-3.4-3.4-8.3-5.4-12.4-8.2c-1.1-0.8-3.7-1.6-2.5-3.3c1.5-2.1,2.8,0.5,4,1.2c2.1,1.2,4.1,2.7,6.2,4c0.2,0.2,0.4,0.6,0.7,0.3
			C411.7,870.3,411.3,870,411.1,869.8z"/>
		<path class="st3" d="M975.8,586.2c-7.2,1.7-13.7,3.3-20.3,4.9c-34.6,8.4-69.2,16.9-103.8,25.3c-4.3,1-8.5,2.3-12.8,3.5
			c-1.9,0.5-3.1,0.7-3.4-2.2c-2-16.2-5.2-32.2-11.2-47.5c-10.4-27-30-42-58.4-46c-5.3-0.8-10.6-1.6-16-1.8c-3.7-0.1-7-1.7-10.4-2.7
			c-3.8-1.1-7.5-1.8-11.3-0.2c-1.3,0.5-1.8-0.3-2.4-1c-3.3-3.8-5.7-8.2-7.9-12.7c-3.5-7.3-5.8-15-7.2-22.9c-0.1-0.7-0.6-1.6,0.3-2.1
			c3.7-2.2,4.4-6.3,5.9-9.7c1.2-2.9,2.9-5.6,4.3-8.5c1.7-3.4,3.6-6.8,5.2-10.3c1-2.1,1.8-2.5,3.8-1.4c12.4,6.8,24.8,13.6,37.2,20.4
			c30.4,16.6,60.8,33.2,91.2,50c38.4,21.2,76.8,42.5,115.2,63.7C974.4,585.2,974.8,585.5,975.8,586.2z"/>
		<path class="st3" d="M624.6,542.5c-10.4,3.7-21.1,6.9-30.8,12.2c-4.2,2.3-7.2,2.5-11.4-0.1c-9.6-5.8-20.2-9-31.5-9.3
			c-0.6,0-1.3-0.1-1.8,0c-5.1,1.7-9.5,0.1-13.7-2.8c-3.5-2.4-7.2-2.8-11.2-1c-1.8,0.8-3.7,1-5.5,1.7c-3.9,1.5-7.5,2.2-11.4-0.5
			c-2.1-1.5-4.9-1.1-7.5-1c-4.1,0.2-8.2,0.2-12.3-0.6c-7-1.4-12.5-4.9-16-11.3c-0.5-0.9-1.1-1.8-1.4-2.8
			c-4.7-14.2-15.2-21.6-29.3-24.8c-0.8-0.2-1.5-0.5-2.3-0.7c-0.2-0.1-0.5-0.2-1.2-0.6c6.5-1.7,12.3-3.3,18.1-4.8
			c32.4-8.7,64.7-17.5,97.1-26.2c7.5-2,11.6-8.2,10.5-16c-0.8-5.6-1.6-11.1-2.4-16.7c-0.2-1.2-0.3-2.1,1.4-2.4
			c7.4-1.4,14.8-2.8,22.1-4.3c2.3-0.5,3.1,0.1,3.4,2.5c2,15.6,5.4,30.9,11.5,45.5c1.4,3.3,3.2,6.5,4.9,9.6
			c6.2,11.2,16.4,15,28.4,15.4c2.2,0.1,3.1,0.4,3.5,2.9c1.2,8.3,2.2,16.7,3.2,25.1c0.1,1.2-0.1,1.7-1.3,2c-5,1.3-8.5,4.7-11.9,8.3
			C625.2,541.7,624.8,542,624.6,542.5z"/>
		<path class="st2" d="M560.6,454.9c0.1,6.5-2.9,10.8-8.4,12.3c-12.4,3.4-24.8,6.7-37.1,10c-18.3,5-36.6,10-55,14.9
			c-17.2,4.6-34.5,9-51.6,13.6c-30.5,8.2-61.1,16.6-91.6,24.8c-27.6,7.5-55.3,14.8-82.9,22.2c-7,1.9-11-0.8-12-8
			c-0.7-5-1.2-10.1-2-15.1c-0.4-2.4,1.2-2.5,2.7-2.9c32.4-8.8,64.7-17.6,97.1-26.2c53-14.2,106-28.2,159-42.4
			c24.9-6.7,49.8-13.5,74.7-20.2c4.4-1.2,4.4-1.2,5.1,3.2C559.4,446,560.1,451,560.6,454.9z M401.8,494.3c0.1-3.4-2.5-6.3-5.6-6.4
			c-3.1-0.1-5.7,2.6-5.8,6.2c-0.1,3.3,2.2,6,5.3,6C399,500.3,401.7,497.8,401.8,494.3z"/>
		<path class="st3" d="M634.1,452.6c3.1,6.6,6.1,13,10,19c2.2,3.3,4.5,6.5,7,9.5c5.3,6.4,12.2,8.9,20.4,8.1c9-0.9,17.5-3.4,26.3-5.3
			c2.7-0.6,5.3-1.1,7.9-2c1.8-0.6,2.1,0,2.5,1.7c2,10.2,5.1,20,10.4,29.1c1.9,3.3,4.1,6.3,6.7,9.2c-8.8,8-19.4,12.3-30.9,14.3
			c-13.8,2.4-27.7,1.2-41.4-1.3c-3-0.5-6-1.2-9.1-1.4c-2-0.1-2.4-0.9-2.6-2.7c-1-11.7-2.9-23.4-4.9-35c-0.1-0.5-0.2-1-0.3-1.5
			c-0.2-0.6-0.5-1.2-1.3-1.1c-0.8,0.1-1.2,0.8-1.1,1.5c0.2,1.5,0.4,3,0.8,4.4c0.3,1.3-0.1,1.7-1.4,1.7c-11.2-0.1-20.7-3.5-26.8-13.7
			c-6.6-11.1-10.4-23.2-13.1-35.7c-3.6-16.6-5.4-33.5-6.7-50.4c-0.1-0.8,0-1.6-0.3-2.3c-0.3-0.8-0.7-1.6-0.1-2.1
			c0.7-0.5,1.4,0.4,2.1,0.7c9.2,4.1,11.3,12.5,12.8,21.2c0.8,4.8,1.7,9.5,2.7,14.2c0.6,3,2.4,4.5,5.2,4.8c3.3,0.4,5.1-1.1,5-4.4
			c-0.1-4.6-0.1-9.1,0.8-13.6c0.6-2.9,1.7-5.5,3.6-7.8c3.2-3.7,7.3-3.9,10.8-0.4c3.6,3.6,5.2,8.2,6,13.2c1.5,9.2,0.2,18-3.7,26.5
			c-0.8,1.8-1.7,3.5-3.2,4.7c-1.4,1.2-2.8,1.8-4.4,0.3c-0.7-0.7-1.8-1.2-2.5-0.1c-0.7,1.1,0.3,1.8,1.1,2.4c2.2,1.7,5.2,1.3,7.8-0.8
			C631.9,456.3,632.6,454.3,634.1,452.6z M630.4,432.6c0-4.3-0.6-8.4-2.7-12.2c-0.9-1.6-2-2.9-3.7-3.6c-0.8-0.3-1.6-0.4-2.1,0.4
			c-0.6,1,0.2,1.5,0.9,1.8c2.2,0.9,3,2.8,3.8,4.8c1.4,4,1.8,8,1.3,12.2c-0.4,3.6-1.3,7.1-2.9,10.4c-0.4,0.8-0.9,1.7,0.3,2.2
			c1.2,0.6,1.8-0.3,2.2-1.2c0.3-0.5,0.5-1.1,0.7-1.7C629.6,441.5,630.3,437.1,630.4,432.6z"/>
		<path class="st4" d="M221.8,551.5c-6.5-1.2-9.5-4.4-10.3-10.2c-2.7-21-5.6-42-8.3-63c-3.1-23.8-6.1-47.6-9.2-71.3
			c-3.8-28.6-7.6-57.1-11.3-85.7c-0.6-4.3-1.1-8.5-1.3-12.8c-0.2-6.8,3.3-11.7,9.9-13.5c17.6-4.8,35.2-9.4,52.9-14
			c50.6-13.3,101.2-26.6,151.8-39.8c30.2-7.9,60.5-15.8,90.8-23.6c6.8-1.8,13.6-3.6,20.4-5.4c3.7-1,6.1-0.7,9.7,1.1
			c-3.6,1.6-7.3,2.2-10.9,3.2c-33,8.7-66,17.4-99.1,26c-31.9,8.3-63.9,16.6-95.8,25c-37.2,9.8-74.3,19.6-111.5,29.4
			c-6.7,1.8-10.8,7.7-9.9,14.8c1.7,13.9,3.4,27.7,5.1,41.6c2.5,20,5.1,39.9,7.7,59.8c3.3,25.2,6.6,50.5,9.9,75.8
			c2.4,18.5,4.7,36.9,6.9,55.4C219.7,546.8,220.3,549.1,221.8,551.5z"/>
		<path class="st3" d="M360.2,608.7c-0.3-1,0.1-1.6,0.5-2.2c3-5.4,11.2-9.3,17.3-8.2c4.2,0.8,8.1,2.3,12,3.8
			c0.9,0.3,2.1,1.2,2.7-0.4c0.5-1.4-0.8-1.8-1.7-2.1c-5.5-1.9-10.8-4.1-17.1-4.1c2.9-3.6,6-5.7,10.4-4.9c5.7,1,11.3,2.7,16.7,4.5
			c0.7,0.2,1.3,0.5,2,0.8c1,0.4,1.7,0.3,2.1-0.8c0.4-1.1-0.4-1.4-1.2-1.7c-3.3-1.2-6.6-2.4-10-3.2c-0.7-0.1-1.4,0-2-0.9
			c3.7-2,7.5-2.3,11.4-1.4c6.3,1.5,11.8,4.4,16.3,9.1c4.3,4.4,8.7,8.7,13,13.1c0.6,0.6,1.3,1.9,2.3,0.8c0.9-0.9,0.1-1.8-0.6-2.5
			c-3.9-4-7.8-8.1-11.7-12.1c-0.8-0.8-1.8-1.3-2-2.7c1.5-0.3,2.6,0.5,3.6,1.3c8.6,6.8,15.5,15.1,19.9,25.3
			c2.2,5.3,4.2,10.8,5.6,16.4c0.7,3,0.7,3-2.1,3c-7.9-0.2-15.7,0.5-23.1,3.3c-3.4,1.3-6.8,2.8-9.7,5.2c-1.4,1.2-2.6,2.4-3.8-0.4
			c-0.7-1.6-2.7-2-4.5-2.6c-9.4-2.8-16.6-8.9-22.9-16.2c-4.2-4.9-8.7-9.5-14.9-11.8c-1.9-0.7-4-0.6-6,0c-2.5,0.8-5.1,1.5-7.6,2.3
			c-1.1,0.3-2.1,0.1-2.5-0.8c-0.4-0.8-0.1-1.6,0.8-2.5c7.2-7,15.3-9.2,24.8-5.1c1.3,0.6,2.6,1,3.9,1.5c0.8,0.3,1.6,0.3,2-0.7
			c0.3-0.9-0.2-1.5-1-1.8c-1.9-0.7-3.7-1.6-5.7-2.1C371.6,606.5,365.8,605.5,360.2,608.7z"/>
		<path class="st2" d="M315.7,548.2c5-1.3,9.9-2.7,14.9-4c23.6-6.4,47.2-12.8,70.9-19.2c0.9-0.2,1.6-0.3,2.5,0.1
			c12.2,6.2,24.5,12.1,37,17.7c1,0.4,2.5,0.6,2.5,2c0,1.6-1.7,1.6-2.8,2c-21.1,6.4-42.4,11.9-63.6,17.9c-6,1.7-12,3.3-18,5
			c-4.6,1.3-8.9,0.8-13.1-1.8c-10-6.4-20.2-12.6-30.4-18.9C315.7,548.7,315.7,548.5,315.7,548.2z"/>
		<path class="st4" d="M200.4,309.2c-0.2-1.1,1.1-1.4,2.3-1.7c13.9-3.7,27.8-7.4,41.8-11c22.5-5.9,45-11.8,67.5-17.7
			c42.9-11.3,85.8-22.6,128.7-33.8c26.2-6.9,52.5-13.6,78.8-20.5c2.3-0.6,3-0.2,3.3,2.2c3.9,30.1,7.8,60.3,11.8,90.4
			c3.5,26.7,7,53.5,10.5,80.2c1.3,9.7,2.5,19.3,3.8,29c0.3,2.1-0.3,2.9-2.3,3.4c-50.5,13.5-100.9,27-151.4,40.5
			c-31,8.3-62.1,16.5-93.1,24.9c-24.1,6.5-48.1,13-72.2,19.6c-2,0.5-2.6,0.1-2.9-1.9c-2.5-19.2-5-38.3-7.5-57.5
			c-3.1-23.6-6.2-47.2-9.3-70.8c-2.6-19.9-5.1-39.7-7.7-59.6C201.9,320,201.2,315,200.4,309.2z M272.7,292.3
			c0.1,0.5,0.1,0.8,0.1,1.1c2.4,18.6,4.8,37.3,7.2,55.9c3.4,26.2,6.8,52.4,10.2,78.6c2.7,21,5.5,42,8.2,63c0.4,3.2,0.4,3.2,3.5,2.4
			c19.8-5.4,39.5-10.7,59.2-16c34-9.1,68-18.1,102-27.2c27.1-7.2,54.3-14.5,81.4-21.7c1.8-0.5,2.7-0.9,2.4-3.3
			c-2.8-19.8-5.4-39.7-8-59.5c-3.3-25.4-6.6-50.9-9.9-76.3c-2.6-19.9-5.3-39.9-7.9-59.8c-0.5-3.6-0.4-3.6-3.8-2.7
			c-27.9,7.5-55.9,14.7-83.8,22c-39.8,10.3-79.5,20.9-119.2,31.4c-13.2,3.5-26.3,6.9-39.5,10.3C274,290.8,272.5,290.7,272.7,292.3z
			 M297,493.4c-0.1-0.5-0.1-1-0.2-1.6c-4.4-32.7-8.8-65.4-13-98.2c-4.3-33.1-8.5-66.2-12.6-99.3c-0.3-2.2-0.9-2.6-2.9-2.1
			c-21.2,5.6-42.4,11.1-63.7,16.6c-1.8,0.5-2.4,1.3-2.1,3.1c0.8,4.8,1.4,9.5,2,14.3c2.9,22.5,5.9,45.1,8.8,67.6
			c2.9,22.5,5.8,44.9,8.7,67.4c2.1,16.4,4.3,32.7,6.4,49.1c0.3,2.2,1,2.6,3.1,2c11.8-3.3,23.7-6.4,35.6-9.6
			c9.2-2.5,18.3-4.9,27.5-7.4C295.7,495.2,297.3,495.3,297,493.4z"/>
		<path class="st3" d="M863.7,616.3c17-4.2,33.6-8.3,50.2-12.4c20.5-5,40.9-10,61.4-15.1c2-0.5,2.5-0.4,2.5,1.9
			c-0.2,7.2-0.3,14.4-0.3,21.6c0,1.5-0.5,2.1-1.9,2.5c-24.6,6-49.3,12-73.9,18.1c-1.2,0.3-1.9,0.2-2.8-0.7
			c-9.5-9.5-20.7-15.3-34.3-15.7C864.3,616.6,864.2,616.5,863.7,616.3z"/>
		<path class="st0" d="M463.7,653.8c-1.8-3.3-3.7-6.6-5.8-9.7c-1-1.4-1.9-2.6-3.6-3c-2.5-0.7-2.3-3.2-2.7-5
			c-0.2-1.4,1.7-1.2,2.6-1.5c8.4-2.5,16.8-4.8,25.2-7.2c16.5-4.8,33-9.6,49.5-14.4c0.4-0.1,0.8-0.2,1.7-0.3
			c-5.8,8.5-11.3,16.7-16.8,24.9c-9.6,14-20.5,27-31.1,40.2c-2.2,2.8-2.2,2.7-4-0.3c-3.8-6.6-7.7-13.2-12-19.5
			C465.7,656.4,464.2,655.4,463.7,653.8C463.7,653.7,463.7,653.8,463.7,653.8z"/>
		<path class="st3" d="M515.4,561.9c5.6-6.2,11.9-10.6,20.9-10c6.1,0.4,12,1.3,18,2.5c0.3,0,0.5,0.1,0.8,0.2c1,0.2,2.1,0.4,2.4-0.9
			c0.3-1.3-0.8-1.5-1.8-1.7c-3.7-0.6-7.4-1.2-11.2-1.9c-0.7-0.1-1.4,0.1-2.1-0.8c1.4-1.2,3.1-1.3,4.8-1.5c9.8-1,19,1.7,27.8,5.5
			c3.6,1.6,7.1,3.2,10.7,5.6c-7.4,3.7-14.1,8.1-20.2,13.2c-8.1,6.8-15.4,14.3-21.8,22.8c-2.8,3.8-3.5,4.2-7.2,1.6
			c-4.4-3.2-9.5-5.1-13.8-8.2c-1.3-0.9-2.9-1.7-2.5-3.5c0.4-1.7,2-2.2,3.7-2.7c3.5-1.1,6.5,0.6,9.5,1.8c3,1.2,6,2.7,9.3,3.1
			c2.1,0.2,3.9-0.1,5-2.1c1.1-2,0-3.5-1.4-4.8c-4.5-3.8-9.9-6-15-8.6c-5.1-2.6-9.3,0.1-13.8,1.9c-3.6,1.5-7.2,2.9-11.2,2.8
			c-2.5,0-3-0.8-1.5-2.9c2.6-3.8,6.5-6,10.5-8.1c0.3-0.2,0.7-0.2,1-0.4c8.3-5.5,17.2-5.3,26.3-3c1.2,0.3,2.4,0.5,3.6,0.7
			c0.8,0.2,1.6,0.1,1.8-1c0.2-1.1-0.6-1.3-1.4-1.5c-10.2-2.3-20.5-4.9-30.2,2c-0.1,0.1-0.3,0.1-0.5,0.1
			C515.7,562.2,515.6,562,515.4,561.9z"/>
		<path class="st2" d="M312.6,542.2c-0.3-1.8,1.2-1.8,2.3-2.1c12-3.2,23.9-6.3,35.9-9.6c14.7-4,29.3-8,44-11.9
			c2.7-0.7,5,0.7,5.4,3.5c0.3,1.5-1.1,1.2-1.7,1.4c-7.9,2.2-15.8,4.2-23.6,6.3c-19.6,5.3-39.3,10.7-58.9,16.1
			C313.4,546.6,312.6,545.8,312.6,542.2z"/>
		<path class="st3" d="M529.4,787.3c-0.4,4.5-2.3,8.6-3.6,12.8c-1.9,6.1-3.9,12.2-6,18.2c-0.2,0.6,0,2-1.6,1.1
			c-6.6-3.9-13.3-7.8-20.2-11.8c4.8-2.7,9.4-5.3,13.8-8.1c5.5-3.5,10.7-7.6,16.1-11.4C528.4,787.8,528.7,787.1,529.4,787.3
			L529.4,787.3z"/>
		<path class="st2" d="M624.6,542.5c0.2-0.4,0.5-0.8,1.1-0.8c20.1,6.3,40.2,12.8,61.8,11c20.1-1.7,37.9-8.6,52.5-22.9
			c1.8-1.7,3.2-3.7,4.8-5.5c0.4-0.5,0.8-1.4,1.6-0.7c0.6,0.5,0.6,1.3,0.1,1.9c-0.5,0.6-1,1.3-1.5,1.8c-12.2,14-27.6,22.2-45.7,25.8
			c-16.4,3.3-32.5,2.2-48.5-1.9c-8.1-2-16.1-4.4-24-7C625.9,544,624.8,543.8,624.6,542.5z"/>
		<path class="st2" d="M606.8,704.5c-0.4,0.6-1,1.4-1.5,2.2c-16.8,22.7-35.4,43.8-56,63.2c-5.2,4.9-10.7,9.7-16,14.5
			c-0.5,0.5-1.1,0.9-1.6,1.3c-0.6,0.5-1.2,0.9-1.8,0.2c-0.8-0.9,0-1.4,0.5-2c0.2-0.3,0.5-0.5,0.8-0.7c15.4-12.7,29.6-26.7,42.9-41.5
			c10.7-11.9,21-24.1,30.3-37.1c0.5-0.7,0.8-1.7,2-1.3C606.7,703.4,606.9,703.8,606.8,704.5z"/>
		<path class="st2" d="M355.4,656c-0.2,1.3-1,1.3-1.7,0.8c-1.3-0.9-2.5-1.9-3.8-2.8c-17.1-13-34.7-25.4-52.3-37.7
			c-0.9-0.7-1.8-1.3-2.7-2.1c-0.4-0.3-0.7-0.8-0.3-1.4c0.4-0.5,0.9-0.5,1.4-0.2c0.5,0.3,0.9,0.5,1.4,0.8
			c18.9,13.3,37.8,26.8,56.3,40.8C354.3,654.8,355.1,655.2,355.4,656z"/>
		<path class="st2" d="M445.8,732.5c1.5-6.3,3.7-12.3,6.8-17.9c6.5-12,15.3-22.2,24.8-32c0.2-0.2,0.5-0.5,0.8-0.7
			c0.6-0.5,1.1-0.8,1.8-0.1c0.8,0.9-0.1,1.2-0.5,1.7c-2.8,3-5.6,5.8-8.3,8.8c-7.2,8.2-13.8,16.8-18.5,26.8c-2,4.4-3.6,9-4.5,13.7
			c-0.1,0.7-0.1,1.7-1.4,1.5C445.7,734.1,445.6,733.3,445.8,732.5z"/>
		<path class="st2" d="M463.7,653.8L463.7,653.8c-0.5,1.8-1.8,1.6-3.4,1.2c-14.1-3.4-27.5-1.5-40.1,5.8c-4,2.4-7.7,5.3-10.8,8.8
			c-0.6,0.7-1.3,2.2-2.4,1.1c-1-0.9,0.1-2,0.8-2.7c8.6-9.1,19.1-14.4,31.4-16.2c7.2-1.1,14.4-0.6,21.5,0.9
			C461.8,653,462.8,653.4,463.7,653.8z"/>
		<path class="st2" d="M447.5,620.1c-0.5-0.1-1.1,0.2-1.3-0.6c-0.1-0.7,0.3-0.9,0.8-1.1c1.1-0.3,2.2-0.7,3.3-1c15-4.5,30-9,45-13.5
			c0.4-0.1,0.9-0.2,1.2-0.4c0.7-0.3,1.5-0.4,1.7,0.5c0.3,1-0.6,1.1-1.2,1.3c-4.3,1.3-8.6,2.6-12.8,3.8c-11.8,3.5-23.5,7-35.3,10.5
			C448.5,619.8,448,620,447.5,620.1z"/>
		<path class="st2" d="M361.6,620.2c0.7-0.1,1.3,0,1.4,0.8c0.1,1-0.9,0.9-1.5,1.1c-6.3,1.9-12.6,3.7-18.9,5.6
			c-2.5,0.8-5,1.6-7.5,2.4c-0.8,0.2-1.7,0.5-2-0.6c-0.3-1.2,0.7-1.1,1.5-1.4c5.5-1.7,11-3.8,16.6-5.1
			C354.6,622.1,358,620.9,361.6,620.2z"/>
		<path class="st2" d="M344.4,638.1c-0.6,0-1.3,0.1-1.5-0.7c-0.2-1,0.5-1.1,1.2-1.3c7.5-2.2,14.9-4.4,22.4-6.6
			c0.5-0.2,1-0.3,1.5-0.3c0.6,0,1.4-0.2,1.5,0.6c0.1,0.7-0.5,0.8-1,1c-7.9,2.4-15.7,4.8-23.6,7.2
			C344.7,638.1,344.5,638.1,344.4,638.1z"/>
		<path class="st2" d="M324.5,621.5c-1.1,0.2-1.7,0-1.8-0.7c-0.1-0.7,0.3-0.9,0.8-1.1c5.9-1.7,11.8-3.4,17.7-5.1
			c0.6-0.2,1.4-0.4,1.5,0.5c0.2,0.8-0.6,1.2-1.3,1.4c-3.2,1-6.4,1.9-9.6,2.8C329.3,620,326.7,620.8,324.5,621.5z"/>
		<path class="st2" d="M484.6,587c-1.6,0.2-2.3-0.5-2.4-1.3c-0.2-1.2,1-0.7,1.5-0.9c2.6-0.7,5.2-1.3,7.8-2.1c1.2-0.3,2,0,2.2,1
			c0.3,1.2-0.9,1.1-1.5,1.2C489.5,585.7,486.8,586.4,484.6,587z"/>
		<path class="st2" d="M496.5,591.8c3.3-0.3,6.3-1.3,9.3-2.2c1.1-0.3,2.1-0.3,2.4,0.8c0.4,1.3-1,1.1-1.7,1.3
			c-2.2,0.7-4.5,1.2-6.8,1.9C498,594.1,496.9,593.7,496.5,591.8z"/>
		<path class="st2" d="M449.4,595c3.5-0.7,6.6-1.4,9.7-2.6c0.8-0.3,2-0.5,2.4,0.9c0.4,1.6-1,1-1.6,1.2c-2.5,0.8-5,1.4-7.5,2.2
			C450.8,597.2,450.4,595.8,449.4,595z"/>
		<path class="st2" d="M465.9,590.1c3.4-0.9,6.8-1.8,10.1-2.6c1-0.3,1.8,0.3,2,1.2c0.2,1.1-0.9,0.8-1.5,0.9
			c-2.5,0.7-5.1,1.2-7.5,2.1C467.3,592.3,466.5,591.7,465.9,590.1z"/>
		<path class="st2" d="M356.4,600.5c0.8,0.2,1.8,0,1.9,1.1c0.1,1-0.8,0.9-1.5,1.1c-2.6,0.7-5.2,1.3-7.8,2c-0.9,0.2-2,0.4-2.3-0.6
			c-0.4-1.4,1-1,1.7-1.3C351.1,602,353.8,601.3,356.4,600.5z"/>
		<path class="st2" d="M447.8,606.4c3.4-0.5,6.5-1.6,9.7-2.4c0.9-0.2,2.1-0.7,2.4,0.6c0.3,1.3-1,1.2-1.8,1.4c-2.3,0.7-4.8,1.2-7,2
			C449.4,608.6,448.6,607.8,447.8,606.4z"/>
		<path class="st2" d="M448.5,576.3c-0.6,0-1.1-0.3-1.3-1.1c-0.2-0.9,0.5-1,1.1-1.1c2.5-0.7,5-1.5,7.5-2.2c0.8-0.2,1.6-0.3,1.9,0.7
			c0.5,1.2-0.6,1.2-1.3,1.4C453.9,574.7,451.3,575.5,448.5,576.3z"/>
		<path class="st2" d="M367.1,642.4c0,0.7-0.6,0.8-1.1,0.9c-3.2,0.5-6.2,1.7-9.3,2.7c-0.7,0.2-1.6,0.8-2-0.2
			c-0.6-1.4,0.7-1.4,1.5-1.6c2.9-0.9,5.8-1.8,8.8-2.7C365.8,641.2,366.9,641,367.1,642.4z"/>
		<path class="st2" d="M463.9,601.4c3.3-0.3,6.3-1.2,9.4-2c0.8-0.2,1.5-0.5,2.3-0.2c0.5,0.2,0.7,0.5,0.8,1c0.1,0.5-0.3,0.8-0.7,0.9
			c-3,0.8-6.1,1.6-9.2,2.3C464.9,603.7,464.5,602.4,463.9,601.4z"/>
		<path class="st2" d="M514.7,598.4c0.7-0.2,1.2,0.1,1.5,0.7c0.3,0.8-0.4,1-1,1.2c-3.1,0.9-6.2,1.7-9.3,2.7c-1,0.3-1.6,0-1.9-0.9
			c-0.3-1.2,0.8-0.9,1.4-1C508.5,600.1,511.6,599.3,514.7,598.4z"/>
		<path class="st2" d="M484.8,573.3c3-0.8,5.8-1.7,8.6-2.4c0.8-0.2,2-0.8,2.4,0.7c0.3,1.4-1,1.1-1.7,1.3c-2,0.7-4,1-5.9,1.8
			C486.4,575.4,485.5,574.9,484.8,573.3z"/>
		<path class="st2" d="M416,585.3c-0.3,0-0.6-0.5-0.8-1.1c-0.2-0.7,0.4-0.9,0.9-1c2.9-0.9,5.9-1.8,8.8-2.6c0.7-0.2,1.4-0.4,1.7,0.6
			c0.2,0.6,0.1,1.1-0.5,1.3C422.9,583.4,419.7,584.2,416,585.3z"/>
		<path class="st2" d="M480.2,576.7c0,0.6-0.4,0.8-0.9,0.9c-2.9,0.7-5.8,1.3-8.6,2.4c-0.9,0.3-1.5,0-1.8-1c-0.3-1.2,0.7-0.9,1.3-1.1
			c2.5-0.8,5-1.5,7.5-2.3C479,575.3,480,575.2,480.2,576.7z"/>
		<path class="st2" d="M438.3,588.8c-0.8,0.2-1.3-0.2-1.5-1c-0.3-0.9,0.5-0.9,1.1-1.1c2.6-0.7,5.2-1.4,7.8-2.2
			c0.9-0.3,1.6-0.3,1.9,0.7c0.3,1-0.5,1.1-1.2,1.3C443.7,587.3,441,588.1,438.3,588.8z"/>
		<path class="st2" d="M509,580c-3.4,0.9-6.7,1.9-10,2.7c-0.9,0.2-1.6-0.7-1.7-1.7c-0.1-1.1,0.8-0.9,1.5-0.9c2.8-0.1,5.5-1.4,8.3-1
			C507.7,579,508.4,578.8,509,580z"/>
		<path class="st2" d="M445,598.1c0.1,0.8-0.5,0.8-1,0.9c-2.8,0.4-5.5,1-8.1,2c-0.9,0.4-1.5-0.1-1.8-1c-0.2-1,0.6-1.1,1.3-1.3
			c2.5-0.6,4.9-1.2,7.4-1.8C443.9,596.7,444.7,597,445,598.1z"/>
		<path class="st2" d="M464,571.7c-0.4,0-1.1-0.2-1.2-1c-0.1-0.8,0.6-0.9,1.2-1.1c2.5-0.7,5-1.4,7.5-2.1c1-0.3,2-0.4,2.3,0.9
			c0.2,1.2-1,1-1.6,1.2C469.6,570.2,467,570.9,464,571.7z"/>
		<path class="st2" d="M383.4,636.2c0.2,0,0.8,0.2,0.9,0.9c0.2,0.9-0.6,0.9-1.1,1.1c-2.8,0.8-5.5,1.5-8.3,2.3
			c-0.8,0.2-1.6,0.3-1.8-0.8c-0.2-1.1,0.6-1,1.3-1.2C377.2,637.8,380.1,637.1,383.4,636.2z"/>
		<path class="st2" d="M492.1,595.1c-0.1,0.8-0.6,1-1.1,1.1c-2.7,0.8-5.4,1.6-8,2.5c-0.9,0.3-1.6,0.1-1.9-0.8
			c-0.5-1.2,0.6-1.2,1.3-1.4c2.5-0.7,5.1-1.3,7.6-2C490.9,594.3,491.6,594.3,492.1,595.1z"/>
		<path class="st2" d="M462.3,580.1c0.9-0.1,1.4,0.2,1.5,1.1c0.2,0.9-0.5,0.9-1.1,1.1c-2.7,0.7-5.4,1.3-8.1,2
			c-0.8,0.2-1.7,0.3-1.9-0.7c-0.2-1,0.7-1,1.3-1.2C456.8,581.5,459.5,580.8,462.3,580.1z"/>
		<path class="st2" d="M503.2,558.6c1.2-0.1,1.7,0.1,1.9,0.8c0.2,0.8-0.5,1-1.1,1.1c-2.5,0.7-5.1,1.3-7.6,2c-0.9,0.2-1.7,0.2-2-0.7
			c-0.4-1.3,0.7-1.1,1.4-1.3C498.5,559.9,501.1,559.2,503.2,558.6z"/>
		<path class="st2" d="M441.2,576c0.3-0.1,0.8,0.2,1,0.9c0.3,0.9-0.3,1.2-1.1,1.4c-2.5,0.7-5,1.4-7.5,2.1c-0.8,0.2-1.4,0.1-1.7-0.7
			c-0.4-1.1,0.5-1.1,1.1-1.2C435.7,577.7,438.2,576.9,441.2,576z"/>
		<path class="st2" d="M480.2,567.1c-0.9,0.2-1.2-0.3-1.4-1c-0.2-0.8,0.5-0.7,1-0.8c2.6-0.8,5.2-1.5,7.8-2.3
			c0.7-0.2,1.4-0.3,1.7,0.6c0.2,0.7,0.1,1.2-0.6,1.4C485.8,565.7,483,566.4,480.2,567.1z"/>
		<path class="st2" d="M323.1,609.9c1.2-0.1,2-0.1,2.2,0.6c0.2,0.7-0.5,1-1.1,1.2c-2.9,0.8-5.7,1.7-8.6,2.5
			c-0.7,0.2-1.5,0.4-1.8-0.6c-0.2-0.7,0.3-1,0.8-1.1C317.6,611.6,320.6,610.7,323.1,609.9z"/>
		<path class="st2" d="M332.2,609.2c-0.4,0-0.8-0.2-1-0.8c-0.2-0.7,0.3-0.9,0.8-1.1c2.8-0.8,5.5-1.7,8.3-2.5c0.6-0.2,1.3,0,1.4,0.7
			c0.1,0.6-0.3,1-0.8,1.2C338.1,607.6,335.3,608.4,332.2,609.2z"/>
		<path class="st2" d="M519.3,554.8c-0.1,0.7-0.5,0.9-1.1,1c-2.1,0.7-4.3,1.5-6.4,2.2c-1,0.4-1.8,0.1-2.1-1c-0.2-1,0.7-1,1.3-1.2
			c2-0.5,4.1-1.1,6.1-1.6C517.9,554.2,518.7,553.9,519.3,554.8z"/>
		<path class="st2" d="M422.2,591.3c2.7-0.8,5.2-1.5,7.7-2.2c1-0.3,1.5,0.1,1.8,1c0.4,1.1-0.6,1-1.2,1.2c-1.9,0.5-3.7,0.9-5.6,1.3
			C423.9,592.8,423,592.5,422.2,591.3z"/>
		<path class="st2" d="M522.9,598.1c-0.7,0-1.3-0.1-1.4-0.9c-0.1-0.7,0.5-0.8,1-1c2-0.5,4-1,6-1.6c0.8-0.2,1.5,0,1.7,0.7
			c0.3,1.1-0.7,1-1.3,1.1C527,597,524.9,597.6,522.9,598.1z"/>
		<path class="st2" d="M508.1,566.6c-1.4,2.1-3.4,3.1-5.6,3.9c-1.1,0.4-1.9-0.2-2.1-1.3c-0.3-1.3,0.9-0.9,1.5-1.1
			C503.9,567.5,506,567.1,508.1,566.6z"/>
		<path class="st2" d="M356.5,610.8c-1.2,2.3-3.6,2.4-5.4,3.5c-0.5,0.3-1.2-0.2-1.3-0.9c-0.1-0.5,0-1.1,0.6-1.3
			C352.3,611.6,354.1,610.3,356.5,610.8z"/>
		<path class="st2" d="M515.6,586.9c0.7,0.1,1.4,0,1.9,0.2c0.4,0.2,0.9,0.7,1,1.1c0.1,0.6-0.6,0.7-1.1,0.8c-0.4,0.1-0.9,0.1-1.3,0.2
			c-1,0.2-2,0.9-2.8-0.4c-0.2-0.3-0.6-1-0.5-1.1C513.6,586.8,514.8,587,515.6,586.9z"/>
		<path class="st2" d="M377,628.2c-1.7,0.2-2.3-0.9-2.8-1.8c-0.2-0.4,0.2-0.7,1.3-0.5c1.2,0.2,2.9-0.4,3.1,1.5
			C378.7,628.3,377.5,628.1,377,628.2z"/>
		<path class="st2" d="M367.3,597.4c-1.1,1.8-2.2,2.8-4,2.5c-0.4-0.1-1-0.7-0.7-0.9C363.7,597.8,365.3,597.5,367.3,597.4z"/>
		<path class="st2" d="M406.4,586.2c0.9-0.7,1.9-0.7,2.9-0.9c0.7-0.1,1.2,0.3,1.2,1c0.1,0.8-0.6,1-1.2,1
			C408.2,587.3,407.1,587.3,406.4,586.2z"/>
		<path class="st2" d="M444,609.3c-0.1,1.1-1,1.1-1.6,1.1c-0.8,0.1-1.4-0.5-1.4-1.2c-0.1-1.1,0.9-1.2,1.7-1.2
			C443.5,608.1,443.8,608.7,444,609.3z"/>
		<path class="st3" d="M515.9,562.3c-0.2,0.1-0.4,0.1-0.6,0.2c0-0.2,0-0.4,0.1-0.6C515.6,562,515.7,562.2,515.9,562.3z"/>
		<path class="st3" d="M529.5,787.3c0-0.1,0.1-0.2,0.1-0.3c0.1,0.1,0.1,0.2,0.2,0.2C529.7,787.2,529.6,787.3,529.5,787.3
			C529.4,787.3,529.5,787.3,529.5,787.3z"/>
		<path class="st2" d="M249.3,625.2c-1.3,9-2.6,18.1-3.8,27.2c-1.2,8.3-2.4,16.5-3.4,24.8c-0.6,4.7-2.7,7.9-7.1,9.6
			c-12.5,4.8-24.9,4.5-37.2-0.6c-3.9-1.6-6-4.6-6.7-9c-2.7-17.3-4.7-34.6-7.4-51.9c0-0.2,0.1-0.3,0-0.1
			C205.6,635.7,227.4,635.5,249.3,625.2z"/>
		<path class="st3" d="M216.7,605.8c8.4,0,16.6,1,24.5,4.2c2.9,1.2,5.6,2.7,7.5,5.2c1.2,1.6,2,3.3,0.9,5.4c-1.5,2.8-2.7,3.1-5.2,1.4
			c-5.9-4.1-12.8-5.3-19.7-5.9c-9.9-0.8-19.7-0.4-29.1,3c-2.2,0.8-4.3,1.6-6.2,2.8c-1.2,0.8-2.2,2.1-3.8,0.5c-1.5-1.6-3.1-3-2.1-5.5
			c0.9-2.3,2.6-3.8,4.6-4.9c5.4-3.2,11.4-4.5,17.5-5.4C209.1,605.9,212.9,605.7,216.7,605.8z"/>
		<path class="st3" d="M250.8,635.4c0-5.5-0.4-5.4,4.9-5.7c6.1-0.2,11,3.6,12.7,9.4c3.5,11.9-3.6,25.1-14.9,27.6
			c-1.2,0.3-2.4,0.4-3.6,0.4c-3.9,0-3.9,0-3.3-3.9c0.2-1.2,0.5-1.6,1.8-1.4c13,1.3,18.1-12.2,15.9-20.3c-1.2-4.3-4.1-6.5-8.6-6.7
			C254.1,634.7,252.5,635,250.8,635.4z"/>
		<path class="st3" d="M248.7,648.5c0.6-3.1,0.8-6.3,1.3-9.5c0.1-0.5,0.4-0.8,0.8-0.9c5.7-1.6,10.6-0.4,11.5,5.7
			c1.1,7.8-4.2,15-11.7,15.7c-3.2,0.3-3.5,0-3.1-3.2C248,653.7,248.4,651,248.7,648.5z"/>
		<path class="st3" d="M411.1,869.8c0.1,0.2,0.5,0.4,0.2,0.8c-0.3,0.3-0.5-0.1-0.7-0.3C410.8,870.1,411,870,411.1,869.8z"/>
		<path class="st1" d="M401.8,494.3c-0.1,3.4-2.7,6-6.1,5.8c-3.1-0.1-5.4-2.8-5.3-6c0.1-3.6,2.7-6.3,5.8-6.2
			C399.3,488,401.9,490.9,401.8,494.3z"/>
		<path class="st1" d="M630.4,432.6c-0.1,4.5-0.8,8.9-2.3,13.2c-0.2,0.6-0.4,1.2-0.7,1.7c-0.5,0.9-1,1.8-2.2,1.2
			c-1.2-0.6-0.6-1.5-0.3-2.2c1.6-3.3,2.5-6.8,2.9-10.4c0.5-4.2,0.1-8.2-1.3-12.2c-0.7-2-1.6-3.9-3.8-4.8c-0.8-0.3-1.5-0.8-0.9-1.8
			c0.5-0.8,1.3-0.7,2.1-0.4c1.7,0.7,2.8,2,3.7,3.6C629.8,424.2,630.4,428.3,630.4,432.6z"/>
		<path class="st1" d="M272.7,292.3c-0.1-1.6,1.3-1.5,2.3-1.8c13.2-3.5,26.3-6.9,39.5-10.3c39.7-10.5,79.4-21,119.2-31.4
			c28-7.3,55.9-14.4,83.8-22c3.3-0.9,3.3-0.9,3.8,2.7c2.6,19.9,5.3,39.9,7.9,59.8c3.3,25.4,6.5,50.9,9.9,76.3
			c2.6,19.9,5.2,39.7,8,59.5c0.3,2.4-0.6,2.8-2.4,3.3c-27.2,7.2-54.3,14.5-81.4,21.7c-34,9.1-68,18.1-102,27.2
			c-19.8,5.3-39.5,10.7-59.2,16c-3.1,0.8-3.1,0.8-3.5-2.4c-2.7-21-5.5-42-8.2-63c-3.4-26.2-6.8-52.4-10.2-78.6
			c-2.4-18.6-4.8-37.3-7.2-55.9C272.8,293.1,272.7,292.8,272.7,292.3z M481.3,371.6c0,2.9,0.2,5.6,1.2,8.2
			c2.8,7.4,7.3,12.9,15.5,14.2c7.5,1.2,13.4-1.9,18-7.6c6-7.5,6.5-19.9,1.4-28.1c-7-11.2-20.9-13-29.5-3.5
			C483.5,359.5,481.2,365.2,481.3,371.6z M476.2,337.8c-1.4-7.5-2.8-15-4.1-22.4c-0.2-1.2-0.8-1-1.7-0.8c-8.5,2.2-17,4.4-25.5,6.5
			c-1,0.3-1.5,0.7-1.3,1.8c1.3,7.3,2.6,14.7,3.8,22c0.2,1.5,0.8,1.4,1.9,1.1c8.4-2.2,16.8-4.3,25.2-6.4
			C475.6,339.3,476.6,339,476.2,337.8z M455.4,411.7c0.4-0.4,0.9-0.7,1.2-1.1c3.7-4.5,7.3-9,11-13.5c0.9-1,0.5-1.6-0.3-2.4
			c-3.6-3.7-7.3-7.4-10.8-11.2c-1.3-1.4-2.1-1.4-3.3,0.1c-3.3,3.9-6.7,7.7-10.1,11.5c-1,1.1-1,1.8,0,2.9c3.7,4.1,7.3,8.3,10.9,12.5
			C454.4,410.9,454.9,411.2,455.4,411.7z M483,308.5c0.2-0.1,0.5-0.3,0.7-0.5c3.4-3,6.8-6,10.3-9c0.9-0.8,0.6-1.5,0-2.3
			c-2.8-3.9-5.6-7.8-8.4-11.8c-0.6-0.9-1.1-1.1-2-0.3c-3.2,3-6.4,6-9.6,8.9c-0.7,0.6-0.9,1.1-0.3,1.9c2.7,4,5.3,8,8,12
			C482,308,482.2,308.5,483,308.5z M438.4,275.8c0-5.7-3.8-10-8.7-10c-4.8,0.1-8.8,4.6-8.8,10c0.1,5.6,3.8,9.6,8.7,9.6
			C434.6,285.4,438.4,281.2,438.4,275.8z M360,452.9c0.9-0.2,1.7-0.4,2.5-0.6c6.6-1.7,13.2-3.5,19.9-5.2c7.7-2,15.5-4,23.2-6.1
			c0.8-0.2,2.1,0,1.9-1.6c-0.2-1.6-0.5-2.5-2.6-2c-11.9,3.2-23.9,6.3-35.9,9.4c-3.1,0.8-6.1,1.5-9.2,2.3c-1.2,0.3-1.3,1-1,2
			C359,451.9,358.8,453.1,360,452.9z M370.7,380c-0.1,1.9,1,1.9,2.4,1.5c13.6-3.5,27.2-7.1,40.8-10.6c1.1-0.3,2-0.5,1.6-2.1
			c-0.4-1.4-1.2-1.5-2.4-1.2c-13.7,3.5-27.3,7.1-41,10.6C371.1,378.5,370.5,378.9,370.7,380z M517.2,318.6c0-3.9-2.9-7.3-6.2-7.3
			c-3.4,0-6.5,3.5-6.4,7.4c0.1,3.5,2.9,6.6,6.2,6.6C514.4,325.3,517.3,322.2,517.2,318.6z M385.4,366.4c-0.4-1.1-0.1-2.6-2.3-2
			c-11.1,3-22.2,5.8-33.4,8.6c-1.1,0.3-1.6,0.7-1.2,2c0.4,1.2,0.7,1.8,2.1,1.4c11.1-2.9,22.2-5.8,33.4-8.7
			C384.7,367.5,385.5,367.5,385.4,366.4z M382.1,432.4c-0.6,0.1-0.8,0.2-1.1,0.2c-9.8,2.5-19.5,5-29.2,7.4c-1.6,0.4-1.8,1.2-1.6,2.7
			c0.3,1.8,1.4,1.1,2.4,0.9c8.6-2.2,17.3-4.5,25.9-6.8c1.4-0.4,2.7-0.7,4-1.1c1.3-0.4,0.7-1.4,0.6-2.2
			C383,432.9,382.8,432.2,382.1,432.4z M376.9,340.6c0.1-2.3-0.8-3.1-3-2.5c-6.7,1.9-13.4,3.9-20,5.7c-1.1,0.3-1.9,0.6-1.4,1.8
			c0.4,0.8,0.4,2.1,2.3,1.6c6.9-2,13.9-3.7,20.8-5.5C376.1,341.7,377,341.7,376.9,340.6z M361.5,332.3c0.4,0.5-0.4,2.5,1.6,1.9
			c8.4-2.3,16.9-4.7,25.3-7c1.2-0.3,1.5-0.9,1.2-2.1c-0.4-1.5-1.3-1.4-2.4-1.1c-8.2,2.3-16.3,4.6-24.6,6.5
			C361.7,330.7,361.1,331.1,361.5,332.3z M330.3,458.2c0.3,0.6-0.4,2.5,2,1.8c6.2-1.7,12.5-3.3,18.8-4.9c1.5-0.4,1.6-1,1.3-2.4
			c-0.3-1.6-1.1-1.5-2.2-1.3c-6.3,1.6-12.5,3.2-18.8,4.8C330.5,456.5,329.8,456.7,330.3,458.2z M387.2,387.5
			c0.2-1.7-0.5-2.2-2.3-1.7c-6,1.7-12,3.2-18,4.8c-1.8,0.5-3.5,1-5.4,1.4c-1.5,0.3-1,1.3-0.9,2.2c0.1,1,0.5,1.3,1.6,1
			c8-2.1,15.9-4.1,23.9-6.2C386.8,388.8,387.5,388.6,387.2,387.5z M295,307.4c1.9-0.5,3.9-1,5.9-1.5c5.7-1.4,11.4-2.8,17.1-4.3
			c1-0.3,1.9-0.7,1.4-2.2c-0.4-1-0.7-1.7-2-1.3c-7.7,2-15.5,4-23.2,6c-1,0.2-1.1,0.8-0.8,1.5C293.7,306.3,293.3,307.6,295,307.4z
			 M330.3,472.1c1.4-0.4,3.2-0.9,5-1.4c5.6-1.5,11.1-3,16.8-4.4c1.7-0.4,1.8-1,1.5-2.5c-0.4-1.7-1.3-1.2-2.3-0.9
			c-2.3,0.6-4.6,1.2-6.9,1.8c-4.9,1.3-9.8,2.6-14.7,3.9c-1.2,0.3-1.6,0.8-1.2,2C328.8,471.4,328.6,472.4,330.3,472.1z M336,433.7
			c0.2,1.2-0.1,2.6,2.2,2c6.4-1.8,12.9-3.3,19.4-4.8c1.9-0.4,1.2-1.5,1.1-2.6c-0.1-1.5-1-1.4-2-1.1c-6.5,1.6-12.9,3.3-19.4,4.9
			C336.6,432.4,335.8,432.6,336,433.7z M336.5,318c1.5-0.4,3.1-0.9,4.7-1.3c4.5-1.2,9-2.4,13.5-3.5c1.8-0.4,2.2-1.2,1.8-2.9
			c-0.5-1.9-1.7-1-2.7-0.8c-2.6,0.7-5.2,1.5-7.8,2.2c-3.3,0.9-6.6,1.7-9.9,2.4c-1.3,0.3-1.4,1.1-1.1,2.1
			C335.1,317.2,335,318.3,336.5,318z M326.7,299.5c0.3,0,0.6,0,0.9-0.1c5.4-1.4,10.8-2.9,16.2-4.3c1.7-0.5,0.8-1.6,0.7-2.5
			c-0.1-1.4-0.9-1.4-2-1c-5.4,1.5-10.8,3-16.2,4.4c-1.4,0.4-1.5,1.1-1.4,2.3C325.1,299.5,326,299.5,326.7,299.5z M425.7,306.3
			c-0.8-0.3,0.7-2.5-1.4-2.1c-5.3,1.2-10.6,2.5-15.8,3.9c-1.5,0.4-0.6,1.8-0.6,2.7c0,0.9,0.5,1.1,1.4,0.9c5-1.2,10-2.4,15.1-3.6
			C425.3,307.9,425.9,307.6,425.7,306.3z M330.7,436.5c-0.3-0.8,0.3-2.5-1.6-2c-5.5,1.4-11,2.9-16.5,4.3c-1.5,0.4-0.7,1.5-0.6,2.4
			c0.1,1.1,0.6,1.2,1.6,0.9c5.2-1.4,10.5-2.6,15.8-4C330.1,438,331,437.9,330.7,436.5z M413.5,436.8c0.3,0.6-0.6,2.3,1.4,1.8
			c5.1-1.3,10.2-2.7,15.3-4c1.5-0.4,0.8-1.4,0.8-2.3c-0.1-1.2-0.6-1.4-1.8-1.1c-4.8,1.3-9.5,2.5-14.3,3.7
			C414,435.1,413.2,435.4,413.5,436.8z M339.2,363.7c0.5,0.5-0.7,2.6,1.3,2.1c4.9-1.2,9.7-2.7,14.6-4.1c1.5-0.4,0.8-1.5,0.7-2.3
			c-0.1-0.8-0.5-1.4-1.6-1.1c-4.7,1.3-9.4,2.6-14,3.8C339.4,362.3,338.9,362.6,339.2,363.7z M364.2,320.6c0.2,1.2-0.1,2.6,1.5,2.2
			c5.3-1.4,10.7-2.8,16-4.2c1.4-0.4,0.7-1.6,0.7-2.4c0-1.1-0.7-1.2-1.6-0.9c-5,1.3-10,2.6-15,3.8C364.6,319.3,364,319.7,364.2,320.6
			z M330.4,449.5c4.6-1.3,9.3-2.6,13.9-3.9c1.4-0.4,1-1.4,0.8-2.3c-0.2-1.1-0.8-1.2-1.7-0.9c-4.6,1.2-9.2,2.4-13.8,3.5
			c-1.2,0.3-1.2,1.1-1,2C328.8,448.7,329.1,449.7,330.4,449.5z M438.2,363.1c-0.1-0.5,0.3-1.9-1.7-1.4c-4.6,1.2-9.2,2.3-13.8,3.5
			c-1,0.2-2.1,0.4-1.7,2c0.4,1.4,1.1,1.8,2.5,1.4c4.5-1.2,9-2.3,13.5-3.5C437.8,364.9,438.5,364.7,438.2,363.1z M387,315.2
			c0.3,0.5-0.4,2.1,1.6,1.5c4.1-1.2,8.2-2.4,12.4-3.4c1.5-0.4,1.5-1.1,1.3-2.3c-0.3-1.7-1.4-1-2.2-0.8c-3.9,1-7.7,2.1-11.6,3.1
			C387.5,313.6,386.6,313.7,387,315.2z M343.1,326.1c0.5,0.3-0.4,2.2,1.2,1.8c4.5-1,9-2.2,13.5-3.4c1.3-0.3,0.7-1.4,0.7-2.2
			c-0.1-1-0.6-1.3-1.6-1c-4.2,1.1-8.5,2.1-12.7,3.2C343.5,324.7,342.6,324.8,343.1,326.1z M344.2,414.2c4.8-1.2,9-2.4,13.2-3.5
			c0.9-0.3,0.7-1.1,0.5-1.8c-0.2-0.7-0.2-1.5-1.3-1.3c-4.2,1-8.4,2-12.5,3c-1.3,0.3-0.8,1.4-0.7,2.2
			C343.5,413.5,343.7,414.2,344.2,414.2z M358.4,381.8c0,2.6,0.4,3.4,1.5,3.1c1.6-0.4,3.9-0.1,4.4-2.3c0.3-1.3-0.7-2-2.1-1.8
			C360.7,381,359.3,381.1,358.4,381.8z M317.5,473.1c0.4,0.8-0.2,2.3,1.2,1.9c1.5-0.4,3.7,0.1,4.3-2c0.2-0.7-0.1-2.4-1.6-2
			C320,471.3,317.9,470.8,317.5,473.1z M351.8,335.3c0.1,0.7-0.2,1.9,1.1,1.4c1.2-0.4,3.3,0.2,3.5-1.9c0.1-0.9-0.1-2.4-1.9-2.2
			C352.9,332.8,351.6,333.2,351.8,335.3z M395.9,325.3c0.8-0.6,2.9,0.2,2.6-2c-0.1-0.8-0.1-2.2-1.6-1.7c-1,0.3-2.8-0.2-2.5,1.8
			C394.5,324.2,394.2,325.6,395.9,325.3z M330.5,416.4c-0.2-1.4-0.4-2.6-0.7-3.8c-0.2-0.8-0.4-1.4-1.5-1.3c-1.2,0.2-0.6,1-0.8,1.6
			c-0.3,1.3,1.1,2.2,0.7,3.5c-0.4,1.2,0.5,1,1.2,1.1C330.4,417.6,330.5,417,330.5,416.4z M322.3,367.9c0,1,0,1.9,0.7,2.8
			c0.3,0.4,0.6,0.5,1.1,0.4c0.5-0.1,0.7-0.4,0.6-0.9c-0.2-1.5-0.4-3.1-0.6-4.7c-0.1-0.9-0.8-1.1-1.6-0.8c-0.9,0.3-1.1,0.7-0.3,1.5
			C322.7,366.6,322.5,367.3,322.3,367.9z M325.5,318.8c0.4,0.4-0.6,2,1,1.7c1.2-0.2,3.1,0,3.1-2c0-1.1-0.3-2.1-1.8-1.9
			C326.5,316.7,325.3,316.8,325.5,318.8z M330.7,366c0.1,0.9-0.6,2.2,1.4,2c1.4-0.1,2.4-0.5,2.3-2.1c-0.1-0.8,0.6-2.2-1.1-2
			C332,364,330.4,363.9,330.7,366z M325,389.9c-0.5,1.5,0.9,2.4,0.6,3.6c-0.1,0.7,0.1,0.9,0.8,0.9c0.7,0,1.2-0.2,1-1
			c-0.2-1.1-0.2-2.2-0.5-3.3c-0.2-0.8,0.8-2.1-0.9-2.2C324.5,387.9,325.3,389.4,325,389.9z M324,377.9c0.1,1.1,0.2,2.5,0.4,3.9
			c0,0.5,0.1,1.1,0.9,1c0.6-0.1,1.2-0.3,1-1.1c-0.2-1.5-0.5-2.9-0.6-4.4c-0.1-0.6-0.2-1-0.9-0.9C323.9,376.4,323.7,376.9,324,377.9z
			 M321.8,345.6c-0.1-0.9-0.3-1.8-0.4-2.8c-0.1-0.7-0.1-1.4-1.2-1.2c-1,0.2-0.7,0.8-0.6,1.4c0.1,1,0.2,1.9,0.5,2.8
			c0.2,0.7-0.6,2.3,1.1,2C322.6,347.7,321.7,346.5,321.8,345.6z M331.2,425.9c-0.1-0.7-0.2-1.4-0.2-2.1c0-0.9-0.3-1.5-1.4-1.2
			c-1.2,0.3-1.1,0.7-0.5,1.6c0.3,0.5,0.3,1.2,0.2,1.8c-0.2,1.1-0.1,2.1,1.2,2.1C332.2,428,331,426.6,331.2,425.9z M319.1,322.1
			c-0.2-0.9-0.4-2-0.6-3.1c-0.1-0.5,0-1-0.8-1c-0.8,0-0.9,0.6-1.1,1.2c-0.5,1.2,0.9,2,0.5,3.2c-0.2,0.7-0.8,1.8,0.8,1.9
			C319.5,324.3,318.9,323.1,319.1,322.1z M323.3,356.9c-0.2-0.9-0.4-1.9-0.6-3c-0.1-0.5-0.1-1-0.8-1c-1,0-0.8,0.7-1.1,1.2
			c-0.5,1.1,0.8,1.8,0.6,2.9c-0.1,0.8-1,2,0.8,2.1C324,359.2,323,357.8,323.3,356.9z M326.6,401.5c-0.4,1.6,0.8,2.6,0.7,3.9
			c0,0.5,0.5,0.6,1,0.5c0.7,0,0.8-0.5,0.7-1.1c-0.2-1.1-0.2-2.3-0.5-3.3c-0.2-0.7,0-2-1.1-2C326,399.7,326.9,401.1,326.6,401.5z
			 M317.4,310.5C317.4,310.5,317.5,310.5,317.4,310.5c0-0.6,0-1.2,0-1.8c0-0.7,0-1.5-1-1.5c-1.3-0.1-1,0.9-1,1.7
			c0,1.2,0,2.4,0.5,3.5c0.2,0.5,0.3,1,1,0.8c0.5-0.1,0.9-0.4,0.7-1.1C317.4,311.6,317.5,311,317.4,310.5z M320.1,334.3
			c-0.1-0.7,0.1-1.6-0.2-2.2c-0.3-0.8,0.2-2.3-1.1-2.2c-1.6,0.2-0.4,1.4-0.4,2.2c0,0.9-0.9,1.7,0.1,2.6c0.5,0.4-0.2,1.9,1,1.7
			C320.8,336.2,320,335.1,320.1,334.3z M336,414.5c0.1,0.4,0,1.5,1.2,1.5c1-0.1,2-0.5,1.8-1.8c-0.1-1-0.3-1.9-1.7-1.8
			C336,412.5,335.8,413.1,336,414.5z"/>
		<path class="st1" d="M297,493.4c0.2,1.9-1.4,1.8-2.4,2.1c-9.1,2.5-18.3,4.9-27.5,7.4c-11.9,3.2-23.8,6.3-35.6,9.6
			c-2.1,0.6-2.8,0.3-3.1-2c-2.1-16.4-4.3-32.7-6.4-49.1c-2.9-22.5-5.8-44.9-8.7-67.4c-2.9-22.5-5.9-45.1-8.8-67.6
			c-0.6-4.8-1.3-9.6-2-14.3c-0.3-1.9,0.3-2.6,2.1-3.1c21.2-5.5,42.5-11,63.7-16.6c2-0.5,2.6-0.1,2.9,2.1
			c4.1,33.1,8.3,66.2,12.6,99.3c4.3,32.7,8.7,65.4,13,98.2C296.9,492.3,297,492.9,297,493.4z M224.5,347.1c0,1.9,0.5,2.6,2.4,2.1
			c5.9-1.6,11.9-3.1,17.8-4.6c5.5-1.4,11-2.8,16.5-4.3c0.7-0.2,1.7-0.2,1.7-1.3c0-0.6-0.3-1.5-0.7-1.9c-0.7-0.6-1.7-0.1-2.5,0
			c-4,1-8,2-12,3.1c-7.2,1.9-14.4,3.8-21.6,5.7C225.4,346,224.4,346,224.5,347.1z M225.2,339.8c0.4-0.1,0.9-0.2,1.3-0.3
			c8.7-2.3,17.3-4.5,26-6.8c2.7-0.7,5.4-1.5,8.1-2.2c1.5-0.4,1.2-1.3,1-2.4c-0.3-1.3-0.9-1.1-1.9-0.9c-10.9,2.9-21.9,5.8-32.8,8.6
			c-0.8,0.2-1.5,0.4-2.3,0.6c-1.2,0.4-0.9,1.3-0.7,2.2C224.1,339.5,224.2,340.2,225.2,339.8z M264,357.6c-0.1-2.1-1.5-1.9-2.9-1.5
			c-10.8,2.8-21.6,5.6-32.4,8.4c-1.5,0.4-2.4,1-1.9,2.7c0.6,1.9,1.9,0.8,2.8,0.6c8.7-2.2,17.3-4.5,26-6.7c2.3-0.6,4.6-1.2,6.8-1.9
			C263.3,358.8,264.2,358.6,264,357.6z M261.1,368.2c-0.1-1.3-0.4-2.3-1.9-1.8c-0.9,0.3-1.9,0.5-2.8,0.7c-8.9,2.3-17.8,4.7-26.7,7
			c-1.2,0.3-2.1,0.8-1.7,2.3c0.3,1.4,1.2,1.3,2.2,1c9.8-2.6,19.7-5.1,29.5-7.7C260.6,369.5,261.3,369.2,261.1,368.2z M254.2,379.6
			c0.2-1.4-0.6-1.9-2-1.5c-1.5,0.4-3.1,0.7-4.6,1.1c-5.7,1.5-11.5,3.1-17.2,4.6c-1.4,0.4-1.6,1-1.3,2.3c0.2,1,0.6,1.3,1.6,1
			c7.4-1.9,14.9-3.8,22.4-5.7C254,381.2,254.4,380.7,254.2,379.6z M226.2,359c6.7-1.7,13.4-3.5,20.1-5.1c1.6-0.4,1.2-1.4,1.1-2.4
			c-0.1-1.4-1-1.1-1.9-0.9c-5.6,1.4-11.2,3-16.9,4C225.6,355.1,225.2,356.4,226.2,359z M243.5,316.3c-0.2-1.6-0.6-3.1-2.5-3.1
			c-2-0.1-3,1.2-3.1,3.1c-0.1,1.7,0.6,3,2.4,3.1C242.3,319.6,243.2,318.2,243.5,316.3z M224.1,321.2c-0.1-1.6-0.6-3.1-2.5-3
			c-1.8,0.1-3,1.2-3,3c0,1.6,0.4,3.1,2.4,3.1C223.1,324.3,223.9,323.1,224.1,321.2z M228.1,319c0.2,1.5,0.7,3,2.6,3.1
			c2.1,0,2.9-1.5,2.9-3.3c0-1.5-0.4-2.9-2.3-2.9C229.3,315.8,228.3,317.1,228.1,319z"/>
		<path class="st2" d="M481.3,371.6c-0.1-6.4,2.2-12.1,6.5-16.9c8.6-9.4,22.5-7.7,29.5,3.5c5.1,8.2,4.5,20.5-1.4,28.1
			c-4.6,5.8-10.5,8.9-18,7.6c-8.1-1.3-12.7-6.8-15.5-14.2C481.5,377.2,481.3,374.5,481.3,371.6z"/>
		<path class="st2" d="M476.2,337.8c0.3,1.2-0.6,1.5-1.6,1.8c-8.4,2.1-16.8,4.2-25.2,6.4c-1.1,0.3-1.7,0.4-1.9-1.1
			c-1.2-7.4-2.5-14.7-3.8-22c-0.2-1.1,0.2-1.6,1.3-1.8c8.5-2.1,17-4.3,25.5-6.5c0.9-0.2,1.5-0.3,1.7,0.8
			C473.5,322.8,474.8,330.2,476.2,337.8z"/>
		<path class="st2" d="M455.4,411.7c-0.5-0.5-1-0.9-1.4-1.3c-3.6-4.2-7.3-8.4-10.9-12.5c-1-1.1-0.9-1.8,0-2.9
			c3.4-3.8,6.8-7.6,10.1-11.5c1.2-1.4,2.1-1.4,3.3-0.1c3.5,3.8,7.2,7.5,10.8,11.2c0.8,0.8,1.1,1.4,0.3,2.4c-3.7,4.5-7.3,9-11,13.5
			C456.2,411,455.8,411.3,455.4,411.7z"/>
		<path class="st2" d="M483,308.5c-0.8,0-1-0.5-1.3-0.9c-2.7-4-5.3-8.1-8-12c-0.6-0.9-0.4-1.3,0.3-1.9c3.2-2.9,6.5-5.9,9.6-8.9
			c0.9-0.9,1.4-0.6,2,0.3c2.8,3.9,5.6,7.9,8.4,11.8c0.6,0.8,0.9,1.5,0,2.3c-3.4,3-6.8,6-10.3,9C483.5,308.2,483.2,308.4,483,308.5z"
			/>
		<path class="st2" d="M438.4,275.8c0,5.4-3.8,9.6-8.7,9.6c-5,0-8.7-4-8.7-9.6c-0.1-5.4,3.9-10,8.8-10
			C434.6,265.8,438.4,270.1,438.4,275.8z"/>
		<path class="st2" d="M360,452.9c-1.2,0.2-1.1-1-1.3-1.8c-0.3-0.9-0.2-1.7,1-2c3.1-0.7,6.1-1.5,9.2-2.3c12-3.1,24-6.2,35.9-9.4
			c2.1-0.6,2.4,0.4,2.6,2c0.2,1.5-1.1,1.4-1.9,1.6c-7.7,2.1-15.5,4.1-23.2,6.1c-6.6,1.7-13.2,3.5-19.9,5.2
			C361.7,452.5,361,452.7,360,452.9z"/>
		<path class="st2" d="M370.7,380c-0.3-1.1,0.4-1.5,1.4-1.8c13.7-3.5,27.4-7.1,41-10.6c1.2-0.3,2-0.1,2.4,1.2
			c0.4,1.5-0.4,1.8-1.6,2.1c-13.6,3.5-27.2,7-40.8,10.6C371.7,381.9,370.6,382,370.7,380z"/>
		<path class="st2" d="M517.2,318.6c0,3.7-2.9,6.7-6.4,6.7c-3.3,0-6.1-3.1-6.2-6.6c-0.1-3.9,3-7.4,6.4-7.4
			C514.3,311.2,517.2,314.7,517.2,318.6z"/>
		<path class="st2" d="M385.4,366.4c0.1,1.1-0.7,1.1-1.4,1.3c-11.1,2.9-22.3,5.8-33.4,8.7c-1.4,0.4-1.8-0.1-2.1-1.4
			c-0.4-1.3,0.1-1.7,1.2-2c11.1-2.9,22.3-5.7,33.4-8.6C385.3,363.7,385,365.3,385.4,366.4z"/>
		<path class="st2" d="M382.1,432.4c0.7-0.2,0.9,0.5,1,1.2c0.1,0.8,0.7,1.8-0.6,2.2c-1.3,0.4-2.7,0.8-4,1.1
			c-8.6,2.2-17.3,4.5-25.9,6.8c-1,0.2-2.1,0.9-2.4-0.9c-0.2-1.4-0.1-2.3,1.6-2.7c9.8-2.4,19.5-5,29.2-7.4
			C381.3,432.6,381.5,432.5,382.1,432.4z"/>
		<path class="st3" d="M376.9,340.6c0.1,1.1-0.7,1.1-1.3,1.2c-6.9,1.8-13.9,3.5-20.8,5.5c-1.8,0.5-1.9-0.8-2.3-1.6
			c-0.5-1.2,0.2-1.5,1.4-1.8c6.7-1.8,13.4-3.8,20-5.7C376,337.5,377,338.3,376.9,340.6z"/>
		<path class="st2" d="M361.5,332.3c-0.3-1.2,0.2-1.6,1.1-1.8c8.3-1.9,16.5-4.1,24.6-6.5c1.1-0.3,2-0.5,2.4,1.1
			c0.3,1.2,0,1.8-1.2,2.1c-8.4,2.3-16.9,4.6-25.3,7C361,334.8,361.9,332.8,361.5,332.3z"/>
		<path class="st3" d="M330.3,458.2c-0.5-1.5,0.3-1.7,1.1-2c6.3-1.6,12.5-3.2,18.8-4.8c1.1-0.3,1.9-0.3,2.2,1.3
			c0.3,1.4,0.2,2-1.3,2.4c-6.3,1.5-12.6,3.1-18.8,4.9C329.8,460.7,330.5,458.8,330.3,458.2z"/>
		<path class="st2" d="M387.2,387.5c0.4,1.1-0.4,1.3-1.1,1.5c-8,2.1-16,4.1-23.9,6.2c-1,0.3-1.4,0-1.6-1c-0.1-1-0.6-1.9,0.9-2.2
			c1.8-0.4,3.6-0.9,5.4-1.4c6-1.6,12-3.1,18-4.8C386.7,385.3,387.4,385.8,387.2,387.5z"/>
		<path class="st2" d="M295,307.4c-1.6,0.1-1.3-1.1-1.6-1.8c-0.3-0.8-0.1-1.3,0.8-1.5c7.7-2,15.5-4,23.2-6c1.3-0.3,1.6,0.3,2,1.3
			c0.5,1.5-0.4,1.9-1.4,2.2c-5.7,1.5-11.4,2.9-17.1,4.3C298.8,306.4,296.8,307,295,307.4z"/>
		<path class="st2" d="M330.3,472.1c-1.7,0.3-1.6-0.8-1.8-1.5c-0.4-1.2,0-1.7,1.2-2c4.9-1.2,9.8-2.6,14.7-3.9
			c2.3-0.6,4.6-1.2,6.9-1.8c1-0.3,1.9-0.8,2.3,0.9c0.3,1.5,0.1,2.1-1.5,2.5c-5.6,1.4-11.2,2.9-16.8,4.4
			C333.5,471.2,331.7,471.7,330.3,472.1z"/>
		<path class="st2" d="M336,433.7c-0.2-1.1,0.6-1.3,1.4-1.5c6.5-1.6,12.9-3.3,19.4-4.9c1-0.3,2-0.4,2,1.1c0,1.1,0.7,2.2-1.1,2.6
			c-6.5,1.5-13,3-19.4,4.8C335.9,436.4,336.2,434.9,336,433.7z"/>
		<path class="st2" d="M336.5,318c-1.5,0.3-1.4-0.8-1.6-1.6c-0.3-1.1-0.2-1.8,1.1-2.1c3.3-0.8,6.6-1.5,9.9-2.4
			c2.6-0.7,5.2-1.5,7.8-2.2c0.9-0.2,2.1-1.2,2.7,0.8c0.5,1.7,0,2.5-1.8,2.9c-4.5,1.1-9,2.3-13.5,3.5
			C339.5,317.2,337.9,317.6,336.5,318z"/>
		<path class="st3" d="M326.7,299.5c-0.8-0.1-1.6,0-1.8-1.3c-0.1-1.2,0-1.9,1.4-2.3c5.4-1.4,10.8-2.9,16.2-4.4c1.1-0.3,1.9-0.4,2,1
			c0.1,0.9,1,2.1-0.7,2.5c-5.4,1.4-10.8,2.9-16.2,4.3C327.3,299.5,327.1,299.5,326.7,299.5z"/>
		<path class="st3" d="M425.7,306.3c0.2,1.4-0.4,1.6-1.3,1.8c-5,1.2-10.1,2.4-15.1,3.6c-0.9,0.2-1.4,0-1.4-0.9c0-0.9-1-2.3,0.6-2.7
			c5.2-1.4,10.5-2.7,15.8-3.9C426.5,303.8,424.9,306,425.7,306.3z"/>
		<path class="st2" d="M330.7,436.5c0.3,1.3-0.6,1.5-1.3,1.6c-5.3,1.3-10.5,2.6-15.8,4c-1,0.2-1.5,0.2-1.6-0.9
			c-0.1-0.9-0.9-2,0.6-2.4c5.5-1.5,11-3,16.5-4.3C331,434,330.5,435.7,330.7,436.5z"/>
		<path class="st4" d="M413.5,436.8c-0.3-1.4,0.5-1.7,1.4-1.9c4.8-1.2,9.5-2.4,14.3-3.7c1.1-0.3,1.7,0,1.8,1.1
			c0.1,0.9,0.8,1.9-0.8,2.3c-5.1,1.3-10.2,2.7-15.3,4C412.9,439.1,413.9,437.3,413.5,436.8z"/>
		<path class="st3" d="M339.2,363.7c-0.3-1.1,0.2-1.4,1-1.6c4.7-1.2,9.4-2.5,14-3.8c1.1-0.3,1.5,0.3,1.6,1.1s0.8,1.9-0.7,2.3
			c-4.9,1.4-9.7,2.8-14.6,4.1C338.5,366.3,339.7,364.2,339.2,363.7z"/>
		<path class="st2" d="M364.2,320.6c-0.2-0.9,0.4-1.3,1.5-1.6c5-1.2,10-2.5,15-3.8c1-0.2,1.6-0.2,1.6,0.9c0,0.9,0.7,2-0.7,2.4
			c-5.3,1.5-10.6,2.9-16,4.2C364.1,323.2,364.5,321.8,364.2,320.6z"/>
		<path class="st2" d="M330.4,449.5c-1.3,0.2-1.5-0.7-1.7-1.6c-0.2-0.9-0.3-1.7,1-2c4.6-1.1,9.2-2.3,13.8-3.5
			c0.9-0.2,1.5-0.1,1.7,0.9c0.2,1,0.6,2-0.8,2.3C339.6,446.9,335,448.2,330.4,449.5z"/>
		<path class="st2" d="M438.2,363.1c0.3,1.6-0.4,1.8-1.2,2c-4.5,1.1-9,2.3-13.5,3.5c-1.4,0.4-2.1,0-2.5-1.4c-0.4-1.6,0.7-1.8,1.7-2
			c4.6-1.2,9.2-2.2,13.8-3.5C438.5,361.1,438.1,362.6,438.2,363.1z"/>
		<path class="st3" d="M387,315.2c-0.4-1.5,0.5-1.7,1.4-1.9c3.9-1,7.7-2.1,11.6-3.1c0.8-0.2,1.9-0.9,2.2,0.8
			c0.2,1.1,0.2,1.9-1.3,2.3c-4.1,1-8.2,2.2-12.4,3.4C386.6,317.4,387.2,315.8,387,315.2z"/>
		<path class="st2" d="M343.1,326.1c-0.4-1.3,0.4-1.4,1-1.6c4.2-1.1,8.5-2.1,12.7-3.2c1-0.3,1.5,0.1,1.6,1c0.1,0.8,0.6,1.9-0.7,2.2
			c-4.5,1.2-9,2.4-13.5,3.4C342.7,328.3,343.6,326.5,343.1,326.1z"/>
		<path class="st2" d="M344.2,414.2c-0.5,0.1-0.7-0.7-0.8-1.4c-0.1-0.8-0.5-1.9,0.7-2.2c4.2-1,8.3-2,12.5-3c1-0.2,1.1,0.6,1.3,1.3
			c0.2,0.7,0.4,1.5-0.5,1.8C353.2,411.8,348.9,412.9,344.2,414.2z"/>
		<path class="st2" d="M358.4,381.8c0.9-0.7,2.3-0.9,3.7-1c1.4-0.2,2.5,0.5,2.1,1.8c-0.5,2.2-2.8,1.8-4.4,2.3
			C358.8,385.2,358.5,384.4,358.4,381.8z"/>
		<path class="st2" d="M317.5,473.1c0.4-2.3,2.5-1.7,3.9-2.1c1.6-0.4,1.8,1.3,1.6,2c-0.5,2.1-2.8,1.6-4.3,2
			C317.3,475.4,317.9,473.8,317.5,473.1z"/>
		<path class="st2" d="M351.8,335.3c-0.2-2,1.1-2.5,2.7-2.7c1.8-0.2,1.9,1.3,1.9,2.2c-0.1,2.1-2.2,1.5-3.5,1.9
			C351.6,337.1,351.8,336,351.8,335.3z"/>
		<path class="st2" d="M395.9,325.3c-1.8,0.3-1.4-1.1-1.5-1.9c-0.3-2,1.4-1.5,2.5-1.8c1.6-0.5,1.5,0.9,1.6,1.7
			C398.8,325.5,396.8,324.7,395.9,325.3z"/>
		<path class="st3" d="M330.5,416.4c0,0.6-0.1,1.2-1.1,1.1c-0.7-0.1-1.5,0.1-1.2-1.1c0.4-1.3-1-2.2-0.7-3.5c0.1-0.6-0.4-1.4,0.8-1.6
			c1.1-0.1,1.4,0.5,1.5,1.3C330.1,413.8,330.3,415,330.5,416.4z"/>
		<path class="st3" d="M322.3,367.9c0.2-0.5,0.4-1.2,0-1.7c-0.8-0.8-0.5-1.2,0.3-1.5c0.8-0.3,1.4-0.1,1.6,0.8
			c0.2,1.5,0.4,3.1,0.6,4.7c0.1,0.5-0.1,0.8-0.6,0.9c-0.5,0.1-0.8,0-1.1-0.4C322.3,369.8,322.2,368.9,322.3,367.9z"/>
		<path class="st2" d="M325.5,318.8c-0.2-2,1-2.1,2.3-2.3c1.5-0.2,1.9,0.8,1.8,1.9c-0.1,2-1.9,1.8-3.1,2
			C325,320.8,325.9,319.2,325.5,318.8z"/>
		<path class="st3" d="M330.7,366c-0.3-2.1,1.3-2,2.5-2.1c1.7-0.2,1,1.2,1.1,2c0.2,1.6-0.9,2-2.3,2.1
			C330.1,368.2,330.8,366.9,330.7,366z"/>
		<path class="st3" d="M325,389.9c0.4-0.5-0.5-2,1.1-2c1.7,0,0.7,1.4,0.9,2.2c0.3,1.1,0.4,2.2,0.5,3.3c0.1,0.8-0.3,1-1,1
			c-0.7,0-1-0.2-0.8-0.9C325.9,392.3,324.5,391.4,325,389.9z"/>
		<path class="st3" d="M324,377.9c-0.3-1-0.1-1.5,0.7-1.5c0.7-0.1,0.9,0.3,0.9,0.9c0.2,1.5,0.4,2.9,0.6,4.4c0.1,0.9-0.4,1.1-1,1.1
			c-0.7,0.1-0.8-0.5-0.9-1C324.2,380.4,324.1,379,324,377.9z"/>
		<path class="st3" d="M321.8,345.6c-0.1,0.9,0.8,2-0.6,2.3c-1.7,0.3-0.9-1.3-1.1-2c-0.3-0.9-0.3-1.9-0.5-2.8
			c-0.1-0.6-0.4-1.2,0.6-1.4c1.1-0.2,1.1,0.5,1.2,1.2C321.5,343.8,321.7,344.8,321.8,345.6z"/>
		<path class="st3" d="M331.2,425.9c-0.2,0.7,1,2.1-0.9,2.1c-1.3,0-1.4-1-1.2-2.1c0.1-0.6,0.1-1.3-0.2-1.8c-0.6-0.9-0.7-1.3,0.5-1.6
			c1.1-0.2,1.4,0.3,1.4,1.2C331,424.5,331.1,425.2,331.2,425.9z"/>
		<path class="st3" d="M319.1,322.1c-0.2,1,0.4,2.2-1.1,2.1c-1.6,0-1-1.1-0.8-1.9c0.3-1.2-1-2-0.5-3.2c0.2-0.6,0.2-1.1,1.1-1.2
			c0.8,0,0.7,0.5,0.8,1C318.7,320.2,319,321.3,319.1,322.1z"/>
		<path class="st3" d="M323.3,356.9c-0.4,0.8,0.6,2.3-1.1,2.2c-1.8-0.1-0.9-1.3-0.8-2.1c0.2-1.1-1.1-1.8-0.6-2.9
			c0.2-0.5,0.1-1.2,1.1-1.2c0.8,0,0.7,0.5,0.8,1C322.9,355,323.1,356,323.3,356.9z"/>
		<path class="st3" d="M326.6,401.5c0.3-0.5-0.5-1.9,0.7-1.9c1.1,0,0.9,1.3,1.1,2c0.3,1.1,0.4,2.2,0.5,3.3c0.1,0.6,0,1-0.7,1.1
			c-0.4,0-1,0-1-0.5C327.3,404.1,326.1,403.1,326.6,401.5z"/>
		<path class="st3" d="M317.4,310.5c0,0.5,0,1.1,0.2,1.5c0.2,0.7-0.1,1-0.7,1.1c-0.6,0.2-0.7-0.3-1-0.8c-0.5-1.2-0.6-2.3-0.5-3.5
			c0-0.7-0.2-1.7,1-1.7c0.9,0,1,0.8,1,1.5C317.4,309.3,317.5,309.9,317.4,310.5C317.5,310.5,317.5,310.5,317.4,310.5z"/>
		<path class="st3" d="M320.1,334.3c-0.2,0.8,0.6,1.9-0.6,2c-1.3,0.2-0.5-1.3-1-1.7c-1-0.9-0.1-1.7-0.1-2.6c0-0.8-1.2-2,0.4-2.2
			c1.3-0.1,0.8,1.4,1.1,2.2C320.2,332.8,320.1,333.6,320.1,334.3z"/>
		<path class="st2" d="M336,414.5c-0.1-1.4,0-2.1,1.3-2.1c1.4-0.1,1.6,0.8,1.7,1.8c0.2,1.3-0.8,1.7-1.8,1.8
			C335.9,416,336,414.9,336,414.5z"/>
		<path class="st2" d="M224.5,347.1c-0.1-1.1,0.9-1,1.6-1.2c7.2-1.9,14.4-3.8,21.6-5.7c4-1,8-2.1,12-3.1c0.8-0.2,1.8-0.6,2.5,0
			c0.5,0.4,0.7,1.2,0.7,1.9c0,1-1,1.1-1.7,1.3c-5.5,1.5-11,2.9-16.6,4.3c-5.9,1.5-11.9,3-17.8,4.6
			C225,349.7,224.5,348.9,224.5,347.1z"/>
		<path class="st2" d="M225.2,339.8c-1,0.3-1.2-0.4-1.4-1.1c-0.2-0.9-0.5-1.8,0.7-2.2c0.8-0.2,1.5-0.4,2.3-0.6
			c10.9-2.9,21.9-5.8,32.8-8.6c1-0.3,1.6-0.5,1.9,0.9c0.2,1.1,0.5,2-1,2.4c-2.7,0.7-5.4,1.5-8.1,2.2c-8.7,2.3-17.3,4.5-26,6.8
			C226.1,339.6,225.7,339.7,225.2,339.8z"/>
		<path class="st2" d="M264,357.6c0.2,1-0.7,1.2-1.5,1.5c-2.3,0.7-4.5,1.3-6.8,1.9c-8.7,2.3-17.3,4.5-26,6.7
			c-0.9,0.2-2.2,1.3-2.8-0.6c-0.5-1.7,0.4-2.3,1.9-2.7c10.8-2.8,21.6-5.6,32.4-8.4C262.5,355.7,263.9,355.5,264,357.6z"/>
		<path class="st2" d="M261.1,368.2c0.2,1-0.5,1.4-1.5,1.6c-9.8,2.5-19.7,5.1-29.5,7.7c-1,0.3-1.9,0.4-2.2-1c-0.4-1.6,0.5-2,1.7-2.3
			c8.9-2.3,17.8-4.7,26.7-7c0.9-0.2,1.9-0.4,2.8-0.7C260.7,365.9,261,366.9,261.1,368.2z"/>
		<path class="st2" d="M254.2,379.6c0.2,1.1-0.2,1.6-1.1,1.9c-7.5,1.9-14.9,3.8-22.4,5.7c-1,0.3-1.4,0-1.6-1
			c-0.3-1.2-0.1-1.9,1.3-2.3c5.8-1.5,11.5-3.1,17.2-4.6c1.5-0.4,3.1-0.8,4.6-1.1C253.7,377.6,254.4,378.1,254.2,379.6z"/>
		<path class="st2" d="M226.2,359c-0.9-2.6-0.5-3.8,2.4-4.4c5.7-1.1,11.2-2.7,16.9-4c0.9-0.2,1.8-0.5,1.9,0.9c0.1,1,0.5,2-1.1,2.4
			C239.5,355.5,232.8,357.3,226.2,359z"/>
		<path class="st2" d="M243.5,316.3c-0.3,1.9-1.2,3.2-3.2,3.1c-1.8-0.1-2.5-1.5-2.4-3.1c0.1-2,1.1-3.2,3.1-3.1
			C242.9,313.2,243.3,314.8,243.5,316.3z"/>
		<path class="st2" d="M224.1,321.2c-0.2,1.9-1.1,3.2-3.1,3.1c-2,0-2.4-1.5-2.4-3.1c0-1.9,1.2-3,3-3
			C223.5,318.1,224,319.5,224.1,321.2z"/>
		<path class="st2" d="M228.1,319c0.2-1.9,1.2-3.2,3.2-3.2c1.9,0,2.3,1.5,2.3,2.9c0,1.9-0.9,3.3-2.9,3.3
			C228.8,322,228.3,320.5,228.1,319z"/>
	</g>
</g>
</svg>
