<?xml version="1.0" encoding="utf-8"?>
<!-- Generator: Adobe Illustrator 26.1.0, SVG Export Plug-In . SVG Version: 6.00 Build 0)  -->
<svg version="1.1" id="Layer_1" xmlns="http://www.w3.org/2000/svg" xmlns:xlink="http://www.w3.org/1999/xlink" x="0px" y="0px"
	 viewBox="0 0 1080 1080" style="enable-background:new 0 0 1080 1080;" xml:space="preserve">
<style type="text/css">
	.st0{display:none;fill:none;stroke:#FFFFFF;stroke-width:5;stroke-miterlimit:10;}
	.st1{fill:#102141;stroke:#FFFFFF;stroke-width:5;stroke-miterlimit:10;}
	.st2{fill:#EAA719;stroke:#FFFFFF;stroke-width:5;stroke-miterlimit:10;}
	.st3{fill:#FDFDFD;stroke:#FFFFFF;stroke-width:5;stroke-miterlimit:10;}
</style>
<g>
	<g>
		<path class="st0" d="M0.1,539.5c0-178.2,0-356.4-0.1-534.6C0,0.9,0.9,0,4.8,0c356.8,0.1,713.5,0.1,1070.3,0c3.9,0,4.8,0.9,4.8,4.8
			c-0.1,356.8-0.1,713.5,0,1070.3c0,3.9-0.9,4.8-4.8,4.8c-356.8-0.1-713.5-0.1-1070.3,0c-4,0-4.8-0.9-4.8-4.8
			C0.1,896.6,0.1,718,0.1,539.5z M676.2,364.8c8.3,4.8,17.1,8.1,25.3,12.6c3.1,1.7,6.5,3,9.5,5c2.8,1.9,2.4,3.6-0.2,5.2
			c-12.7,7.9-25.3,15.8-38,23.7c-22.4,13.9-44.8,27.6-67,41.6c-2.6,1.6-3.8,1.1-5-1c-5.9-10.7-11.2-21.7-15.6-33.1
			c-3-7.8-5.8-15.7-8.7-23.6c-2.5-6.7-7.3-12.4-6.1-20.6c0.7-4.7,3.4-8.8,3.1-13.7c-0.4-5.8-0.8-6.3-5.8-3.3
			c-10.6,6.4-21.1,12.9-31.7,19.3c-7,4.2-14,8.4-21.1,12.5c-5.9,3.5-11.7,7-17.6,10.5c-2.2,1.3-2.8,3.3-0.3,4.1
			c4.4,1.5,8.4,3.9,12.9,5.4c10.1,3.4,17.9,9.9,21.3,20.3c5.8,18.1,10.9,36.4,19,53.6c1.2,2.5,0.8,4.2-1.7,5.6
			c-4.4,2.5-8.8,5-13,7.9c-12.4,8.6-25.6,16-38.3,24.2c-8.6,5.5-17.2,11.4-26.3,16.4c-8.4,4.6-16.6,9.9-24.7,15.1
			c-10.7,6.7-21.5,13.4-32.1,20.2c-10.8,6.9-21.7,13.7-32.5,20.5c-12.1,7.6-24.4,14.9-36.2,22.8c-2.9,1.9-4.7,2.6-6-1.7
			c-3.5-11.6-7.2-23.2-11.1-34.7c-4.2-12.2-8.8-24.3-13-36.5c-4.2-12-8.1-24.1-12.4-36.1c-5.3-14.8-9.9-29.8-15.5-44.5
			c-4.8-12.6-8.3-25.8-13.1-38.4c-6.5-17.1-11.7-34.8-18-52c-4.9-13.4-9.1-27.1-13.7-40.6c-5.7-16.6-11.5-33.2-17.2-49.8
			c-5.3-15.7-10.5-31.4-15.8-47.1c-2.7-7.9-5.4-15.9-8.1-23.9c-0.4-1.3-1.1-2.8,0.4-3.8c1.3-0.9,2.2,0.3,3.2,0.9
			c3.5,2.3,7.4,4,10.8,6.2c11.4,7.1,23.9,11.8,36.2,16.7c14.4,5.7,29.6,9.4,44.3,14.1c11.9,3.8,23.7,7.6,35.6,11.3
			c18.4,5.8,36.6,12.2,54.4,19.6c20.5,8.5,40.6,17.9,58.8,30.8c13.8,9.8,26.9,20.2,36.5,34.5c3.1,4.6,5.9,9.5,6.3,14.8
			c1,12,0.6,24.1-0.6,36.2c2.6,0.7,4.3-1.2,6.1-2.4c5.5-3.7,11.1-7.1,16.8-10.4c18.8-10.9,37.4-22.3,56.1-33.5
			c2.7-1.6,2.6-3.4,0.7-5.6c-3.6-4-7.4-7.9-10.9-12c-8.3-10-18.5-18.2-27.9-27.1c-10-9.5-20.9-17.5-31.9-25.6
			c-7.2-5.3-14.9-9.8-22.4-14.5c-13.8-8.6-28.4-15.2-43-22.1c-8.3-3.9-17-6.9-25.7-9.9c-14.2-4.9-28.5-9.3-43-12.8
			c-17.6-4.1-35-8.6-52.8-12.2c-11.5-2.3-22.7-6.4-34.1-9.2c-11.6-2.9-23-6.6-34-11.2c-13.2-5.5-26-12.1-37.8-20.5
			c-9.9-7-18.7-15.1-25.9-24.4c-11-14.1-18.7-30-20.6-48.4c-1.1-10.8-0.5-21.5,2-31.8c2.2-9.2,6.5-17.8,9.9-26.8
			c1.9-5.2,0.9-10.2-3.4-11.8c-4.2-1.7-7.8,1-10.3,4.1c-4.3,5.3-7.4,11.4-10.3,17.6c-5.8,12.4-9.2,25.4-10.6,39.1
			c-1.8,18.3,0.8,35.9,7.2,52.9c8.2,21.7,22.2,39.4,39.2,54.9c2.7,2.5,5.5,5.2,6.6,8.7c2.3,8,5.5,15.7,8.2,23.5
			c4.7,13.2,8.7,26.6,13.5,39.8c5.7,15.6,10.6,31.4,15.9,47.1c4.2,12.2,8.6,24.2,12.8,36.4c4.4,12.8,8.4,25.7,12.8,38.5
			c6,17.5,12.3,34.9,18.3,52.4c5.3,15.4,10.4,31,15.6,46.4c4.2,12.4,8.9,24.7,12.9,37.1c4.9,15.2,10.5,30.2,15.8,45.3
			c3.5,10.2,7.5,20.2,10.8,30.5c2.4,7.6,3.7,15.9,8.5,22.7c0.4,0.6,0.5,1.8,0.1,2.5c-0.6,1.4-2,1-3.2,0.7
			c-6.3-1.6-12.5-3.6-18.9-4.6c-5.8-0.9-11.2-5.1-17.2-2.9c-4.9,1.7-8.7,5.6-13.7,7.4c-0.9,0.3-3,3.2-0.9,3.4
			c3.6,0.2,5.9,2.8,9.2,3.4c7.6,1.6,15.1,3.9,22.7,6c1.3,0.3,3.1,0.2,3,2.2c-0.1,1.9-1.7,2.6-3.3,2.8c-1.2,0.2-2.5,0.2-3.7-0.1
			c-9.6-2.4-19.4-4.4-28.8-7.2c-8-2.4-13.9-1.9-19.8,3c-3.6,3-9.1,3.5-11.6,8.1c11.6,2.9,23,5.8,34.3,8.7c1.9,0.5,4.8,0.9,4.3,3.6
			c-0.5,2.4-3.1,1.3-4.9,1.5c-4.7,0.6-8.8-2-13.2-2.8c-5.4-1.1-11-1.6-16.3-3.6c-8.2-3.2-16.3-4.6-23.4,2.9c-1.5,1.6-3.7,3-5.8,3.3
			c-2.7,0.4-3.2,2.2-4.1,3.5c12.5,3.6,25,7.2,37.4,10.8c3,0.9,2.2,2.7,1.5,4.9c-2,5.8,1.2,10.9,6.9,11.3c3.2,0.2,3.5,2.1,2.8,4.3
			c-3,10.1-3.3,20.7-5.6,30.9c-0.2,1-0.8,2.1,0.5,2.8c1.2,0.7,1.8-0.3,2.7-0.8c5.4-2.8,9.7-7.2,15.5-9.4c1.3-0.5,3.3-1.7,2.9-3.4
			c-1.3-5.8,2.4-10.8,2.6-16.4c0.1-5.3,2.3-10.5,2.5-16c0.1-2.2,1.9-4.4,3.3-6.5c0.6-0.9,1.7-2,3.1-1.6c1.7,0.4,1.2,1.8,1.2,3
			c0.2,3-0.3,5.9-1,8.8c-1.6,7-2.8,14-4,21c-0.3,1.6,0,4.1,2.1,2.9c6.2-3.5,12.1-7.5,18.1-11.4c0.4-0.2,0.7-0.9,0.8-1.3
			c0.5-8.9,4.2-17.2,4.9-26.1c0.3-3.8,2.2-7.3,2.7-11.2c0.2-2,2.4-3.1,4.5-2.5c2.2,0.7,1.1,2.5,0.8,4c-1.6,9.3-3.2,18.6-4.8,27.8
			c-0.2,1.1-1.1,2.6,0.6,3.2c1.2,0.4,2.5-0.1,3.4-1c1.8-2,3.9-3.3,6.4-4.2c8-2.8,10-9,10.2-16.8c0.1-5.5,1.5-11.1,3-16.4
			c1.3-4.8,2.7-5,6.3-1.5c14.7,14.1,29.5,28.1,44,42.3c38.2,37.3,76.2,74.7,114.4,112c30.2,29.5,60.6,58.8,90.8,88.4
			c21.7,21.2,43.2,42.7,64.7,64c2,2,3.6,4,4.5,6.9c4.1,12.6,8.9,24.7,16,36.2c11.1,18.1,25.6,32.2,44.2,42.2
			c20.9,11.2,43.2,15.4,66.8,13.6c5.3-0.4,10.3-1.9,15.1-4.1c5.3-2.4,5.9-6.3,2.3-10.8c-3.1-3.9-7.1-3.9-11.4-3.7
			c-11.7,0.4-23.6,0.5-34.9-3c-19.2-5.8-34.3-18-46.2-33.5c-12.7-16.5-19.6-36-21.9-56.5c-2.1-19.3-1.9-38.9,1.8-58.2
			c0.9-4.9,1.9-9.9,2.5-14.9c1.2-9.5,3.8-18.7,5.7-28.1c2.5-12.6,6.3-24.9,8.6-37.6c3.3-18,7.5-35.7,10.1-53.9
			c2.4-17.2,4.8-34.3,4.8-51.7c0-14-0.3-28-2.2-42c-1.7-12.8-4.4-25.4-7.1-38c-1.9-8.9-5.2-17.4-7.4-26.1
			c-3.6-14.5-10.2-27.7-15.6-41.5c-1.2-3.2-2.9-2.7-5.1-0.9c-11.5,9.5-24.3,17.1-36.6,25.3c-12.4,8.3-24.9,16.4-37.3,24.6
			c-1,0.7-2.4,1.3-2.3,2.7c0.1,1.8,1.9,2,3.2,2.3c3.2,0.9,6.3,1.6,9.4,2.8c10.5,4,20.5,8.7,27.6,17.8c12.4,15.9,16.3,34.8,18.9,54
			c1.9,14.4,2.9,28.9,2.4,43.5c-0.7,21.7-3.4,43.2-5.9,64.8c-1.1,9.2-2.5,18.4-3.8,27.5c-1,7-1.8,14.2-3.2,21.2
			c-1.5,7.5-3,15.1-3.7,22.7c-1,11.3-2.5,22.5-2.8,33.9c-0.4,13,0.6,25.9,1.3,38.8c0.1,1.8,1.5,4-0.7,5.3c-2.3,1.3-3.5-1-4.8-2.2
			c-32.2-31.5-64.2-63.2-96.6-94.5c-18.4-17.8-36.4-36.1-54.9-53.8c-28.5-27.2-56.4-55.2-84.5-83c-21.4-21.2-43.8-41.5-64.8-63.1
			c-2.8-2.8-2-4.6,0.5-6.2c6.5-4,12.9-8.2,19.5-11.9c12.4-7,24.4-14.7,36.4-22.3c10.9-6.9,21.8-13.8,32.7-20.6
			c10.5-6.5,21-13.2,31.5-19.6c17.5-10.8,35-21.6,52.1-33.1c9.7-6.5,20.3-11.8,29.8-18.7c1.5-1.1,4.2-5.4,7.2-1.2
			c11.8,16.3,26.8,29.7,40.4,44.3c2.8,3.1,4.6,6.3,5.8,10.3c2.8,9.4-0.1,18.4-1.2,27.6c-0.1,1-1.4,2.3,0.1,3.2
			c1.2,0.7,2.2,0.2,3.3-0.6c6.3-4.1,12.8-7.8,18.9-12c9.6-6.5,19.3-12.7,28.9-19.2c8.6-5.9,17-12.1,25.8-17.8
			c0.6-0.4,1.2-1.4,1.2-2.2c0.1-1.1-1.1-1-1.9-1.2c-4.2-1.2-8.3-2.1-12.7-2.8c-6.5-1-11.7-4.6-16.4-10.1
			c-13.3-15.5-27.5-30.4-39.4-47.1c-2.6-3.6-3.2-5.6,1.3-8.6c20.3-13.6,41.6-25.6,62.2-38.8c13-8.4,26.3-16.4,39.4-24.7
			c1.6-1,2.7-3.2,4.9-2.1c2.2,1.1,2,3.5,2,5.6c-0.1,11.1-0.2,22.1-0.3,33.2c0,1.3-0.6,2.8,0.7,3.9c13.9-13.8,86.5-107.9,86.4-112.4
			C767.9,344.3,722.3,355.1,676.2,364.8z M881.1,585.4C881.1,585.4,881.1,585.4,881.1,585.4c-19.2,0-38.3,0.1-57.5,0
			c-4,0-5.9,1.2-6.6,5.5c-2.4,15.1-5.7,30-10.4,44.5c-13.3,40.6-34.3,76.8-64.2,107.5c-2,2-3.8,4.1-4.1,7.2
			c-1.4,14.7-5.2,29-7.9,43.4c-6.1,32-14.8,63.5-19.5,95.8c-1.8,12-2.7,24.1-2.1,36.2c0.3,6.7,2.6,8.3,7.6,5.5
			c21.4-11.8,42.5-23.9,63.1-37c2.9-1.8,3-3.6,2-6.5c-6.3-18.2-12.4-36.5-18.7-54.7c-1.5-4.3-1.3-7.2,2.5-10.5
			c14.9-12.8,29.2-26.4,42.2-41.2c4.1-4.7,7.6-5.5,13.1-3.4c17.5,6.7,35.2,13,52.8,19.7c3.2,1.2,5.5,1.6,7.6-1.8
			c12.8-20.3,24.7-41.3,36.8-62c1.7-2.8,1.7-4.9-0.9-7.3c-14.2-13.1-28.1-26.5-42.4-39.5c-6-5.5-6.4-6-3.5-13.4
			c0.4-1,0.8-1.9,1.2-2.9c5.6-15.5,10-31.4,14-47.4c0.9-3.6,2.6-5.5,6.6-6.3c19.3-4.2,38.8-7.8,58-13c2.9-0.8,5.4-1.7,5.7-5.1
			c0.3-3.6-0.3-6.6-3.8-8.5c-5-2.7-10.2-4.6-16-4.6C918,585.4,899.6,585.4,881.1,585.4z M254.3,698.8c-0.1-2.3,0.4-4-0.8-5
			c-4.3-3.8-5.9-9.1-8.4-13.8c-1.2-2.2-3-3.3-5.3-3.8c-8.9-1.8-17.8-4.1-26.5-6.8c-1.6-0.5-3.5-2-4.9-0.6c-1.6,1.6-0.2,3.9,0.7,5.4
			c2.8,4.5,1.3,7.6-2.3,10.9c-14.4,13.1-28.6,26.5-42.8,39.8c-2.7,2.5-5.6,4.5-2.9,9.1c12.1,21,24.9,41.5,38.7,61.4
			c1.7,2.5,3.5,3.2,6.7,2c15.2-5.9,30.5-11.4,45.8-17.2c13.8-5.3,13.8-5.4,23.9,5.1c12.6,13,25,26.1,38.9,37.8c2.4,2,4.2,4.2,3,7.7
			c-2.8,8.3-5.5,16.7-8.2,25c-3.6,10.8-7.3,21.6-11,32.3c-0.8,2.3-0.9,4.5,1.4,5.5c4,1.9,6.9,6.3,11.9,5.9c1.1-0.1,2.2-2.1,3-3.4
			c1.9-3.2,3.7-6.4,5.4-9.6c18.1-33.1,38.2-65.1,57.1-97.7c4-6.9,4.1-7.3-2.4-12.3c-15.2-11.7-29-25-41.9-39.1
			c-7.1-7.8-13.1-16.5-19.9-24.5c-2.4-2.8-4.6-3.5-8-1.2c-15.7,10.2-31.6,20.2-47.5,30.2c-2.9,1.8-6.4,6-9,4
			c-2.8-2.1-0.8-7.1-0.4-10.9C250.1,722.3,251.8,710,254.3,698.8z M563.8,280.6c0,0.1,0,0.2,0,0.2c11.1,0,22.1-0.1,33.2,0.1
			c3.8,0.1,6.5-0.9,8.8-4.2c11.5-16.4,23.3-32.5,34.9-48.8c2.8-4,2.3-5.8-2.4-7.2c-12.2-3.7-24.5-7.3-37.1-9.6
			c-3.6-0.7-5.5-2.1-6.2-5.9c-3.8-19.2-7.8-38.5-11.7-57.7c-0.7-3.3-2.1-5.2-5.9-5.2c-25,0.1-49.9,0.1-74.9-0.1
			c-3.2,0-4.6,1.1-5.2,4.3c-3.9,20-8.1,39.9-11.9,59.8c-0.6,3.1-1.8,4.8-4.7,5.4c-2.1,0.4-4.1,0.9-6.2,1.4
			c-12,3.1-24.1,6.2-36.1,9.4c-1.3,0.3-3.1,0.5-3.4,2.1c-0.3,1.7,1.6,2.2,2.7,2.8c4.8,2.5,9.7,5,14.5,7.3
			c24.1,11.7,47.3,24.7,67.8,42.1c2.7,2.3,5.6,4,9.5,3.9C540.9,280.5,552.4,280.6,563.8,280.6z M845.7,459.2c8.6,0,17.2,0.1,25.8,0
			c5.2-0.1,6.1-1.5,4.5-6.5c-1.2-3.6-2.1-7.5-4-10.8c-3.5-6.2-0.2-9.5,4.1-13.2c13.8-11.9,27.3-24.1,41.1-36.1
			c2.7-2.4,3.3-4.6,1.5-7.8c-12-21.2-24.3-42.3-37.1-63c-2-3.2-4-3.5-7.4-2.2c-12.6,4.9-25,10.2-38.3,13c-3.1,0.7-5.3,2.5-7.2,5
			c-10.5,14-20.5,28.5-31.9,41.8c-7.9,9.1-9.6,16.7-3.8,27.8c7.9,15.2,13.8,31.5,20.3,47.3c1.5,3.6,3.7,5,7.6,4.9
			C829.2,459,837.5,459.2,845.7,459.2z M290.8,432.4c3-2.2,4.4-4.9,5.9-7.4c16-26.7,35-50.7,58.1-71.6
			c17.9-16.2,37.3-30.3,58.8-41.4c2.5-1.3,6.8-1.6,6.7-4.8c-0.1-3-4.1-4-6.7-5.3c-20.5-10.4-41.7-19.2-63.6-26.5
			c-11.8-3.9-23.6-7.8-35.4-11.8c-4.7-1.6-5.3,0.4-3.9,4.3c1.4,4,2.6,8,4.4,11.8c2.1,4.5,2,7.7-2.2,11.4
			c-15.6,13.4-30.2,27.9-43.2,43.8c-1.6,2-3.8,3.7-6.3,3.2c-6.6-1.4-4.6,2.2-3.5,5.4c4.4,13.1,8.7,26.3,13.4,39.3
			C279.2,399.1,283.8,415.9,290.8,432.4z M231.6,497C231.6,497,231.6,496.9,231.6,497c10-0.1,20-0.5,30,0.1c8,0.4,10.2-3,10.7-11.9
			c0.1-2-0.6-4.2-1.3-6.1c-7.5-22-15.1-44.1-22.6-66.1c-8.4-24.9-17-49.7-25-74.8c-2.9-9.2-5.8-17.4-17.3-17.8
			c-0.2,0-0.3-0.1-0.5-0.2c-3.1-2-4.9-0.8-6.8,2.1c-13,20.2-24.9,41-37.1,61.8c-2,3.4-1.9,5.9,1.2,8.7
			c14.5,13.2,28.8,26.7,44.1,39.1c3.3,2.7,4.2,5.3,2.7,9.5c-6,16.3-10.3,33.1-14.2,50c-1.1,4.8,0.5,5.9,4.9,5.8
			C210.8,496.9,221.2,497,231.6,497z M539.9,969.2c11.9,0.6,25-0.6,38.2-0.9c2.6-0.1,4.6-0.4,5.2-3.8c2.8-16.4,5.5-32.8,9.3-49
			c1.8-7.6,0.8-13.9-5.9-19.6c-10.7-9.1-20.3-19.3-30.5-29.1c-7.8-7.5-15.3-15.4-23.6-22.6c-3-2.6-4-2.5-6,1
			c-12.1,20.9-24.4,41.7-36.9,62.5c-1.8,3.1-2.7,5.9-2,9.4c3.1,15.6,6.1,31.3,9.1,46.9c0.7,3.6,2.9,4.2,6,4.4
			C514.8,969,526.7,969.4,539.9,969.2z M1026.1,643.5c6.4,0.1,11.2-1.1,15.6-3.8c13.6-8.3,17.5-25.8,9-40.1
			c-7.6-12.7-27.4-17.7-39.9-9.6c-4,2.6-6.6,2.4-10.1-0.6c-14-12-29.1-22.6-43.7-33.7c-3.7-2.8-7.3-4.6-12.1-4.1
			c-9.6,1-19.2,0.3-28.9,0.2c-17.9-0.3-35.8,0.3-53.7,0.4c-38.1,0.2-76.2-0.4-114.3-0.3c-6,0-9.6-1.8-12.9-6.6
			c-5.9-8.6-14.7-12.1-25.1-11.6c-1.8,0.1-4.9,0-3.7,2.8c2.7,6,3.5,13.3,11.4,16.1c7.9,2.8,9.5,8.4,5.4,15.9c-1,1.8-1.6,3.4-0.8,5.4
			c1.5,3.7,2.2,9.1,5.9,10c4.3,1,7.2-3.7,9.1-7.5c2-3.8,4.9-4.8,9-4.9c22.8-0.1,45.7-0.1,68.5-0.5c37.8-0.6,75.5,0.1,113.3-0.3
			c10.3-0.1,19.2,1.2,27.6,8.2c12.2,10.2,25.5,19.2,38.3,28.7c2.7,2,3.7,4.6,3.8,8.1C998,631.6,1010.2,643.3,1026.1,643.5z
			 M1060.1,440.9c-0.2-8.3-5.5-17.5-16.4-23c-10-5-20.1-5-29.6,1c-9,5.6-15.3,14.7-12.6,24.7c2.9,11.1-0.4,17.9-8.2,24.3
			c-0.3,0.2-0.5,0.5-0.7,0.8c-2.7,4.6-6.6,6-11.9,5.9c-34.8-0.2-69.5-0.1-104.3-0.2c-21.4,0-42.9-0.1-64.3-0.2c-3.8,0-7-0.7-8.5-4.7
			c-1.7-4.4-3.5-8.8-5.4-13.1c-6.2-14.7-12.3-29.4-19.2-43.8c-1.9-4-3.8-4.7-6.6-0.7c-1.5,2.1-3.4,4.1-5.4,5.7
			c-3.5,2.8-3.5,5.8-1.8,9.7c8.4,18.7,17.1,37.3,24.6,56.4c3,7.7,7.6,9.7,14.9,9.7c62.3-0.1,124.7-0.1,187.1-0.1
			c2.4,0,4.6-0.2,6.2-2.2c5-6.1,11.1-11.2,15.6-17.8c2.5-3.6,5-4.2,9.4-2.7C1041.3,477.2,1060,463.9,1060.1,440.9z M363.3,679
			c-0.3,2.6,0.9,4.8,1.7,7c10.2,26.1,20.2,52.3,30.9,78.3c3.6,8.8,5.1,16.6-1.8,24.3c-1.4,1.5-2.1,3.6-3.1,5.4
			c-17.2,29.3-34.4,58.8-51.8,88c-6.9,11.5-11.5,24.4-21.4,34c-0.5,0.5-0.4,1.1-0.4,1.7c-0.2,5.9-4.5,10.1-10.3,10.3
			c-16.2,0.6-25.4,11.9-28.5,24.5c-3,12.2,4.1,25.3,15.7,31.1c11.4,5.7,25.6,3.2,34.4-6c7.9-8.4,9.8-24.3,3.2-34.3
			c-3-4.5-2.4-7.9,0-12c7.9-13.2,15.6-26.6,23.6-39.8c21.4-35.2,40.7-71.7,62.8-106.5c2.4-3.7,2.8-7.2,1.1-11.4
			c-6.8-16.7-13.6-33.5-19.9-50.4c-4.1-11-9.2-21.1-18.6-28.7c-4.6-3.7-8.6-8.3-12.9-12.5C366.7,680.8,365.5,679.2,363.3,679z
			 M78.4,643.9c-0.1-9.6-0.1-9.6,4.5-12.7c11-7.5,22.1-14.9,33-22.5c3.3-2.3,6.8-3.2,10.8-3.2c47.9,0.1,95.9,0.1,143.9,0.2
			c4.2,0,8.6,0.2,12-2.9c6.4-5.9,13.1-5.6,20.3-1.5c1,0.6,2.2,1,3.4,1.4c1.4,0.4,2.4-0.2,2.6-1.7c0.8-4.7-7.1-14.5-12-14.5
			c-59.7-0.1-119.4-0.2-179.2-0.3c-1.9,0-3.8-0.1-5.5,1.3c-12.5,10.8-27.5,18.2-40.1,28.8c-3.3,2.8-6.2,3-10.1,1.1
			c-7.2-3.5-14.8-3.9-22.5-1.2c-13.3,4.7-21.4,19.4-18.3,33.5c3.2,14.7,16.9,24,32.4,22.2C68.2,670.1,78.6,658.4,78.4,643.9z
			 M209.9,530.8c0-0.1,0-0.1,0-0.2c23.9,0,47.8,0,71.7,0c6.6,0,6.9-0.5,4.8-6.6c-0.8-2.3-1.9-4.6-2.2-7c-0.7-4.8-3.6-5.6-7.8-5.6
			c-19.9,0.2-39.7,0-59.6,0.1c-22.3,0.2-44.6-0.5-66.9,0.6c-4.4,0.2-9.1,1.3-13.2-1.9c-13.8-10.8-27.7-21.5-41.6-32.3
			c-3.4-2.6-5.4-5.7-5.1-10.3c1.5-19.9-19.5-32.8-38.6-26.9c-11.7,3.6-18.6,12.6-19.3,25c-0.6,10.5,2.7,19.9,12.1,25.9
			c10.1,6.5,20.7,7.8,31.2,1.1c4.1-2.6,6.9-2.1,10.3,0.5c13.3,10.5,26.8,20.9,40.1,31.5c4.9,3.9,10,6.2,16.7,6
			C164.9,530.5,187.4,530.8,209.9,530.8z M634.2,281c3.8-0.8,8.6,1.9,12.2-3.5c9.3-13.8,19.2-27.2,28.6-41
			c23.7-34.8,49.1-68.4,72.8-103.1c3.4-4.9,7-6,12.3-5.2c11.1,1.6,20.1-2.8,26.5-11.6c6.3-8.6,7.1-18.4,3.1-28
			c-6.7-16.4-25-22.6-40.8-14.6c-11.1,5.7-18.5,21.7-13.8,32.7c3,6.9,2,11.8-2.9,16.9c-1.6,1.6-2.7,3.7-4,5.5
			c-23.4,32.8-46.9,65.7-70.3,98.6c-10.2,14.3-20.7,28.4-30.3,43C621.2,280.5,621.7,280.8,634.2,281z M877.6,144.7
			c0.3-15.3-8.9-25.1-20.5-28.5c-12.7-3.7-24.1,0.4-31.4,10.2c-6.9,9.2-7.3,23.2-0.8,33.7c1.7,2.7,1.5,4.5-0.1,7.1
			c-16,25.4-31.8,50.9-47.8,76.2c-15.7,24.9-31.5,49.8-47.3,74.6c-1.2,1.9-2.5,3.7-1.8,6.3c3.3,11.5,7.8,14,19.3,11.6
			c4.7-1,6-3.1,4-7.3c-2.1-4.6-1.2-8.7,1.6-12.9c5.7-8.6,11.2-17.4,16.7-26.1c23.4-36.9,46.8-73.7,70.2-110.6
			c2.5-3.9,5.3-5.9,10.2-6C865.8,172.8,877.5,160.5,877.6,144.7z M381.5,1000.5c0.1,18.5,7.2,28.3,20.3,32.9
			c10.5,3.7,23.6-0.7,31.5-10.5c6.5-8.1,7.6-22.8,1.2-31.7c-3.3-4.6-2.4-7.6-0.1-11.7c10.2-18,20.1-36.2,30.2-54.2
			c12.1-21.7,24.4-43.4,36.5-65.2c2.3-4.1,7.5-8.3,6.2-12.2c-1.2-3.7-7.1-5.6-10.8-8.6c-2.8-2.2-4.5-1.8-6.1,1.4
			c-2.7,5.5-5.5,10.8-8.5,16.1c-12.4,22-24.8,44-37.2,66c-9.1,16.2-18,32.6-26.9,48.9c-1.7,3.1-3.7,5.2-7.8,4.9
			c-5.5-0.4-10.8,1.9-15.3,4.5C385.3,986.3,381.5,995.2,381.5,1000.5z M871,531.8C871,531.9,871,531.9,871,531.8
			c20.2,0,40.4,0,60.6,0c12.1,0,24.2-0.1,36.4,0c2.5,0,4.7-0.2,5.2-3.2c0.7-4.6,0.6-9.5-1.3-13.4c-1.7-3.5-6.4-1.2-9.8-1.7
			c-1.4-0.2-2.8,0-4.2,0c-29,0-58-0.5-86.9,0.2c-27.6,0.7-55.1,0.1-82.7,0.4c-4.5,0-7.2-2.2-9.2-6.5c-8.3-18.6-16.9-37-25.5-55.5
			c-5.3-11.2-5.3-11-13.5-1.7c-2.9,3.3-4.7,6-2.5,10.6c10.1,21.6,20,43.3,29.8,65c1.9,4.3,4.6,5.8,9.3,5.8
			C808.2,531.8,839.6,531.8,871,531.8z M553.6,631.5c-1.8,0.1-4.3,0-6.7,0.8c-10.6,3.5-18.2,10.1-20.7,21.2c-2.9,13,1,24,12.3,31.6
			c3.6,2.4,6,4.6,5.5,9.6c-1.4,14.3-2.3,28.7-3.2,43c-0.3,4.8-2.3,7-7.1,8.1c-12.4,3-24.7,6.6-37.1,9.9c-3.3,0.9-4.1,2.5-1.4,5.1
			c3.5,3.4,6.6,7.2,10.8,10c1.8,1.2,3.5,1.7,5.5,1.1c13.9-3.7,27.7-7.5,41.6-10.9c4.2-1,5.5-3.4,5.6-7c0.2-19.1,1.8-38.2,3.1-57.2
			c0.3-4.7,1.5-7.5,5.9-9.7c11.4-5.6,17.7-19.2,15-30.8C579.3,641,568.3,631.6,553.6,631.5z M600.6,297.2
			C600.6,297.2,600.6,297.2,600.6,297.2c-5.1,0-10.2-0.1-15.3,0c-11.8,0-23.5,0.1-35.3,0.2c-1.1,0-2.7-0.5-3.3,1
			c-0.6,1.4,0.9,2.1,1.7,2.9c3.5,3.7,7.2,7.2,10.6,11c2.9,3.2,6.3,4.5,10.7,4.4c26-0.4,52-1.2,77.9-0.6c11.2,0.2,18.2-2.4,24.6-12.5
			c17.2-27.4,36.8-53.4,54.3-80.6c6.1-9.4,5.9-9.3-4-15.2c-3.6-2.2-5.6-2-8.2,1.6c-19.6,27.2-38,55.1-56.5,83c-2.3,3.5-4.8,5-9,5
			C632.9,297.1,616.8,297.2,600.6,297.2z M657,811.7c0.2-4.8-0.2-5.1-4.5-4.1c-1.5,0.4-3,0.9-4.5,1.4c-7.4,2.6-14.7,5.7-22.3,7.9
			c-17,4.8-34.1,9.3-52,10.2c-2,0.1-5.2-0.4-6,2.2c-0.7,2.5,2.1,3.9,3.6,5.4c17.3,16.7,34.7,33.3,52.1,49.9
			c8.1,7.8,10.8,8.2,20.8,3.4c2.5-1.2,3.6-2.8,3.8-5.6c0.7-8.9,1.5-17.8,2.7-26.7C652.6,840.9,654.9,826.2,657,811.7z M605.9,693.8
			c-7.6,0.3-16.4,4.1-21.7,14c-5.8,10.9-6.1,21.9,1.2,32.3c2.6,3.6,2.9,6.7,1.2,10.6c-3.2,7.4-6,15-8.8,22.5c-1.3,3.3-3.3,5.4-7,6.2
			c-11.1,2.7-22.1,5.7-33.1,8.6c-3.3,0.9-8.8,0.6-9.2,3.7c-0.5,3.2,4,6,6.8,8.6c3.9,3.6,7.8,6.8,13.9,5.1
			c11.8-3.4,23.7-6.4,35.6-9.6c2.3-0.6,4.5-1.4,5.3-3.9c3.2-10.6,8.8-20.3,12.2-30.8c2-6.1,4.8-9.9,11.8-10.2
			c14.8-0.8,24.9-17.4,23.8-30.5C636.7,705.6,623.8,693.7,605.9,693.8z M451.9,767.8c-3.9,0.5-7.4,1.7-9.2,5.8
			c-1.5,3.3-3.3,6.6-5,9.8c-20.7,37.5-43,74-65.4,110.5c-5.6,9.1-11.1,18.3-16.8,27.4c-2.2,3.6-2.9,6.8,1.7,9.2
			c1.5,0.8,3,1.9,4.4,2.9c1.8,1.2,3.3,0.9,4.6-0.7c12.5-15.6,25.8-30.5,37.3-47c0.9-1.3,1.8-2.7,1.7-4.3c-0.2-3.4,1.7-6,3.3-8.7
			c2.9-4.8,5.7-9.7,8.4-14.6c12.6-22.5,25.3-45,37.9-67.4c1.3-2.2,3.1-3.5,5.7-4.3c10.4-3.2,10.4-3.2,2.8-11.4
			C460.1,771.7,457,768.2,451.9,767.8z M453.2,456.9c19.5,0,33-16.4,28.6-35.2c-2.2-9.3-7.2-16.8-16.6-20.3
			c-4.5-1.7-6.8-4.6-6.4-9.6c0.1-1.2,0-2.5-0.3-3.7c-2.3-10.3-1.1-19.1,7.3-27.2c8.8-8.4,7.9-12.1-0.8-21.1c-2.3-2.4-4-2.5-5.9,0
			c-5.9,7.5-13.1,13.6-20.1,20c-1.7,1.5-2.1,3.1-1.9,5.6c1.1,10.1,1.8,20.3,2.7,30.4c0.4,3.7-1,6.1-4.1,8.3
			c-10.8,7.8-14.4,20.5-10,33.7C429.8,449.5,440.4,456.9,453.2,456.9z M208.3,549.1c0,0,0,0.1,0,0.1c-5.4,0-10.9,0-16.3,0
			c-21.8,0-43.6,0-65.3,0c-2.2,0-5.3-0.8-6,1.9c-1.2,4.7-1.7,9.9,0.3,14.4c1.5,3.5,5.7,2.1,8.6,2.1c53.4-0.2,106.7,1,160.1-0.7
			c10.4-0.3,10.4-0.2,8-10c-1.9-7.7-2.1-7.9-9.8-7.9C261.3,549.1,234.8,549.1,208.3,549.1z M696.4,346.2c2.9-0.4,5.4-0.8,7.8-1.1
			c8.5-1.1,9.1-2.4,5.5-9.9c-0.2-0.5-0.5-0.9-0.8-1.4c-3.7-5.2-3.2-10.1,0.2-15.5c16.5-25.5,32.7-51.1,49.1-76.6
			c5.5-8.5,5.6-8.7-3.4-14c-0.8-0.4-1.6-0.8-2.3-1.2c-2.8-1.7-5-0.9-6.7,1.8c-2.2,3.4-4.4,6.7-6.7,10.1
			c-18.4,27.6-36.8,55.1-54.4,83.2c-1.7,2.6-1.8,5,0,7.3c3.5,4.5,6,9.5,8.3,14.6C693.8,345,694.8,346.4,696.4,346.2z M335.6,511.5
			c-1.9,0-3.9,0-5.8,0c-13.5,0.4-12,0.3-7.5,12.2c1.9,5.1,5.3,7.3,10.9,6.9c5.9-0.4,11.9-0.2,17.9,0c3.4,0.1,6-1.1,8.4-3.4
			c9.2-8.6,18.7-17,27.8-25.7c4.3-4.1,8.8-6.6,15-5.7c5.7,0.8,11.5,1,17.2,1.8c4.4,0.6,7.1-0.1,6.9-5.5c-0.2-3.5,0.3-7,1-10.5
			c1-4.7-1.1-6-5.3-6c-10,0-20-0.1-30-0.2c-2.7,0-4.6,1.2-6.5,2.9c-7.7,7.1-15.5,14.2-23.3,21.2C354.7,506.3,348,515.3,335.6,511.5z
			 M483.2,800.3c-5.1,1.8-12.1,1.2-16,8.3c-11.8,21.7-24,43.2-36,64.8c-3.6,6.5-3.5,6.5,2.9,9.7c1.6,0.8,3.1,1.6,4.5,2.8
			c3.2,2.7,5.1,1.5,7-1.8c9.4-16.6,19.4-32.9,28.4-49.8c5-9.4,10.3-17,22.1-17.2c2.2,0,4.1-1.4,3.7-4.2
			C499,808.9,488.5,800.3,483.2,800.3z M625.5,335.5C625.5,335.5,625.5,335.5,625.5,335.5c-13.3,0-26.7,0-40,0.1
			c-4.8,0-5.3,1.1-2.6,5.2c1.7,2.5,3.2,5.2,3.3,8.2c0.1,4.5,2.2,5.5,6.2,5.5c20.3-0.1,40.7,0,61,0.1c6.7,0,13.1-2.2,19.6-3.4
			c1.8-0.3,3.6-1,3.6-3.2c0.1-5.1-7.4-12.5-12.8-12.5C651,335.5,638.2,335.5,625.5,335.5z M250.3,620.2c-17.8,0-34.8,0.1-51.8-0.1
			c-3.6,0-4.9,1.4-4.1,4.7c2,7.8,4.2,15.5,6.3,23.3c1,3.9,3.2,4,6.2,2.2c11.4-7.1,23-14,34.3-21.4
			C244.3,626.9,248.4,625.2,250.3,620.2z M735.9,178c-3.7,1.5-5,5.1-7.3,7.9c-2.3,2.8-1.3,4.4,1.3,6.2c11.3,7.6,22.5,15.4,33.8,23
			c10.3,7,10.2,6.9,16.7-3.7c2.6-4.2,2.5-6.7-2-9.3c-13.2-7.5-26.4-15.2-39.6-22.8C738,178.9,737,178.5,735.9,178z M365.9,178.2
			c-0.3,0.1-0.9,0.1-1.3,0.4c-8.7,4.9-17.4,9.9-26,14.9c-0.9,0.5-2.1,1-1.9,2.3c0.2,1.6,1.8,1.4,2.9,1.7c17.6,4.7,35.2,9.4,52.8,14
			c1,0.3,2.2,0.8,2.8-0.4c0.6-1.3-0.4-2.3-1.2-3.2c-7.8-9-15.6-18-23.5-26.9C369.3,179.7,368.2,178.2,365.9,178.2z M772.4,330.8
			c1.9,0.1,23.9-4.6,25.7-5.4c2.5-1,2.6-2.5,1-4.4c-5.2-6-10.9-11.4-16.7-16.8c-1.5-1.4-2.7-1.4-4,0.1c-4.3,5-9.1,9.8-12.3,15.7
			C763.8,324.1,767.8,330.6,772.4,330.8z M338.8,549.6c-5.5,0-6.3,1.2-4.5,6.3c0.4,1.2,0.7,2.3,1.1,3.5c3.9,11.1,7.8,22.1,11.7,33.2
			c0.7,2,1.9,3.7,4.2,2.9c2.1-0.8,4.1-2.1,3.6-5c-0.3-1.5-0.3-3.2-0.9-4.6c-3.8-10.4-6.6-21-9.5-31.7
			C343.8,551.2,342.1,549.1,338.8,549.6z"/>
		<path class="st1" d="M676.2,364.8c46-9.6,91.7-20.4,137.6-30.2c0,4.4-72.5,98.6-86.4,112.4c-1.4-1.1-0.8-2.5-0.7-3.9
			c0.1-11.1,0.2-22.1,0.3-33.2c0-2.1,0.2-4.5-2-5.6c-2.1-1-3.3,1.1-4.9,2.1c-13.1,8.3-26.4,16.3-39.4,24.7
			c-20.6,13.2-41.9,25.2-62.2,38.8c-4.5,3-3.8,5.1-1.3,8.6c11.9,16.7,26.1,31.5,39.4,47.1c4.7,5.5,9.9,9.2,16.4,10.1
			c4.4,0.6,8.5,1.6,12.7,2.8c0.8,0.2,2,0.1,1.9,1.2c0,0.8-0.6,1.7-1.2,2.2c-8.7,5.7-17.2,11.9-25.8,17.8
			c-9.5,6.5-19.3,12.7-28.9,19.2c-6.2,4.2-12.6,8-18.9,12c-1.1,0.7-2.2,1.3-3.3,0.6c-1.5-0.9-0.3-2.2-0.1-3.2
			c1.2-9.2,4-18.2,1.2-27.6c-1.2-3.9-3-7.2-5.8-10.3c-13.6-14.7-28.6-28-40.4-44.3c-3-4.1-5.7,0.2-7.2,1.2
			c-9.5,6.9-20.1,12.2-29.8,18.7c-17.1,11.5-34.6,22.2-52.1,33.1c-10.5,6.5-21,13.1-31.5,19.6c-10.9,6.8-21.8,13.7-32.7,20.6
			c-12,7.6-24,15.3-36.4,22.3c-6.6,3.7-13,7.9-19.5,11.9c-2.5,1.5-3.3,3.3-0.5,6.2c21,21.7,43.4,41.9,64.8,63.1
			c28,27.8,55.9,55.7,84.5,83c18.5,17.7,36.5,36,54.9,53.8c32.4,31.3,64.4,63,96.6,94.5c1.3,1.2,2.5,3.5,4.8,2.2
			c2.2-1.3,0.8-3.4,0.7-5.3c-0.8-12.9-1.7-25.8-1.3-38.8c0.4-11.4,1.8-22.6,2.8-33.9c0.7-7.6,2.1-15.2,3.7-22.7
			c1.4-7,2.2-14.2,3.2-21.2c1.3-9.1,2.7-18.3,3.8-27.5c2.5-21.5,5.2-43.1,5.9-64.8c0.5-14.6-0.5-29.2-2.4-43.5
			c-2.6-19.2-6.5-38.1-18.9-54c-7.1-9.2-17.2-13.8-27.6-17.8c-3.1-1.2-6.3-2-9.4-2.8c-1.2-0.3-3-0.5-3.2-2.3c-0.1-1.4,1.3-2,2.3-2.7
			c12.4-8.2,24.9-16.3,37.3-24.6c12.3-8.2,25.2-15.8,36.6-25.3c2.2-1.9,3.9-2.3,5.1,0.9c5.4,13.8,12,27,15.6,41.5
			c2.2,8.8,5.4,17.2,7.4,26.1c2.8,12.6,5.4,25.1,7.1,38c1.9,14,2.2,28,2.2,42c0.1,17.4-2.3,34.5-4.8,51.7
			c-2.5,18.1-6.8,35.9-10.1,53.9c-2.3,12.6-6.1,25-8.6,37.6c-1.8,9.4-4.5,18.5-5.7,28.1c-0.6,4.9-1.6,9.9-2.5,14.9
			c-3.7,19.3-3.9,38.9-1.8,58.2c2.2,20.4,9.2,40,21.9,56.5c11.9,15.5,27.1,27.7,46.2,33.5c11.3,3.4,23.2,3.3,34.9,3
			c4.3-0.1,8.3-0.1,11.4,3.7c3.5,4.5,2.9,8.4-2.3,10.8c-4.8,2.2-9.8,3.7-15.1,4.1c-23.5,1.8-45.9-2.4-66.8-13.6
			c-18.6-9.9-33-24.1-44.2-42.2c-7-11.4-11.9-23.6-16-36.2c-0.9-2.9-2.6-4.9-4.5-6.9c-21.5-21.4-43-42.8-64.7-64
			c-30.2-29.5-60.6-58.9-90.8-88.4c-38.2-37.3-76.2-74.7-114.4-112c-14.6-14.2-29.3-28.2-44-42.3c-3.6-3.5-5-3.2-6.3,1.5
			c-1.4,5.4-2.9,10.9-3,16.4c-0.2,7.9-2.2,14.1-10.2,16.8c-2.5,0.9-4.7,2.1-6.4,4.2c-0.8,1-2.2,1.5-3.4,1c-1.7-0.6-0.8-2.1-0.6-3.2
			c1.6-9.3,3.1-18.6,4.8-27.8c0.3-1.5,1.4-3.2-0.8-4c-2.1-0.7-4.3,0.5-4.5,2.5c-0.5,3.9-2.4,7.4-2.7,11.2
			c-0.7,8.9-4.4,17.2-4.9,26.1c0,0.5-0.4,1.1-0.8,1.3c-6,3.9-11.9,7.9-18.1,11.4c-2.1,1.2-2.4-1.3-2.1-2.9c1.3-7,2.5-14.1,4-21
			c0.7-3,1.2-5.8,1-8.8c-0.1-1.2,0.4-2.6-1.2-3c-1.4-0.4-2.5,0.7-3.1,1.6c-1.3,2-3.2,4.3-3.3,6.5c-0.2,5.5-2.3,10.7-2.5,16
			c-0.2,5.7-3.9,10.6-2.6,16.4c0.4,1.7-1.5,2.9-2.9,3.4c-5.8,2.1-10.2,6.6-15.5,9.4c-0.9,0.5-1.5,1.5-2.7,0.8
			c-1.2-0.7-0.7-1.8-0.5-2.8c2.3-10.2,2.6-20.8,5.6-30.9c0.6-2.2,0.4-4.1-2.8-4.3c-5.7-0.3-8.9-5.5-6.9-11.3c0.8-2.2,1.6-4-1.5-4.9
			c-12.4-3.6-24.9-7.2-37.4-10.8c0.9-1.3,1.4-3.1,4.1-3.5c2.1-0.3,4.3-1.7,5.8-3.3c7.1-7.5,15.2-6.1,23.4-2.9
			c5.3,2,10.9,2.6,16.3,3.6c4.4,0.9,8.4,3.5,13.2,2.8c1.8-0.2,4.5,0.9,4.9-1.5c0.5-2.7-2.4-3.1-4.3-3.6c-11.3-3-22.6-5.8-34.3-8.7
			c2.5-4.6,8-5,11.6-8.1c5.9-4.9,11.8-5.4,19.8-3c9.4,2.8,19.2,4.7,28.8,7.2c1.2,0.3,2.5,0.2,3.7,0.1c1.6-0.2,3.2-0.9,3.3-2.8
			c0.1-2-1.8-1.8-3-2.2c-7.5-2.1-15-4.4-22.7-6c-3.3-0.7-5.5-3.2-9.2-3.4c-2.2-0.1-0.1-3,0.9-3.4c5-1.8,8.9-5.6,13.7-7.4
			c6-2.1,11.4,2,17.2,2.9c6.4,1,12.6,3,18.9,4.6c1.2,0.3,2.6,0.7,3.2-0.7c0.3-0.7,0.3-1.9-0.1-2.5c-4.8-6.8-6.1-15.1-8.5-22.7
			c-3.3-10.3-7.3-20.3-10.8-30.5c-5.3-15.1-10.9-30-15.8-45.3c-4-12.5-8.7-24.7-12.9-37.1c-5.3-15.4-10.3-31-15.6-46.4
			c-6-17.5-12.3-34.9-18.3-52.4c-4.4-12.8-8.4-25.7-12.8-38.5c-4.1-12.2-8.6-24.2-12.8-36.4c-5.4-15.7-10.3-31.5-15.9-47.1
			c-4.8-13.1-8.9-26.6-13.5-39.8c-2.8-7.8-5.9-15.5-8.2-23.5c-1-3.6-3.8-6.2-6.6-8.7c-17-15.5-31-33.2-39.2-54.9
			c-6.4-17-9.1-34.7-7.2-52.9c1.4-13.7,4.7-26.7,10.6-39.1c2.9-6.2,6.1-12.2,10.3-17.6c2.5-3.2,6.1-5.8,10.3-4.1
			c4.2,1.7,5.3,6.6,3.4,11.8c-3.4,8.9-7.7,17.6-9.9,26.8c-2.5,10.3-3.1,21-2,31.8c2,18.4,9.6,34.2,20.6,48.4
			c7.3,9.3,16.1,17.4,25.9,24.4c11.8,8.4,24.6,14.9,37.8,20.5c11,4.6,22.4,8.3,34,11.2c11.4,2.9,22.6,6.9,34.1,9.2
			c17.7,3.6,35.2,8.1,52.8,12.2c14.6,3.4,28.9,7.9,43,12.8c8.7,3,17.3,6,25.7,9.9c14.6,6.8,29.2,13.5,43,22.1
			c7.6,4.7,15.3,9.2,22.4,14.5c11,8.1,21.9,16.1,31.9,25.6c9.4,9,19.6,17.1,27.9,27.1c3.5,4.2,7.3,8,10.9,12c1.9,2.1,2,4-0.7,5.6
			c-18.7,11.2-37.3,22.5-56.1,33.5c-5.7,3.3-11.3,6.7-16.8,10.4c-1.8,1.2-3.5,3.1-6.1,2.4c1.3-12,1.6-24.1,0.6-36.2
			c-0.4-5.4-3.2-10.3-6.3-14.8c-9.6-14.2-22.8-24.7-36.5-34.5c-18.2-12.9-38.2-22.3-58.8-30.8c-17.8-7.4-36-13.8-54.4-19.6
			c-11.9-3.7-23.8-7.6-35.6-11.3c-14.8-4.7-29.9-8.5-44.3-14.1c-12.4-4.8-24.8-9.6-36.2-16.7c-3.5-2.2-7.4-3.9-10.8-6.2
			c-1-0.7-2-1.8-3.2-0.9c-1.5,1-0.8,2.6-0.4,3.8c2.6,8,5.4,15.9,8.1,23.9c5.3,15.7,10.4,31.4,15.8,47.1
			c5.7,16.6,11.5,33.2,17.2,49.8c4.6,13.5,8.9,27.2,13.7,40.6c6.3,17.2,11.4,34.9,18,52c4.8,12.6,8.3,25.8,13.1,38.4
			c5.6,14.7,10.3,29.7,15.5,44.5c4.2,12,8.2,24.1,12.4,36.1c4.3,12.2,8.9,24.2,13,36.5c3.9,11.5,7.6,23.1,11.1,34.7
			c1.3,4.3,3.1,3.6,6,1.7c11.8-8,24.1-15.3,36.2-22.8c10.9-6.8,21.7-13.6,32.5-20.5c10.7-6.8,21.5-13.5,32.1-20.2
			c8.2-5.1,16.3-10.5,24.7-15.1c9.1-5,17.7-10.9,26.3-16.4c12.7-8.1,25.9-15.5,38.3-24.1c4.1-2.9,8.6-5.4,13-7.9
			c2.5-1.4,2.9-3.1,1.7-5.6c-8.2-17.2-13.2-35.6-19-53.6c-3.4-10.5-11.2-16.9-21.3-20.3c-4.5-1.5-8.5-3.9-12.9-5.4
			c-2.5-0.9-2-2.8,0.3-4.1c5.9-3.5,11.7-7,17.6-10.5c7-4.2,14.1-8.3,21.1-12.5c10.6-6.4,21.1-13,31.7-19.3c5-3,5.4-2.5,5.8,3.3
			c0.4,5-2.3,9-3.1,13.7c-1.2,8.2,3.7,13.9,6.1,20.6c2.9,7.9,5.7,15.8,8.7,23.6c4.4,11.4,9.7,22.4,15.6,33.1c1.2,2.1,2.4,2.6,5,1
			c22.3-14,44.7-27.8,67-41.6c12.7-7.9,25.4-15.8,38-23.7c2.6-1.6,3-3.3,0.2-5.2c-3-2-6.4-3.3-9.5-5
			C693.4,372.9,684.6,369.6,676.2,364.8z"/>
		<path class="st2" d="M881.1,585.4c18.5,0,36.9,0,55.3,0c5.8,0,11,1.9,16,4.6c3.5,1.9,4.2,4.9,3.8,8.5c-0.3,3.5-2.7,4.3-5.7,5.1
			c-19.1,5.2-38.6,8.8-58,13c-4,0.9-5.7,2.7-6.6,6.3c-4,16-8.4,31.8-14,47.4c-0.4,1-0.8,2-1.2,2.9c-2.9,7.4-2.5,7.9,3.5,13.4
			c14.2,13,28.2,26.4,42.4,39.5c2.6,2.4,2.6,4.5,0.9,7.3c-12.1,20.8-23.9,41.7-36.8,62c-2.1,3.4-4.5,3-7.6,1.8
			c-17.6-6.6-35.2-12.9-52.8-19.7c-5.5-2.1-9-1.3-13.1,3.4c-13,14.8-27.3,28.3-42.2,41.2c-3.8,3.2-4,6.2-2.5,10.5
			c6.4,18.2,12.4,36.5,18.7,54.7c1,3,0.9,4.7-2,6.5c-20.5,13.2-41.7,25.3-63.1,37c-5.1,2.8-7.3,1.1-7.6-5.5
			c-0.6-12.1,0.3-24.2,2.1-36.2c4.7-32.3,13.4-63.8,19.5-95.8c2.7-14.5,6.5-28.7,7.9-43.4c0.3-3,2.1-5.1,4.1-7.2
			c30-30.7,51-66.8,64.2-107.5c4.7-14.5,8-29.4,10.4-44.5c0.7-4.3,2.7-5.6,6.6-5.5C842.8,585.5,862,585.4,881.1,585.4
			C881.1,585.4,881.1,585.4,881.1,585.4z"/>
		<path class="st2" d="M254.3,698.8c-2.6,11.2-4.3,23.5-5.7,35.9c-0.4,3.8-2.4,8.8,0.4,10.9c2.5,1.9,6.1-2.2,9-4
			c15.9-10,31.8-20,47.5-30.2c3.5-2.3,5.6-1.6,8,1.2c6.9,8,12.8,16.7,19.9,24.5c13,14.1,26.7,27.4,41.9,39.1c6.5,5,6.4,5.5,2.4,12.3
			c-18.9,32.6-39,64.6-57.1,97.7c-1.8,3.2-3.5,6.5-5.4,9.6c-0.8,1.3-1.9,3.3-3,3.4c-5,0.4-7.9-4-11.9-5.9c-2.3-1-2.2-3.2-1.4-5.5
			c3.7-10.8,7.4-21.5,11-32.3c2.8-8.3,5.4-16.7,8.2-25c1.2-3.5-0.6-5.7-3-7.7c-13.8-11.7-26.3-24.8-38.9-37.8
			c-10.1-10.5-10.1-10.4-23.9-5.1c-15.2,5.8-30.6,11.3-45.8,17.2c-3.1,1.2-4.9,0.5-6.7-2c-13.8-19.9-26.6-40.4-38.7-61.4
			c-2.7-4.7,0.2-6.6,2.9-9.1c14.3-13.3,28.4-26.6,42.8-39.8c3.6-3.3,5.1-6.3,2.3-10.9c-0.9-1.5-2.2-3.8-0.7-5.4
			c1.4-1.4,3.3,0.1,4.9,0.6c8.7,2.8,17.5,5,26.5,6.8c2.4,0.5,4.2,1.6,5.3,3.8c2.5,4.8,4.1,10.1,8.4,13.8
			C254.7,694.8,254.2,696.4,254.3,698.8z"/>
		<path class="st2" d="M563.8,280.6c-11.4,0-22.8-0.1-34.3,0.1c-3.9,0.1-6.8-1.6-9.5-3.9c-20.5-17.4-43.8-30.4-67.8-42.1
			c-4.9-2.4-9.7-4.8-14.5-7.3c-1.2-0.6-3-1.1-2.7-2.8c0.3-1.6,2.1-1.8,3.4-2.1c12-3.2,24.1-6.3,36.1-9.4c2-0.5,4.1-0.9,6.2-1.4
			c2.9-0.6,4.1-2.3,4.7-5.4c3.8-20,8-39.9,11.9-59.8c0.6-3.2,2-4.3,5.2-4.3c24.9,0.1,49.9,0.2,74.9,0.1c3.8,0,5.2,1.9,5.9,5.2
			c3.9,19.2,7.9,38.4,11.7,57.7c0.7,3.8,2.6,5.2,6.2,5.9c12.6,2.4,24.9,5.9,37.1,9.6c4.7,1.4,5.3,3.2,2.4,7.2
			c-11.6,16.3-23.4,32.4-34.9,48.8c-2.3,3.3-5,4.3-8.8,4.2c-11.1-0.2-22.1-0.1-33.2-0.1C563.8,280.8,563.8,280.7,563.8,280.6z"/>
		<path class="st2" d="M845.7,459.2c-8.2,0-16.5-0.2-24.8,0.1c-3.9,0.1-6.1-1.3-7.6-4.9c-6.6-15.9-12.4-32.1-20.3-47.3
			c-5.8-11.1-4.1-18.7,3.8-27.8c11.4-13.2,21.4-27.7,31.9-41.8c1.9-2.5,4.1-4.3,7.2-5c13.3-2.8,25.7-8.2,38.3-13
			c3.4-1.3,5.5-1,7.4,2.2c12.8,20.7,25.2,41.8,37.1,63c1.8,3.2,1.2,5.4-1.5,7.8c-13.7,12-27.3,24.2-41.1,36.1
			c-4.3,3.7-7.6,7.1-4.1,13.2c1.9,3.3,2.8,7.2,4,10.8c1.7,5,0.7,6.5-4.5,6.5C862.9,459.2,854.3,459.2,845.7,459.2z"/>
		<path class="st2" d="M290.8,432.4c-7-16.5-11.6-33.3-17.5-49.6c-4.7-13-9-26.2-13.4-39.3c-1.1-3.2-3.1-6.8,3.5-5.4
			c2.5,0.5,4.7-1.2,6.3-3.2c13-16,27.6-30.4,43.2-43.8c4.2-3.6,4.3-6.9,2.2-11.4c-1.8-3.8-3-7.9-4.4-11.8c-1.4-3.9-0.9-5.9,3.9-4.3
			c11.8,4,23.6,7.9,35.4,11.8c21.8,7.3,43,16.1,63.6,26.5c2.6,1.3,6.6,2.3,6.7,5.3c0.1,3.3-4.2,3.5-6.7,4.8
			c-21.5,11.1-40.9,25.1-58.8,41.4c-23.1,20.9-42.2,45-58.1,71.6C295.2,427.5,293.9,430.2,290.8,432.4z"/>
		<path class="st2" d="M231.6,497c-10.4,0-20.7-0.1-31.1,0c-4.4,0.1-6-1.1-4.9-5.8c3.9-16.9,8.2-33.7,14.2-50
			c1.6-4.2,0.7-6.8-2.7-9.5c-15.2-12.4-29.6-25.9-44.1-39.1c-3.1-2.8-3.2-5.3-1.2-8.7c12.2-20.7,24.1-41.5,37.1-61.8
			c1.9-2.9,3.7-4,6.8-2.1c0.1,0.1,0.3,0.2,0.5,0.2c11.5,0.4,14.4,8.6,17.3,17.8c8,25,16.5,49.9,25,74.8
			c7.5,22.1,15.1,44.1,22.6,66.1c0.7,2,1.4,4.1,1.3,6.1c-0.6,9-2.7,12.4-10.7,11.9C251.6,496.5,241.6,496.9,231.6,497
			C231.6,496.9,231.6,497,231.6,497z"/>
		<path class="st2" d="M539.9,969.2c-13.2,0.2-25.1-0.2-37-0.8c-3.1-0.2-5.4-0.8-6-4.4c-2.9-15.7-5.9-31.3-9.1-46.9
			c-0.7-3.5,0.1-6.3,2-9.4c12.4-20.7,24.8-41.5,36.9-62.5c2-3.5,3.1-3.6,6-1c8.2,7.1,15.8,15,23.6,22.6c10.1,9.7,19.8,20,30.5,29.1
			c6.7,5.7,7.7,11.9,5.9,19.6c-3.8,16.2-6.5,32.6-9.3,49c-0.6,3.4-2.5,3.7-5.2,3.8C565,968.6,551.8,969.7,539.9,969.2z"/>
		<path class="st2" d="M1026.1,643.5c-15.9-0.2-28-11.9-28.3-27.8c-0.1-3.5-1-6.1-3.8-8.1c-12.8-9.5-26.1-18.5-38.3-28.7
			c-8.4-7-17.3-8.3-27.6-8.2c-37.8,0.4-75.5-0.2-113.3,0.3c-22.8,0.4-45.7,0.4-68.5,0.5c-4.1,0-7,1-9,4.9c-2,3.7-4.8,8.4-9.1,7.5
			c-3.7-0.8-4.4-6.2-5.9-10c-0.8-2-0.2-3.6,0.8-5.4c4.1-7.5,2.5-13.1-5.4-15.9c-7.9-2.8-8.7-10.1-11.4-16.1
			c-1.3-2.8,1.9-2.7,3.7-2.8c10.4-0.5,19.2,3,25.1,11.6c3.3,4.8,7,6.7,12.9,6.6c38.1-0.1,76.2,0.6,114.3,0.3
			c17.9-0.1,35.8-0.7,53.7-0.4c9.6,0.2,19.3,0.8,28.9-0.2c4.7-0.5,8.4,1.3,12.1,4.1c14.6,11.2,29.7,21.8,43.7,33.7
			c3.5,3,6,3.2,10.1,0.6c12.5-8.1,32.3-3.1,39.9,9.6c8.6,14.3,4.6,31.8-9,40.1C1037.3,642.4,1032.4,643.6,1026.1,643.5z
			 M1015.4,614.1c0,7,4.5,12,10.9,12.2c6.3,0.1,11.4-4.8,11.4-11.1c0.1-6.5-5.4-11.9-12.1-11.9
			C1019.6,603.4,1015.5,607.8,1015.4,614.1z"/>
		<path class="st2" d="M1060.1,440.9c-0.1,23-18.8,36.2-37.1,29.9c-4.3-1.5-6.9-0.9-9.4,2.7c-4.5,6.5-10.5,11.7-15.6,17.8
			c-1.6,1.9-3.9,2.2-6.2,2.2c-62.3,0-124.7,0-187.1,0.1c-7.3,0-11.9-2-14.9-9.7c-7.5-19.1-16.2-37.7-24.6-56.4
			c-1.7-3.9-1.7-6.9,1.8-9.7c2-1.6,3.9-3.6,5.4-5.7c2.8-4,4.7-3.3,6.6,0.7c6.9,14.4,13.1,29.1,19.2,43.8c1.8,4.4,3.6,8.7,5.4,13.1
			c1.6,4,4.8,4.7,8.5,4.7c21.4,0,42.9,0.1,64.3,0.2c34.8,0,69.5,0,104.3,0.2c5.3,0,9.2-1.4,11.9-5.9c0.2-0.3,0.4-0.6,0.7-0.8
			c7.8-6.4,11.1-13.2,8.2-24.3c-2.6-10,3.7-19.1,12.6-24.7c9.5-5.9,19.6-6,29.6-1C1054.6,423.5,1059.8,432.6,1060.1,440.9z
			 M1030.7,430.9c-7.2,0-12.4,5.1-12.3,12.1c0.1,6.6,5.8,12,12.6,12.1c6.6,0,12.4-5.4,12.4-11.5
			C1043.3,436.5,1037.7,430.9,1030.7,430.9z"/>
		<path class="st2" d="M363.3,679c2.3,0.2,3.5,1.8,4.8,3.1c4.3,4.2,8.2,8.7,12.9,12.5c9.4,7.6,14.5,17.7,18.6,28.7
			c6.3,16.9,13.1,33.7,19.9,50.4c1.7,4.2,1.3,7.7-1.1,11.4c-22.1,34.8-41.4,71.3-62.8,106.5c-8,13.2-15.7,26.6-23.6,39.8
			c-2.4,4-3,7.4,0,12c6.6,10,4.7,25.9-3.2,34.3c-8.8,9.3-23.1,11.8-34.4,6c-11.5-5.8-18.7-19-15.7-31.1c3.1-12.6,12.3-24,28.5-24.5
			c5.8-0.2,10-4.4,10.3-10.3c0-0.7-0.1-1.3,0.4-1.7c10-9.5,14.6-22.5,21.4-34c17.4-29.2,34.5-58.7,51.8-88c1.1-1.8,1.8-3.9,3.1-5.4
			c6.9-7.7,5.4-15.5,1.8-24.3c-10.7-25.9-20.7-52.1-30.9-78.3C364.1,683.8,363,681.5,363.3,679z M307.1,945.9
			c-7,0-11.5,4.2-11.5,10.7c0,7,5.3,13,11.7,13.2c6,0.2,12.1-6.4,12-12.8C319.1,950.7,313.9,945.9,307.1,945.9z"/>
		<path class="st2" d="M78.4,643.9c0.1,14.5-10.2,26.2-24.7,27.9c-15.6,1.9-29.2-7.5-32.4-22.2c-3.1-14.1,5-28.7,18.3-33.5
			c7.7-2.7,15.2-2.3,22.5,1.2c3.8,1.8,6.8,1.7,10.1-1.1c12.6-10.6,27.6-18,40.1-28.8c1.6-1.4,3.5-1.3,5.5-1.3
			c59.7,0.1,119.4,0.2,179.2,0.3c4.8,0,12.8,9.8,12,14.5c-0.3,1.5-1.2,2.1-2.6,1.7c-1.2-0.3-2.4-0.8-3.4-1.4
			c-7.1-4.1-13.9-4.3-20.3,1.5c-3.4,3.1-7.7,2.9-12,2.9c-47.9,0-95.9,0-143.9-0.2c-4.1,0-7.5,0.9-10.8,3.2c-10.9,7.6-22,15-33,22.5
			C78.4,634.3,78.4,634.3,78.4,643.9z M49.7,655.5c6.2,0.1,12-5.4,12.1-11.5c0.1-6.2-5.7-12.4-11.8-12.6
			c-6.3-0.2-12.3,5.5-12.3,11.9C37.5,649.6,43.3,655.4,49.7,655.5z"/>
		<path class="st2" d="M209.9,530.8c-22.5,0-45-0.3-67.5,0.2c-6.7,0.1-11.8-2.1-16.7-6c-13.3-10.6-26.8-21-40.1-31.5
			c-3.4-2.7-6.2-3.2-10.3-0.5c-10.4,6.7-21.1,5.4-31.2-1.1c-9.3-6-12.6-15.4-12.1-25.9c0.7-12.4,7.6-21.4,19.3-25
			c19.1-6,40.1,7,38.6,26.9c-0.3,4.6,1.7,7.7,5.1,10.3c13.9,10.7,27.8,21.5,41.6,32.3c4.1,3.2,8.8,2.1,13.2,1.9
			c22.3-1,44.6-0.4,66.9-0.6c19.9-0.2,39.7,0,59.6-0.1c4.2,0,7.2,0.7,7.8,5.6c0.3,2.4,1.5,4.7,2.2,7c2,6.1,1.8,6.5-4.8,6.6
			c-23.9,0.1-47.8,0-71.7,0C209.9,530.7,209.9,530.7,209.9,530.8z M61.1,480.5c6.9,0.1,12-4.6,12.1-11.1c0.1-6.9-5.5-13-12.3-13.2
			c-6.1-0.2-11.8,5.6-12,12.1C48.9,475.4,53.9,480.4,61.1,480.5z"/>
		<path class="st2" d="M634.2,281c-12.5-0.1-13-0.5-6.5-10.4c9.7-14.6,20.2-28.7,30.3-43c23.4-32.9,46.8-65.7,70.3-98.6
			c1.3-1.8,2.4-3.9,4-5.5c4.8-5,5.8-10,2.9-16.9c-4.7-10.9,2.7-27,13.8-32.7c15.8-8.1,34.1-1.8,40.8,14.6c4,9.6,3.2,19.5-3.1,28
			c-6.5,8.8-15.4,13.1-26.5,11.6c-5.3-0.8-9,0.3-12.3,5.2c-23.8,34.7-49.2,68.3-72.8,103.1c-9.4,13.8-19.3,27.1-28.6,41
			C642.8,282.8,637.9,280.1,634.2,281z M763.4,111c6.3,1.1,11.6-6.1,11.5-11c-0.2-7.3-4.8-12.3-11.4-12.3c-7,0-11.8,4.9-11.7,12.1
			C751.9,106.8,756.3,111.1,763.4,111z"/>
		<path class="st2" d="M877.6,144.7c-0.1,15.9-11.8,28.1-27.7,28.4c-4.9,0.1-7.7,2.1-10.2,6c-23.3,36.9-46.8,73.8-70.2,110.6
			c-5.5,8.7-11,17.5-16.7,26.1c-2.7,4.1-3.7,8.2-1.6,12.9c1.9,4.2,0.7,6.3-4,7.3c-11.5,2.5-16-0.1-19.3-11.6
			c-0.8-2.6,0.6-4.4,1.8-6.3c15.8-24.9,31.6-49.7,47.3-74.6c16-25.4,31.8-50.9,47.8-76.2c1.6-2.6,1.8-4.4,0.1-7.1
			c-6.6-10.5-6.1-24.5,0.8-33.7c7.4-9.8,18.7-14,31.4-10.2C868.6,119.6,877.9,129.4,877.6,144.7z M836.1,143.9
			c0,6,6.4,12.3,12.8,12.4c6.4,0.1,11.9-5.5,12-12.2c0.1-6.9-5.8-13.3-12.2-13.5C842.7,130.5,836.2,137.4,836.1,143.9z"/>
		<path class="st2" d="M381.5,1000.5c0.1-5.3,3.8-14.2,13.2-19.5c4.6-2.5,9.8-4.9,15.3-4.5c4.1,0.3,6.1-1.8,7.8-4.9
			c8.9-16.3,17.8-32.6,26.9-48.9c12.3-22,24.8-44,37.2-66c3-5.3,5.8-10.7,8.5-16.1c1.6-3.2,3.3-3.6,6.1-1.4
			c3.7,2.9,9.6,4.9,10.8,8.6c1.3,3.9-3.9,8.1-6.2,12.2c-12.1,21.8-24.3,43.5-36.5,65.2c-10.1,18.1-20,36.2-30.2,54.2
			c-2.3,4.1-3.2,7.1,0.1,11.7c6.4,8.9,5.2,23.6-1.2,31.7c-7.9,9.8-21,14.2-31.5,10.5C388.7,1028.8,381.5,1019,381.5,1000.5z
			 M421,1005.7c0-6.5-4.6-11.3-11-11.4c-6.1,0-11.4,5.4-11.3,11.4c0.1,5.5,5.6,10.8,11.4,11C415.7,1016.8,421,1011.5,421,1005.7z"/>
		<path class="st2" d="M871,531.8c-31.4,0-62.9-0.1-94.3,0.1c-4.7,0-7.4-1.6-9.3-5.8c-9.8-21.7-19.7-43.4-29.8-65
			c-2.2-4.6-0.4-7.2,2.5-10.6c8.2-9.3,8.2-9.5,13.5,1.7c8.7,18.4,17.2,36.9,25.5,55.5c1.9,4.3,4.7,6.5,9.2,6.5
			c27.6-0.2,55.1,0.3,82.7-0.4c29-0.7,58-0.2,86.9-0.2c1.4,0,2.8-0.2,4.2,0c3.3,0.4,8-1.8,9.8,1.7c1.9,3.9,2,8.8,1.3,13.4
			c-0.5,3-2.7,3.2-5.2,3.2c-12.1,0-24.2,0-36.4,0C911.5,531.9,891.3,531.9,871,531.8C871,531.8,871,531.8,871,531.8z"/>
		<path class="st2" d="M553.6,631.5c14.7,0.1,25.7,9.5,29.2,24.7c2.7,11.6-3.6,25.2-15,30.8c-4.5,2.2-5.6,5-5.9,9.7
			c-1.3,19.1-2.9,38.1-3.1,57.2c0,3.6-1.4,6-5.6,7c-14,3.4-27.8,7.2-41.6,10.9c-2,0.5-3.7,0-5.5-1.1c-4.2-2.8-7.2-6.6-10.8-10
			c-2.7-2.6-1.9-4.2,1.4-5.1c12.3-3.4,24.6-7,37.1-9.9c4.8-1.1,6.8-3.3,7.1-8.1c0.9-14.3,1.8-28.7,3.2-43c0.5-5-1.9-7.2-5.5-9.6
			c-11.3-7.6-15.2-18.6-12.3-31.6c2.4-11,10.1-17.7,20.7-21.2C549.3,631.5,551.8,631.6,553.6,631.5z M565.4,661.7
			c0-7.4-5-12.9-11.7-12.9c-5.7,0-11.4,6.2-11.4,12.4c0,5.9,6.1,11.7,12.1,11.6C560.5,672.7,565.4,667.7,565.4,661.7z"/>
		<path class="st2" d="M600.6,297.2c16.2,0,32.3-0.1,48.5,0.1c4.2,0,6.6-1.5,9-5c18.5-27.9,37-55.8,56.5-83c2.5-3.6,4.6-3.7,8.2-1.6
			c9.9,5.9,10,5.8,4,15.2c-17.6,27.3-37.1,53.2-54.3,80.7c-6.4,10.1-13.4,12.8-24.6,12.5c-26-0.6-51.9,0.2-77.9,0.6
			c-4.4,0.1-7.8-1.1-10.7-4.4c-3.4-3.8-7.1-7.3-10.6-11c-0.8-0.8-2.3-1.5-1.7-2.9c0.6-1.4,2.1-1,3.3-1c11.8-0.1,23.5-0.1,35.3-0.2
			C590.4,297.1,595.5,297.2,600.6,297.2C600.6,297.2,600.6,297.2,600.6,297.2z"/>
		<path class="st2" d="M657,811.7c-2.1,14.5-4.4,29.2-6.3,43.9c-1.2,8.8-2,17.8-2.7,26.7c-0.2,2.9-1.3,4.5-3.8,5.6
			c-10,4.8-12.7,4.4-20.8-3.4c-17.3-16.7-34.8-33.2-52.1-49.9c-1.6-1.5-4.4-2.9-3.6-5.4c0.8-2.5,4-2.1,6-2.2
			c17.8-0.8,35-5.3,52-10.2c7.6-2.2,14.9-5.2,22.3-7.9c1.5-0.5,3-1.1,4.5-1.4C656.8,806.6,657.2,806.9,657,811.7z"/>
		<path class="st2" d="M605.9,693.8c17.9-0.1,30.8,11.8,32,26.7c1.1,13.1-9,29.7-23.8,30.5c-7,0.4-9.8,4.1-11.8,10.2
			c-3.5,10.5-9,20.1-12.2,30.8c-0.8,2.5-3,3.3-5.3,3.9c-11.9,3.2-23.8,6.1-35.6,9.6c-6.2,1.8-10-1.5-13.9-5.1
			c-2.8-2.6-7.2-5.4-6.8-8.6c0.5-3.1,5.9-2.8,9.2-3.7c11-3,22-6,33.1-8.6c3.7-0.9,5.7-2.9,7-6.2c2.9-7.5,5.6-15.1,8.8-22.5
			c1.7-4,1.4-7-1.2-10.6c-7.4-10.3-7-21.3-1.2-32.3C589.5,697.9,598.3,694,605.9,693.8z M621.1,722.5c0-6.7-5.2-11.7-12.1-11.6
			c-6.2,0.1-11.6,5.4-11.7,11.8c-0.1,6,6.1,12.3,12,12.2C615.4,734.8,621.1,728.8,621.1,722.5z"/>
		<path class="st2" d="M451.9,767.8c5.1,0.4,8.2,3.9,11.4,7.2c7.7,8.1,7.7,8.2-2.8,11.4c-2.5,0.8-4.4,2.1-5.7,4.3
			c-12.6,22.5-25.2,45-37.9,67.4c-2.8,4.9-5.5,9.8-8.4,14.6c-1.6,2.7-3.5,5.3-3.3,8.7c0.1,1.6-0.8,3-1.7,4.3
			c-11.5,16.4-24.8,31.3-37.3,47c-1.3,1.6-2.8,1.9-4.6,0.7c-1.4-1-2.9-2.1-4.4-2.9c-4.6-2.4-3.9-5.6-1.7-9.2
			c5.6-9.1,11.2-18.2,16.8-27.4c22.3-36.5,44.7-73,65.4-110.5c1.8-3.2,3.5-6.5,5-9.8C444.5,769.5,448,768.4,451.9,767.8z"/>
		<path class="st2" d="M453.2,456.9c-12.8,0-23.4-7.4-27.4-19.1c-4.4-13.3-0.8-25.9,10-33.7c3.1-2.2,4.4-4.6,4.1-8.3
			c-1-10.1-1.6-20.3-2.7-30.4c-0.3-2.4,0.2-4,1.9-5.6c7-6.4,14.3-12.5,20.1-20c1.9-2.5,3.6-2.4,5.9,0c8.6,9,9.6,12.6,0.8,21.1
			c-8.4,8.1-9.6,16.9-7.3,27.2c0.3,1.2,0.4,2.5,0.3,3.7c-0.5,5,1.8,7.9,6.4,9.6c9.4,3.6,14.4,11,16.6,20.3
			C486.2,440.5,472.7,456.8,453.2,456.9z M453.3,416.4c-6.7,0-11.3,4.3-11.5,10.9c-0.1,6.4,5,12.2,11.1,12.4
			c6.7,0.2,12.2-5.3,12.1-12.3C465,421.5,459.6,416.5,453.3,416.4z"/>
		<path class="st2" d="M208.3,549.1c26.5,0,53,0,79.6,0c7.7,0,7.9,0.2,9.8,7.9c2.4,9.8,2.4,9.7-8,10c-53.4,1.6-106.7,0.4-160.1,0.7
			c-3,0-7.1,1.4-8.6-2.1c-2-4.5-1.5-9.7-0.3-14.4c0.7-2.7,3.8-1.9,6-1.9c21.8,0,43.6,0,65.3,0c5.4,0,10.9,0,16.3,0
			C208.3,549.2,208.3,549.2,208.3,549.1z"/>
		<path class="st2" d="M696.4,346.2c-1.6,0.2-2.6-1.2-3.4-2.9c-2.3-5.1-4.8-10.1-8.3-14.6c-1.8-2.3-1.7-4.6,0-7.3
			c17.6-28.1,36-55.6,54.4-83.2c2.2-3.4,4.5-6.7,6.7-10.1c1.7-2.6,3.8-3.4,6.7-1.8c0.8,0.4,1.6,0.8,2.3,1.2c8.9,5.3,8.9,5.4,3.4,14
			c-16.4,25.5-32.6,51.2-49.1,76.6c-3.5,5.4-4,10.3-0.2,15.5c0.3,0.4,0.6,0.9,0.8,1.4c3.7,7.6,3,8.8-5.5,9.9
			C701.8,345.4,699.4,345.8,696.4,346.2z"/>
		<path class="st2" d="M335.6,511.5c12.4,3.8,19.1-5.2,26.7-12c7.9-7,15.6-14.1,23.3-21.2c1.9-1.7,3.7-2.9,6.5-2.9
			c10,0.2,20,0.2,30,0.2c4.2,0,6.3,1.3,5.3,6c-0.7,3.4-1.2,7-1,10.5c0.2,5.4-2.5,6.1-6.9,5.5c-5.7-0.7-11.5-0.9-17.2-1.8
			c-6.2-0.9-10.7,1.7-15,5.7c-9.2,8.7-18.6,17-27.8,25.7c-2.5,2.3-5,3.5-8.4,3.4c-6-0.2-12-0.4-17.9,0c-5.6,0.4-9-1.8-10.9-6.9
			c-4.4-11.9-5.9-11.8,7.5-12.2C331.8,511.5,333.7,511.5,335.6,511.5z"/>
		<path class="st2" d="M483.2,800.3c5.3,0,15.9,8.6,16.5,12.8c0.4,2.7-1.4,4.1-3.7,4.2c-11.8,0.1-17.2,7.8-22.1,17.2
			c-9,16.8-18.9,33.2-28.4,49.8c-1.8,3.2-3.7,4.4-7,1.8c-1.3-1.1-2.9-2-4.5-2.8c-6.5-3.2-6.6-3.2-2.9-9.7c12-21.6,24.2-43.1,36-64.8
			C471.1,801.5,478,802.1,483.2,800.3z"/>
		<path class="st2" d="M625.5,335.5c12.8,0,25.6,0,38.4,0c5.3,0,12.9,7.4,12.8,12.5c0,2.2-1.8,2.9-3.6,3.2
			c-6.5,1.2-12.9,3.4-19.6,3.4c-20.3-0.1-40.7-0.2-61-0.1c-4.1,0-6.2-1-6.2-5.5c0-3-1.5-5.7-3.3-8.2c-2.7-4-2.2-5.1,2.6-5.2
			C598.8,335.5,612.1,335.5,625.5,335.5C625.5,335.5,625.5,335.5,625.5,335.5z"/>
		<path class="st2" d="M250.3,620.2c-1.9,5-6,6.6-9.1,8.7c-11.2,7.4-22.8,14.3-34.3,21.4c-3,1.9-5.2,1.8-6.2-2.2
			c-2.1-7.8-4.2-15.5-6.3-23.3c-0.9-3.3,0.4-4.7,4.1-4.7C215.5,620.3,232.5,620.2,250.3,620.2z"/>
		<path class="st2" d="M735.9,178c1.2,0.5,2.2,0.9,3,1.4c13.2,7.6,26.3,15.3,39.6,22.8c4.5,2.5,4.6,5.1,2,9.3
			c-6.5,10.5-6.3,10.7-16.7,3.7c-11.3-7.6-22.5-15.4-33.8-23c-2.7-1.8-3.7-3.4-1.3-6.2C730.8,183.1,732.2,179.4,735.9,178z"/>
		<path class="st2" d="M365.9,178.2c2.3-0.1,3.4,1.5,4.5,2.7c7.9,8.9,15.7,17.9,23.5,26.9c0.8,0.9,1.9,1.9,1.2,3.2
			c-0.6,1.2-1.8,0.6-2.8,0.4c-17.6-4.7-35.2-9.3-52.8-14c-1.1-0.3-2.7-0.1-2.9-1.7c-0.1-1.2,1.1-1.8,1.9-2.3c8.7-5,17.3-9.9,26-14.9
			C365.1,178.3,365.6,178.3,365.9,178.2z"/>
		<path class="st2" d="M772.4,330.8c-4.6-0.1-8.6-6.7-6.3-10.8c3.3-5.9,8-10.6,12.3-15.7c1.3-1.5,2.5-1.5,4-0.1
			c5.8,5.4,11.5,10.9,16.7,16.8c1.7,1.9,1.6,3.4-1,4.4C796.2,326.2,774.3,330.9,772.4,330.8z"/>
		<path class="st2" d="M338.8,549.6c3.3-0.5,5,1.6,5.8,4.6c3,10.6,5.7,21.3,9.5,31.7c0.5,1.5,0.6,3.1,0.9,4.6c0.5,2.9-1.5,4.3-3.6,5
			c-2.3,0.8-3.5-1-4.2-2.9c-3.9-11-7.8-22.1-11.7-33.2c-0.4-1.2-0.7-2.4-1.1-3.5C332.5,550.8,333.3,549.6,338.8,549.6z"/>
		<path class="st3" d="M1015.4,614.1c0-6.3,4.2-10.7,10.2-10.8c6.7-0.1,12.1,5.3,12.1,11.9c-0.1,6.3-5.1,11.2-11.4,11.1
			C1019.9,626.2,1015.4,621.1,1015.4,614.1z"/>
		<path class="st3" d="M1030.7,430.9c7,0,12.7,5.7,12.7,12.6c0,6.2-5.8,11.5-12.4,11.5c-6.8,0-12.5-5.5-12.6-12.1
			C1018.3,436,1023.5,430.9,1030.7,430.9z"/>
		<path class="st3" d="M307.1,945.9c6.8,0,12,4.7,12.1,11.1c0.1,6.4-6,13-12,12.8c-6.4-0.2-11.7-6.2-11.7-13.2
			C295.6,950.1,300.1,945.9,307.1,945.9z"/>
		<path class="st3" d="M49.7,655.5c-6.4-0.1-12.1-5.9-12.1-12.2c0-6.4,6-12.1,12.3-11.9c6.1,0.2,11.9,6.4,11.8,12.6
			C61.7,650.1,55.9,655.5,49.7,655.5z"/>
		<path class="st3" d="M61.1,480.5c-7.2-0.1-12.2-5.1-12.1-12.2c0.1-6.5,5.8-12.3,12-12.1c6.7,0.2,12.4,6.3,12.3,13.2
			C73.1,475.8,68,480.5,61.1,480.5z"/>
		<path class="st3" d="M763.4,111c-7.1,0-11.5-4.2-11.6-11.3c-0.1-7.1,4.7-12.1,11.7-12.1c6.7,0,11.3,5,11.4,12.3
			C775,104.9,769.7,112.1,763.4,111z"/>
		<path class="st3" d="M836.1,143.9c0-6.5,6.6-13.4,12.6-13.3c6.4,0.2,12.2,6.6,12.2,13.5c-0.1,6.7-5.6,12.3-12,12.2
			C842.6,156.2,836.1,149.9,836.1,143.9z"/>
		<path class="st3" d="M421,1005.7c0,5.8-5.3,11.1-11,11c-5.8-0.1-11.3-5.5-11.4-11c-0.1-6,5.2-11.4,11.3-11.4
			C416.4,994.4,421,999.2,421,1005.7z"/>
		<path class="st3" d="M565.4,661.7c0,6-5,11-11,11.1c-6,0.1-12.1-5.7-12.1-11.6c0-6.2,5.7-12.4,11.4-12.4
			C560.4,648.8,565.4,654.3,565.4,661.7z"/>
		<path class="st3" d="M621.1,722.5c0,6.3-5.7,12.2-11.8,12.4c-6,0.1-12.2-6.2-12-12.2c0.2-6.3,5.5-11.7,11.7-11.8
			C615.9,710.8,621.1,715.8,621.1,722.5z"/>
		<path class="st3" d="M453.3,416.4c6.4,0,11.7,5,11.7,10.9c0,7-5.4,12.6-12.1,12.3c-6-0.2-11.2-6-11.1-12.4
			C441.9,420.8,446.5,416.4,453.3,416.4z"/>
	</g>
</g>
</svg>
